%TF.GenerationSoftware,KiCad,Pcbnew,5.0.2-bee76a0~70~ubuntu18.04.1*%
%TF.CreationDate,2019-07-21T13:21:52-06:00*%
%TF.ProjectId,MX+ Distortion Pedal,4d582b20-4469-4737-946f-7274696f6e20,rev?*%
%TF.SameCoordinates,Original*%
%TF.FileFunction,Legend,Top*%
%TF.FilePolarity,Positive*%
%FSLAX46Y46*%
G04 Gerber Fmt 4.6, Leading zero omitted, Abs format (unit mm)*
G04 Created by KiCad (PCBNEW 5.0.2-bee76a0~70~ubuntu18.04.1) date Sun 21 Jul 2019 01:21:52 PM MDT*
%MOMM*%
%LPD*%
G01*
G04 APERTURE LIST*
%ADD10C,0.150000*%
%ADD11C,0.200000*%
%ADD12C,0.300000*%
%ADD13C,0.500000*%
%ADD14C,0.120000*%
G04 APERTURE END LIST*
D10*
X57726571Y-68242571D02*
X57726571Y-66742571D01*
X58083714Y-66742571D01*
X58298000Y-66814000D01*
X58440857Y-66956857D01*
X58512285Y-67099714D01*
X58583714Y-67385428D01*
X58583714Y-67599714D01*
X58512285Y-67885428D01*
X58440857Y-68028285D01*
X58298000Y-68171142D01*
X58083714Y-68242571D01*
X57726571Y-68242571D01*
X59798000Y-68171142D02*
X59655142Y-68242571D01*
X59369428Y-68242571D01*
X59226571Y-68171142D01*
X59155142Y-68028285D01*
X59155142Y-67456857D01*
X59226571Y-67314000D01*
X59369428Y-67242571D01*
X59655142Y-67242571D01*
X59798000Y-67314000D01*
X59869428Y-67456857D01*
X59869428Y-67599714D01*
X59155142Y-67742571D01*
X60440857Y-68171142D02*
X60583714Y-68242571D01*
X60869428Y-68242571D01*
X61012285Y-68171142D01*
X61083714Y-68028285D01*
X61083714Y-67956857D01*
X61012285Y-67814000D01*
X60869428Y-67742571D01*
X60655142Y-67742571D01*
X60512285Y-67671142D01*
X60440857Y-67528285D01*
X60440857Y-67456857D01*
X60512285Y-67314000D01*
X60655142Y-67242571D01*
X60869428Y-67242571D01*
X61012285Y-67314000D01*
X61726571Y-68242571D02*
X61726571Y-67242571D01*
X61726571Y-66742571D02*
X61655142Y-66814000D01*
X61726571Y-66885428D01*
X61798000Y-66814000D01*
X61726571Y-66742571D01*
X61726571Y-66885428D01*
X63083714Y-67242571D02*
X63083714Y-68456857D01*
X63012285Y-68599714D01*
X62940857Y-68671142D01*
X62798000Y-68742571D01*
X62583714Y-68742571D01*
X62440857Y-68671142D01*
X63083714Y-68171142D02*
X62940857Y-68242571D01*
X62655142Y-68242571D01*
X62512285Y-68171142D01*
X62440857Y-68099714D01*
X62369428Y-67956857D01*
X62369428Y-67528285D01*
X62440857Y-67385428D01*
X62512285Y-67314000D01*
X62655142Y-67242571D01*
X62940857Y-67242571D01*
X63083714Y-67314000D01*
X63798000Y-67242571D02*
X63798000Y-68242571D01*
X63798000Y-67385428D02*
X63869428Y-67314000D01*
X64012285Y-67242571D01*
X64226571Y-67242571D01*
X64369428Y-67314000D01*
X64440857Y-67456857D01*
X64440857Y-68242571D01*
X65726571Y-68171142D02*
X65583714Y-68242571D01*
X65298000Y-68242571D01*
X65155142Y-68171142D01*
X65083714Y-68028285D01*
X65083714Y-67456857D01*
X65155142Y-67314000D01*
X65298000Y-67242571D01*
X65583714Y-67242571D01*
X65726571Y-67314000D01*
X65798000Y-67456857D01*
X65798000Y-67599714D01*
X65083714Y-67742571D01*
X67083714Y-68242571D02*
X67083714Y-66742571D01*
X67083714Y-68171142D02*
X66940857Y-68242571D01*
X66655142Y-68242571D01*
X66512285Y-68171142D01*
X66440857Y-68099714D01*
X66369428Y-67956857D01*
X66369428Y-67528285D01*
X66440857Y-67385428D01*
X66512285Y-67314000D01*
X66655142Y-67242571D01*
X66940857Y-67242571D01*
X67083714Y-67314000D01*
X68940857Y-68242571D02*
X68940857Y-66742571D01*
X68940857Y-67314000D02*
X69083714Y-67242571D01*
X69369428Y-67242571D01*
X69512285Y-67314000D01*
X69583714Y-67385428D01*
X69655142Y-67528285D01*
X69655142Y-67956857D01*
X69583714Y-68099714D01*
X69512285Y-68171142D01*
X69369428Y-68242571D01*
X69083714Y-68242571D01*
X68940857Y-68171142D01*
X70155142Y-67242571D02*
X70512285Y-68242571D01*
X70869428Y-67242571D02*
X70512285Y-68242571D01*
X70369428Y-68599714D01*
X70298000Y-68671142D01*
X70155142Y-68742571D01*
X71440857Y-68099714D02*
X71512285Y-68171142D01*
X71440857Y-68242571D01*
X71369428Y-68171142D01*
X71440857Y-68099714D01*
X71440857Y-68242571D01*
X71440857Y-67314000D02*
X71512285Y-67385428D01*
X71440857Y-67456857D01*
X71369428Y-67385428D01*
X71440857Y-67314000D01*
X71440857Y-67456857D01*
X74155142Y-68099714D02*
X74083714Y-68171142D01*
X73869428Y-68242571D01*
X73726571Y-68242571D01*
X73512285Y-68171142D01*
X73369428Y-68028285D01*
X73298000Y-67885428D01*
X73226571Y-67599714D01*
X73226571Y-67385428D01*
X73298000Y-67099714D01*
X73369428Y-66956857D01*
X73512285Y-66814000D01*
X73726571Y-66742571D01*
X73869428Y-66742571D01*
X74083714Y-66814000D01*
X74155142Y-66885428D01*
X74726571Y-67814000D02*
X75440857Y-67814000D01*
X74583714Y-68242571D02*
X75083714Y-66742571D01*
X75583714Y-68242571D01*
D11*
X66119428Y-62953571D02*
X66119428Y-61453571D01*
X66619428Y-62525000D01*
X67119428Y-61453571D01*
X67119428Y-62953571D01*
X67690857Y-61453571D02*
X68690857Y-62953571D01*
X68690857Y-61453571D02*
X67690857Y-62953571D01*
X69262285Y-62382142D02*
X70405142Y-62382142D01*
X69833714Y-62953571D02*
X69833714Y-61810714D01*
X60476571Y-65403571D02*
X60476571Y-63903571D01*
X60833714Y-63903571D01*
X61048000Y-63975000D01*
X61190857Y-64117857D01*
X61262285Y-64260714D01*
X61333714Y-64546428D01*
X61333714Y-64760714D01*
X61262285Y-65046428D01*
X61190857Y-65189285D01*
X61048000Y-65332142D01*
X60833714Y-65403571D01*
X60476571Y-65403571D01*
X61976571Y-65403571D02*
X61976571Y-63903571D01*
X62619428Y-65332142D02*
X62833714Y-65403571D01*
X63190857Y-65403571D01*
X63333714Y-65332142D01*
X63405142Y-65260714D01*
X63476571Y-65117857D01*
X63476571Y-64975000D01*
X63405142Y-64832142D01*
X63333714Y-64760714D01*
X63190857Y-64689285D01*
X62905142Y-64617857D01*
X62762285Y-64546428D01*
X62690857Y-64475000D01*
X62619428Y-64332142D01*
X62619428Y-64189285D01*
X62690857Y-64046428D01*
X62762285Y-63975000D01*
X62905142Y-63903571D01*
X63262285Y-63903571D01*
X63476571Y-63975000D01*
X63905142Y-63903571D02*
X64762285Y-63903571D01*
X64333714Y-65403571D02*
X64333714Y-63903571D01*
X65548000Y-63903571D02*
X65833714Y-63903571D01*
X65976571Y-63975000D01*
X66119428Y-64117857D01*
X66190857Y-64403571D01*
X66190857Y-64903571D01*
X66119428Y-65189285D01*
X65976571Y-65332142D01*
X65833714Y-65403571D01*
X65548000Y-65403571D01*
X65405142Y-65332142D01*
X65262285Y-65189285D01*
X65190857Y-64903571D01*
X65190857Y-64403571D01*
X65262285Y-64117857D01*
X65405142Y-63975000D01*
X65548000Y-63903571D01*
X67690857Y-65403571D02*
X67190857Y-64689285D01*
X66833714Y-65403571D02*
X66833714Y-63903571D01*
X67405142Y-63903571D01*
X67548000Y-63975000D01*
X67619428Y-64046428D01*
X67690857Y-64189285D01*
X67690857Y-64403571D01*
X67619428Y-64546428D01*
X67548000Y-64617857D01*
X67405142Y-64689285D01*
X66833714Y-64689285D01*
X68119428Y-63903571D02*
X68976571Y-63903571D01*
X68548000Y-65403571D02*
X68548000Y-63903571D01*
X69476571Y-65403571D02*
X69476571Y-63903571D01*
X70476571Y-63903571D02*
X70762285Y-63903571D01*
X70905142Y-63975000D01*
X71048000Y-64117857D01*
X71119428Y-64403571D01*
X71119428Y-64903571D01*
X71048000Y-65189285D01*
X70905142Y-65332142D01*
X70762285Y-65403571D01*
X70476571Y-65403571D01*
X70333714Y-65332142D01*
X70190857Y-65189285D01*
X70119428Y-64903571D01*
X70119428Y-64403571D01*
X70190857Y-64117857D01*
X70333714Y-63975000D01*
X70476571Y-63903571D01*
X71762285Y-65403571D02*
X71762285Y-63903571D01*
X72619428Y-65403571D01*
X72619428Y-63903571D01*
D12*
X59626571Y-44557142D02*
X60769428Y-44557142D01*
X53594095Y-44592857D02*
X55117904Y-44592857D01*
X54356000Y-45354761D02*
X54356000Y-43830952D01*
D13*
X40000000Y-70000000D02*
X95000000Y-70000000D01*
X95000000Y-36000000D02*
X95000000Y-70000000D01*
X40000000Y-36000000D02*
X40000000Y-70000000D01*
X40000000Y-36000000D02*
X95000000Y-36000000D01*
D14*
X67227267Y-58418000D02*
X66884733Y-58418000D01*
X67227267Y-59438000D02*
X66884733Y-59438000D01*
X67279733Y-46230000D02*
X67622267Y-46230000D01*
X67279733Y-45210000D02*
X67622267Y-45210000D01*
X47326733Y-46484000D02*
X47669267Y-46484000D01*
X47326733Y-45464000D02*
X47669267Y-45464000D01*
X70704000Y-51870000D02*
X70704000Y-54810000D01*
X70944000Y-51870000D02*
X70944000Y-54810000D01*
X70824000Y-51870000D02*
X70824000Y-54810000D01*
X77854000Y-53340000D02*
X75364000Y-53340000D01*
X67434000Y-53340000D02*
X69924000Y-53340000D01*
X75364000Y-51870000D02*
X69924000Y-51870000D01*
X75364000Y-54810000D02*
X75364000Y-51870000D01*
X69924000Y-54810000D02*
X75364000Y-54810000D01*
X69924000Y-51870000D02*
X69924000Y-54810000D01*
X74584000Y-49984000D02*
X74584000Y-47044000D01*
X74344000Y-49984000D02*
X74344000Y-47044000D01*
X74464000Y-49984000D02*
X74464000Y-47044000D01*
X67434000Y-48514000D02*
X69924000Y-48514000D01*
X77854000Y-48514000D02*
X75364000Y-48514000D01*
X69924000Y-49984000D02*
X75364000Y-49984000D01*
X69924000Y-47044000D02*
X69924000Y-49984000D01*
X75364000Y-47044000D02*
X69924000Y-47044000D01*
X75364000Y-49984000D02*
X75364000Y-47044000D01*
X71882000Y-42930000D02*
X71882000Y-43940000D01*
X66802000Y-42930000D02*
X71882000Y-42930000D01*
X66802000Y-43940000D02*
X66802000Y-42930000D01*
X73252000Y-44040000D02*
X65452000Y-44040000D01*
X73252000Y-37990000D02*
X73252000Y-44040000D01*
X65452000Y-37990000D02*
X73252000Y-37990000D01*
X65452000Y-44040000D02*
X65452000Y-37990000D01*
X91948000Y-42930000D02*
X91948000Y-43940000D01*
X86868000Y-42930000D02*
X91948000Y-42930000D01*
X86868000Y-43940000D02*
X86868000Y-42930000D01*
X93318000Y-44040000D02*
X85518000Y-44040000D01*
X93318000Y-37990000D02*
X93318000Y-44040000D01*
X85518000Y-37990000D02*
X93318000Y-37990000D01*
X85518000Y-44040000D02*
X85518000Y-37990000D01*
X48768000Y-42676000D02*
X48768000Y-43686000D01*
X43688000Y-42676000D02*
X48768000Y-42676000D01*
X43688000Y-43686000D02*
X43688000Y-42676000D01*
X50138000Y-43786000D02*
X42338000Y-43786000D01*
X50138000Y-37736000D02*
X50138000Y-43786000D01*
X42338000Y-37736000D02*
X50138000Y-37736000D01*
X42338000Y-43786000D02*
X42338000Y-37736000D01*
X81788000Y-42930000D02*
X81788000Y-43940000D01*
X76708000Y-42930000D02*
X81788000Y-42930000D01*
X76708000Y-43940000D02*
X76708000Y-42930000D01*
X83158000Y-44040000D02*
X75358000Y-44040000D01*
X83158000Y-37990000D02*
X83158000Y-44040000D01*
X75358000Y-37990000D02*
X83158000Y-37990000D01*
X75358000Y-44040000D02*
X75358000Y-37990000D01*
X47669267Y-51560000D02*
X47326733Y-51560000D01*
X47669267Y-52580000D02*
X47326733Y-52580000D01*
X66884733Y-57406000D02*
X67227267Y-57406000D01*
X66884733Y-56386000D02*
X67227267Y-56386000D01*
X47669267Y-47496000D02*
X47326733Y-47496000D01*
X47669267Y-48516000D02*
X47326733Y-48516000D01*
X47326733Y-50548000D02*
X47669267Y-50548000D01*
X47326733Y-49528000D02*
X47669267Y-49528000D01*
X60162000Y-47438000D02*
X58912000Y-47438000D01*
X60162000Y-57718000D02*
X60162000Y-47438000D01*
X55662000Y-57718000D02*
X60162000Y-57718000D01*
X55662000Y-47438000D02*
X55662000Y-57718000D01*
X56912000Y-47438000D02*
X55662000Y-47438000D01*
X58912000Y-47438000D02*
G75*
G02X56912000Y-47438000I-1000000J0D01*
G01*
D10*
X86360095Y-57444380D02*
X86360095Y-56444380D01*
X86360095Y-56920571D02*
X86931523Y-56920571D01*
X86931523Y-57444380D02*
X86931523Y-56444380D01*
X87360095Y-56539619D02*
X87407714Y-56492000D01*
X87502952Y-56444380D01*
X87741047Y-56444380D01*
X87836285Y-56492000D01*
X87883904Y-56539619D01*
X87931523Y-56634857D01*
X87931523Y-56730095D01*
X87883904Y-56872952D01*
X87312476Y-57444380D01*
X87931523Y-57444380D01*
X45974095Y-57444380D02*
X45974095Y-56444380D01*
X45974095Y-56920571D02*
X46545523Y-56920571D01*
X46545523Y-57444380D02*
X46545523Y-56444380D01*
X47545523Y-57444380D02*
X46974095Y-57444380D01*
X47259809Y-57444380D02*
X47259809Y-56444380D01*
X47164571Y-56587238D01*
X47069333Y-56682476D01*
X46974095Y-56730095D01*
X69683333Y-59285142D02*
X69635714Y-59332761D01*
X69492857Y-59380380D01*
X69397619Y-59380380D01*
X69254761Y-59332761D01*
X69159523Y-59237523D01*
X69111904Y-59142285D01*
X69064285Y-58951809D01*
X69064285Y-58808952D01*
X69111904Y-58618476D01*
X69159523Y-58523238D01*
X69254761Y-58428000D01*
X69397619Y-58380380D01*
X69492857Y-58380380D01*
X69635714Y-58428000D01*
X69683333Y-58475619D01*
X70540476Y-58713714D02*
X70540476Y-59380380D01*
X70302380Y-58332761D02*
X70064285Y-59047047D01*
X70683333Y-59047047D01*
X70078333Y-46077142D02*
X70030714Y-46124761D01*
X69887857Y-46172380D01*
X69792619Y-46172380D01*
X69649761Y-46124761D01*
X69554523Y-46029523D01*
X69506904Y-45934285D01*
X69459285Y-45743809D01*
X69459285Y-45600952D01*
X69506904Y-45410476D01*
X69554523Y-45315238D01*
X69649761Y-45220000D01*
X69792619Y-45172380D01*
X69887857Y-45172380D01*
X70030714Y-45220000D01*
X70078333Y-45267619D01*
X70983095Y-45172380D02*
X70506904Y-45172380D01*
X70459285Y-45648571D01*
X70506904Y-45600952D01*
X70602142Y-45553333D01*
X70840238Y-45553333D01*
X70935476Y-45600952D01*
X70983095Y-45648571D01*
X71030714Y-45743809D01*
X71030714Y-45981904D01*
X70983095Y-46077142D01*
X70935476Y-46124761D01*
X70840238Y-46172380D01*
X70602142Y-46172380D01*
X70506904Y-46124761D01*
X70459285Y-46077142D01*
X44537333Y-46331142D02*
X44489714Y-46378761D01*
X44346857Y-46426380D01*
X44251619Y-46426380D01*
X44108761Y-46378761D01*
X44013523Y-46283523D01*
X43965904Y-46188285D01*
X43918285Y-45997809D01*
X43918285Y-45854952D01*
X43965904Y-45664476D01*
X44013523Y-45569238D01*
X44108761Y-45474000D01*
X44251619Y-45426380D01*
X44346857Y-45426380D01*
X44489714Y-45474000D01*
X44537333Y-45521619D01*
X45394476Y-45426380D02*
X45204000Y-45426380D01*
X45108761Y-45474000D01*
X45061142Y-45521619D01*
X44965904Y-45664476D01*
X44918285Y-45854952D01*
X44918285Y-46235904D01*
X44965904Y-46331142D01*
X45013523Y-46378761D01*
X45108761Y-46426380D01*
X45299238Y-46426380D01*
X45394476Y-46378761D01*
X45442095Y-46331142D01*
X45489714Y-46235904D01*
X45489714Y-45997809D01*
X45442095Y-45902571D01*
X45394476Y-45854952D01*
X45299238Y-45807333D01*
X45108761Y-45807333D01*
X45013523Y-45854952D01*
X44965904Y-45902571D01*
X44918285Y-45997809D01*
X71905904Y-56078380D02*
X71905904Y-55078380D01*
X72144000Y-55078380D01*
X72286857Y-55126000D01*
X72382095Y-55221238D01*
X72429714Y-55316476D01*
X72477333Y-55506952D01*
X72477333Y-55649809D01*
X72429714Y-55840285D01*
X72382095Y-55935523D01*
X72286857Y-56030761D01*
X72144000Y-56078380D01*
X71905904Y-56078380D01*
X73429714Y-56078380D02*
X72858285Y-56078380D01*
X73144000Y-56078380D02*
X73144000Y-55078380D01*
X73048761Y-55221238D01*
X72953523Y-55316476D01*
X72858285Y-55364095D01*
X66032095Y-51892380D02*
X66032095Y-50892380D01*
X66603523Y-51892380D02*
X66174952Y-51320952D01*
X66603523Y-50892380D02*
X66032095Y-51463809D01*
X71905904Y-51436380D02*
X71905904Y-50436380D01*
X72144000Y-50436380D01*
X72286857Y-50484000D01*
X72382095Y-50579238D01*
X72429714Y-50674476D01*
X72477333Y-50864952D01*
X72477333Y-51007809D01*
X72429714Y-51198285D01*
X72382095Y-51293523D01*
X72286857Y-51388761D01*
X72144000Y-51436380D01*
X71905904Y-51436380D01*
X72858285Y-50531619D02*
X72905904Y-50484000D01*
X73001142Y-50436380D01*
X73239238Y-50436380D01*
X73334476Y-50484000D01*
X73382095Y-50531619D01*
X73429714Y-50626857D01*
X73429714Y-50722095D01*
X73382095Y-50864952D01*
X72810666Y-51436380D01*
X73429714Y-51436380D01*
X78732095Y-50866380D02*
X78732095Y-49866380D01*
X79303523Y-50866380D02*
X78874952Y-50294952D01*
X79303523Y-49866380D02*
X78732095Y-50437809D01*
X68968666Y-36692380D02*
X68968666Y-37406666D01*
X68921047Y-37549523D01*
X68825809Y-37644761D01*
X68682952Y-37692380D01*
X68587714Y-37692380D01*
X69968666Y-37692380D02*
X69397238Y-37692380D01*
X69682952Y-37692380D02*
X69682952Y-36692380D01*
X69587714Y-36835238D01*
X69492476Y-36930476D01*
X69397238Y-36978095D01*
X89034666Y-36692380D02*
X89034666Y-37406666D01*
X88987047Y-37549523D01*
X88891809Y-37644761D01*
X88748952Y-37692380D01*
X88653714Y-37692380D01*
X89463238Y-36787619D02*
X89510857Y-36740000D01*
X89606095Y-36692380D01*
X89844190Y-36692380D01*
X89939428Y-36740000D01*
X89987047Y-36787619D01*
X90034666Y-36882857D01*
X90034666Y-36978095D01*
X89987047Y-37120952D01*
X89415619Y-37692380D01*
X90034666Y-37692380D01*
X45854666Y-36438380D02*
X45854666Y-37152666D01*
X45807047Y-37295523D01*
X45711809Y-37390761D01*
X45568952Y-37438380D01*
X45473714Y-37438380D01*
X46235619Y-36438380D02*
X46854666Y-36438380D01*
X46521333Y-36819333D01*
X46664190Y-36819333D01*
X46759428Y-36866952D01*
X46807047Y-36914571D01*
X46854666Y-37009809D01*
X46854666Y-37247904D01*
X46807047Y-37343142D01*
X46759428Y-37390761D01*
X46664190Y-37438380D01*
X46378476Y-37438380D01*
X46283238Y-37390761D01*
X46235619Y-37343142D01*
X78874666Y-36692380D02*
X78874666Y-37406666D01*
X78827047Y-37549523D01*
X78731809Y-37644761D01*
X78588952Y-37692380D01*
X78493714Y-37692380D01*
X79779428Y-37025714D02*
X79779428Y-37692380D01*
X79541333Y-36644761D02*
X79303238Y-37359047D01*
X79922285Y-37359047D01*
X44537333Y-52522380D02*
X44204000Y-52046190D01*
X43965904Y-52522380D02*
X43965904Y-51522380D01*
X44346857Y-51522380D01*
X44442095Y-51570000D01*
X44489714Y-51617619D01*
X44537333Y-51712857D01*
X44537333Y-51855714D01*
X44489714Y-51950952D01*
X44442095Y-51998571D01*
X44346857Y-52046190D01*
X43965904Y-52046190D01*
X44870666Y-51522380D02*
X45489714Y-51522380D01*
X45156380Y-51903333D01*
X45299238Y-51903333D01*
X45394476Y-51950952D01*
X45442095Y-51998571D01*
X45489714Y-52093809D01*
X45489714Y-52331904D01*
X45442095Y-52427142D01*
X45394476Y-52474761D01*
X45299238Y-52522380D01*
X45013523Y-52522380D01*
X44918285Y-52474761D01*
X44870666Y-52427142D01*
X69683333Y-57348380D02*
X69350000Y-56872190D01*
X69111904Y-57348380D02*
X69111904Y-56348380D01*
X69492857Y-56348380D01*
X69588095Y-56396000D01*
X69635714Y-56443619D01*
X69683333Y-56538857D01*
X69683333Y-56681714D01*
X69635714Y-56776952D01*
X69588095Y-56824571D01*
X69492857Y-56872190D01*
X69111904Y-56872190D01*
X70588095Y-56348380D02*
X70111904Y-56348380D01*
X70064285Y-56824571D01*
X70111904Y-56776952D01*
X70207142Y-56729333D01*
X70445238Y-56729333D01*
X70540476Y-56776952D01*
X70588095Y-56824571D01*
X70635714Y-56919809D01*
X70635714Y-57157904D01*
X70588095Y-57253142D01*
X70540476Y-57300761D01*
X70445238Y-57348380D01*
X70207142Y-57348380D01*
X70111904Y-57300761D01*
X70064285Y-57253142D01*
X44537333Y-48458380D02*
X44204000Y-47982190D01*
X43965904Y-48458380D02*
X43965904Y-47458380D01*
X44346857Y-47458380D01*
X44442095Y-47506000D01*
X44489714Y-47553619D01*
X44537333Y-47648857D01*
X44537333Y-47791714D01*
X44489714Y-47886952D01*
X44442095Y-47934571D01*
X44346857Y-47982190D01*
X43965904Y-47982190D01*
X45394476Y-47458380D02*
X45204000Y-47458380D01*
X45108761Y-47506000D01*
X45061142Y-47553619D01*
X44965904Y-47696476D01*
X44918285Y-47886952D01*
X44918285Y-48267904D01*
X44965904Y-48363142D01*
X45013523Y-48410761D01*
X45108761Y-48458380D01*
X45299238Y-48458380D01*
X45394476Y-48410761D01*
X45442095Y-48363142D01*
X45489714Y-48267904D01*
X45489714Y-48029809D01*
X45442095Y-47934571D01*
X45394476Y-47886952D01*
X45299238Y-47839333D01*
X45108761Y-47839333D01*
X45013523Y-47886952D01*
X44965904Y-47934571D01*
X44918285Y-48029809D01*
X44396333Y-50490380D02*
X44063000Y-50014190D01*
X43824904Y-50490380D02*
X43824904Y-49490380D01*
X44205857Y-49490380D01*
X44301095Y-49538000D01*
X44348714Y-49585619D01*
X44396333Y-49680857D01*
X44396333Y-49823714D01*
X44348714Y-49918952D01*
X44301095Y-49966571D01*
X44205857Y-50014190D01*
X43824904Y-50014190D01*
X44729666Y-49490380D02*
X45396333Y-49490380D01*
X44967761Y-50490380D01*
X57150095Y-45890380D02*
X57150095Y-46699904D01*
X57197714Y-46795142D01*
X57245333Y-46842761D01*
X57340571Y-46890380D01*
X57531047Y-46890380D01*
X57626285Y-46842761D01*
X57673904Y-46795142D01*
X57721523Y-46699904D01*
X57721523Y-45890380D01*
X58150095Y-45985619D02*
X58197714Y-45938000D01*
X58292952Y-45890380D01*
X58531047Y-45890380D01*
X58626285Y-45938000D01*
X58673904Y-45985619D01*
X58721523Y-46080857D01*
X58721523Y-46176095D01*
X58673904Y-46318952D01*
X58102476Y-46890380D01*
X58721523Y-46890380D01*
X53670295Y-36993580D02*
X53670295Y-37803104D01*
X53717914Y-37898342D01*
X53765533Y-37945961D01*
X53860771Y-37993580D01*
X54051247Y-37993580D01*
X54146485Y-37945961D01*
X54194104Y-37898342D01*
X54241723Y-37803104D01*
X54241723Y-36993580D01*
X55146485Y-37326914D02*
X55146485Y-37993580D01*
X54908390Y-36945961D02*
X54670295Y-37660247D01*
X55289342Y-37660247D01*
X59436095Y-36841180D02*
X59436095Y-37650704D01*
X59483714Y-37745942D01*
X59531333Y-37793561D01*
X59626571Y-37841180D01*
X59817047Y-37841180D01*
X59912285Y-37793561D01*
X59959904Y-37745942D01*
X60007523Y-37650704D01*
X60007523Y-36841180D01*
X60959904Y-36841180D02*
X60483714Y-36841180D01*
X60436095Y-37317371D01*
X60483714Y-37269752D01*
X60578952Y-37222133D01*
X60817047Y-37222133D01*
X60912285Y-37269752D01*
X60959904Y-37317371D01*
X61007523Y-37412609D01*
X61007523Y-37650704D01*
X60959904Y-37745942D01*
X60912285Y-37793561D01*
X60817047Y-37841180D01*
X60578952Y-37841180D01*
X60483714Y-37793561D01*
X60436095Y-37745942D01*
M02*
