M48
;DRILL file {KiCad 5.0.2-bee76a0~70~ubuntu18.04.1} date Sun 21 Jul 2019 01:28:53 PM MDT
;FORMAT={-:-/ absolute / inch / decimal}
FMAT,2
INCH,TZ
T1C0.0315
T2C0.0354
T3C0.0402
T4C0.0700
T5C0.1969
%
G90
G05
T1
X2.13Y-1.92
X2.13Y-2.02
X2.13Y-2.12
X2.13Y-2.22
X2.43Y-1.92
X2.43Y-2.02
X2.43Y-2.12
X2.43Y-2.22
T2
X2.61Y-2.1
X3.11Y-2.1
X2.61Y-1.91
X3.11Y-1.91
T3
X3.02Y-1.6
X3.12Y-1.6
X3.22Y-1.6
X1.72Y-1.59
X1.82Y-1.59
X1.92Y-1.59
X2.63Y-1.6
X2.73Y-1.6
X2.83Y-1.6
X3.42Y-1.6
X3.52Y-1.6
X3.62Y-1.6
T4
X2.14Y-1.618
X2.37Y-1.62
T5
X1.84Y-2.48
X3.43Y-2.48
T0
M30
