%TF.GenerationSoftware,KiCad,Pcbnew,5.0.2-bee76a0~70~ubuntu18.04.1*%
%TF.CreationDate,2019-07-21T13:21:52-06:00*%
%TF.ProjectId,MX+ Distortion Pedal,4d582b20-4469-4737-946f-7274696f6e20,rev?*%
%TF.SameCoordinates,Original*%
%TF.FileFunction,Copper,L2,Bot*%
%TF.FilePolarity,Positive*%
%FSLAX46Y46*%
G04 Gerber Fmt 4.6, Leading zero omitted, Abs format (unit mm)*
G04 Created by KiCad (PCBNEW 5.0.2-bee76a0~70~ubuntu18.04.1) date Sun 21 Jul 2019 01:21:52 PM MDT*
%MOMM*%
%LPD*%
G01*
G04 APERTURE LIST*
%ADD10C,0.500000*%
%ADD11C,10.000000*%
%ADD12C,0.100000*%
%ADD13C,0.950000*%
%ADD14O,1.800000X1.800000*%
%ADD15R,1.800000X1.800000*%
%ADD16O,1.730000X2.030000*%
%ADD17R,1.730000X2.030000*%
%ADD18O,2.400000X1.600000*%
%ADD19R,2.400000X1.600000*%
%ADD20C,3.810000*%
%ADD21C,0.508000*%
%ADD22C,0.254000*%
G04 APERTURE END LIST*
D10*
X40000000Y-70000000D02*
X95000000Y-70000000D01*
X95000000Y-36000000D02*
X95000000Y-70000000D01*
X40000000Y-36000000D02*
X40000000Y-70000000D01*
X40000000Y-36000000D02*
X95000000Y-36000000D01*
D11*
X87122000Y-62992000D03*
X46736000Y-62992000D03*
D12*
G36*
X46933779Y-45500144D02*
X46956834Y-45503563D01*
X46979443Y-45509227D01*
X47001387Y-45517079D01*
X47022457Y-45527044D01*
X47042448Y-45539026D01*
X47061168Y-45552910D01*
X47078438Y-45568562D01*
X47094090Y-45585832D01*
X47107974Y-45604552D01*
X47119956Y-45624543D01*
X47129921Y-45645613D01*
X47137773Y-45667557D01*
X47143437Y-45690166D01*
X47146856Y-45713221D01*
X47148000Y-45736500D01*
X47148000Y-46211500D01*
X47146856Y-46234779D01*
X47143437Y-46257834D01*
X47137773Y-46280443D01*
X47129921Y-46302387D01*
X47119956Y-46323457D01*
X47107974Y-46343448D01*
X47094090Y-46362168D01*
X47078438Y-46379438D01*
X47061168Y-46395090D01*
X47042448Y-46408974D01*
X47022457Y-46420956D01*
X47001387Y-46430921D01*
X46979443Y-46438773D01*
X46956834Y-46444437D01*
X46933779Y-46447856D01*
X46910500Y-46449000D01*
X46335500Y-46449000D01*
X46312221Y-46447856D01*
X46289166Y-46444437D01*
X46266557Y-46438773D01*
X46244613Y-46430921D01*
X46223543Y-46420956D01*
X46203552Y-46408974D01*
X46184832Y-46395090D01*
X46167562Y-46379438D01*
X46151910Y-46362168D01*
X46138026Y-46343448D01*
X46126044Y-46323457D01*
X46116079Y-46302387D01*
X46108227Y-46280443D01*
X46102563Y-46257834D01*
X46099144Y-46234779D01*
X46098000Y-46211500D01*
X46098000Y-45736500D01*
X46099144Y-45713221D01*
X46102563Y-45690166D01*
X46108227Y-45667557D01*
X46116079Y-45645613D01*
X46126044Y-45624543D01*
X46138026Y-45604552D01*
X46151910Y-45585832D01*
X46167562Y-45568562D01*
X46184832Y-45552910D01*
X46203552Y-45539026D01*
X46223543Y-45527044D01*
X46244613Y-45517079D01*
X46266557Y-45509227D01*
X46289166Y-45503563D01*
X46312221Y-45500144D01*
X46335500Y-45499000D01*
X46910500Y-45499000D01*
X46933779Y-45500144D01*
X46933779Y-45500144D01*
G37*
D13*
X46623000Y-45974000D03*
D12*
G36*
X48683779Y-45500144D02*
X48706834Y-45503563D01*
X48729443Y-45509227D01*
X48751387Y-45517079D01*
X48772457Y-45527044D01*
X48792448Y-45539026D01*
X48811168Y-45552910D01*
X48828438Y-45568562D01*
X48844090Y-45585832D01*
X48857974Y-45604552D01*
X48869956Y-45624543D01*
X48879921Y-45645613D01*
X48887773Y-45667557D01*
X48893437Y-45690166D01*
X48896856Y-45713221D01*
X48898000Y-45736500D01*
X48898000Y-46211500D01*
X48896856Y-46234779D01*
X48893437Y-46257834D01*
X48887773Y-46280443D01*
X48879921Y-46302387D01*
X48869956Y-46323457D01*
X48857974Y-46343448D01*
X48844090Y-46362168D01*
X48828438Y-46379438D01*
X48811168Y-46395090D01*
X48792448Y-46408974D01*
X48772457Y-46420956D01*
X48751387Y-46430921D01*
X48729443Y-46438773D01*
X48706834Y-46444437D01*
X48683779Y-46447856D01*
X48660500Y-46449000D01*
X48085500Y-46449000D01*
X48062221Y-46447856D01*
X48039166Y-46444437D01*
X48016557Y-46438773D01*
X47994613Y-46430921D01*
X47973543Y-46420956D01*
X47953552Y-46408974D01*
X47934832Y-46395090D01*
X47917562Y-46379438D01*
X47901910Y-46362168D01*
X47888026Y-46343448D01*
X47876044Y-46323457D01*
X47866079Y-46302387D01*
X47858227Y-46280443D01*
X47852563Y-46257834D01*
X47849144Y-46234779D01*
X47848000Y-46211500D01*
X47848000Y-45736500D01*
X47849144Y-45713221D01*
X47852563Y-45690166D01*
X47858227Y-45667557D01*
X47866079Y-45645613D01*
X47876044Y-45624543D01*
X47888026Y-45604552D01*
X47901910Y-45585832D01*
X47917562Y-45568562D01*
X47934832Y-45552910D01*
X47953552Y-45539026D01*
X47973543Y-45527044D01*
X47994613Y-45517079D01*
X48016557Y-45509227D01*
X48039166Y-45503563D01*
X48062221Y-45500144D01*
X48085500Y-45499000D01*
X48660500Y-45499000D01*
X48683779Y-45500144D01*
X48683779Y-45500144D01*
G37*
D13*
X48373000Y-45974000D03*
D12*
G36*
X48683779Y-47532144D02*
X48706834Y-47535563D01*
X48729443Y-47541227D01*
X48751387Y-47549079D01*
X48772457Y-47559044D01*
X48792448Y-47571026D01*
X48811168Y-47584910D01*
X48828438Y-47600562D01*
X48844090Y-47617832D01*
X48857974Y-47636552D01*
X48869956Y-47656543D01*
X48879921Y-47677613D01*
X48887773Y-47699557D01*
X48893437Y-47722166D01*
X48896856Y-47745221D01*
X48898000Y-47768500D01*
X48898000Y-48243500D01*
X48896856Y-48266779D01*
X48893437Y-48289834D01*
X48887773Y-48312443D01*
X48879921Y-48334387D01*
X48869956Y-48355457D01*
X48857974Y-48375448D01*
X48844090Y-48394168D01*
X48828438Y-48411438D01*
X48811168Y-48427090D01*
X48792448Y-48440974D01*
X48772457Y-48452956D01*
X48751387Y-48462921D01*
X48729443Y-48470773D01*
X48706834Y-48476437D01*
X48683779Y-48479856D01*
X48660500Y-48481000D01*
X48085500Y-48481000D01*
X48062221Y-48479856D01*
X48039166Y-48476437D01*
X48016557Y-48470773D01*
X47994613Y-48462921D01*
X47973543Y-48452956D01*
X47953552Y-48440974D01*
X47934832Y-48427090D01*
X47917562Y-48411438D01*
X47901910Y-48394168D01*
X47888026Y-48375448D01*
X47876044Y-48355457D01*
X47866079Y-48334387D01*
X47858227Y-48312443D01*
X47852563Y-48289834D01*
X47849144Y-48266779D01*
X47848000Y-48243500D01*
X47848000Y-47768500D01*
X47849144Y-47745221D01*
X47852563Y-47722166D01*
X47858227Y-47699557D01*
X47866079Y-47677613D01*
X47876044Y-47656543D01*
X47888026Y-47636552D01*
X47901910Y-47617832D01*
X47917562Y-47600562D01*
X47934832Y-47584910D01*
X47953552Y-47571026D01*
X47973543Y-47559044D01*
X47994613Y-47549079D01*
X48016557Y-47541227D01*
X48039166Y-47535563D01*
X48062221Y-47532144D01*
X48085500Y-47531000D01*
X48660500Y-47531000D01*
X48683779Y-47532144D01*
X48683779Y-47532144D01*
G37*
D13*
X48373000Y-48006000D03*
D12*
G36*
X46933779Y-47532144D02*
X46956834Y-47535563D01*
X46979443Y-47541227D01*
X47001387Y-47549079D01*
X47022457Y-47559044D01*
X47042448Y-47571026D01*
X47061168Y-47584910D01*
X47078438Y-47600562D01*
X47094090Y-47617832D01*
X47107974Y-47636552D01*
X47119956Y-47656543D01*
X47129921Y-47677613D01*
X47137773Y-47699557D01*
X47143437Y-47722166D01*
X47146856Y-47745221D01*
X47148000Y-47768500D01*
X47148000Y-48243500D01*
X47146856Y-48266779D01*
X47143437Y-48289834D01*
X47137773Y-48312443D01*
X47129921Y-48334387D01*
X47119956Y-48355457D01*
X47107974Y-48375448D01*
X47094090Y-48394168D01*
X47078438Y-48411438D01*
X47061168Y-48427090D01*
X47042448Y-48440974D01*
X47022457Y-48452956D01*
X47001387Y-48462921D01*
X46979443Y-48470773D01*
X46956834Y-48476437D01*
X46933779Y-48479856D01*
X46910500Y-48481000D01*
X46335500Y-48481000D01*
X46312221Y-48479856D01*
X46289166Y-48476437D01*
X46266557Y-48470773D01*
X46244613Y-48462921D01*
X46223543Y-48452956D01*
X46203552Y-48440974D01*
X46184832Y-48427090D01*
X46167562Y-48411438D01*
X46151910Y-48394168D01*
X46138026Y-48375448D01*
X46126044Y-48355457D01*
X46116079Y-48334387D01*
X46108227Y-48312443D01*
X46102563Y-48289834D01*
X46099144Y-48266779D01*
X46098000Y-48243500D01*
X46098000Y-47768500D01*
X46099144Y-47745221D01*
X46102563Y-47722166D01*
X46108227Y-47699557D01*
X46116079Y-47677613D01*
X46126044Y-47656543D01*
X46138026Y-47636552D01*
X46151910Y-47617832D01*
X46167562Y-47600562D01*
X46184832Y-47584910D01*
X46203552Y-47571026D01*
X46223543Y-47559044D01*
X46244613Y-47549079D01*
X46266557Y-47541227D01*
X46289166Y-47535563D01*
X46312221Y-47532144D01*
X46335500Y-47531000D01*
X46910500Y-47531000D01*
X46933779Y-47532144D01*
X46933779Y-47532144D01*
G37*
D13*
X46623000Y-48006000D03*
D12*
G36*
X85350779Y-50671144D02*
X85373834Y-50674563D01*
X85396443Y-50680227D01*
X85418387Y-50688079D01*
X85439457Y-50698044D01*
X85459448Y-50710026D01*
X85478168Y-50723910D01*
X85495438Y-50739562D01*
X85511090Y-50756832D01*
X85524974Y-50775552D01*
X85536956Y-50795543D01*
X85546921Y-50816613D01*
X85554773Y-50838557D01*
X85560437Y-50861166D01*
X85563856Y-50884221D01*
X85565000Y-50907500D01*
X85565000Y-51482500D01*
X85563856Y-51505779D01*
X85560437Y-51528834D01*
X85554773Y-51551443D01*
X85546921Y-51573387D01*
X85536956Y-51594457D01*
X85524974Y-51614448D01*
X85511090Y-51633168D01*
X85495438Y-51650438D01*
X85478168Y-51666090D01*
X85459448Y-51679974D01*
X85439457Y-51691956D01*
X85418387Y-51701921D01*
X85396443Y-51709773D01*
X85373834Y-51715437D01*
X85350779Y-51718856D01*
X85327500Y-51720000D01*
X84852500Y-51720000D01*
X84829221Y-51718856D01*
X84806166Y-51715437D01*
X84783557Y-51709773D01*
X84761613Y-51701921D01*
X84740543Y-51691956D01*
X84720552Y-51679974D01*
X84701832Y-51666090D01*
X84684562Y-51650438D01*
X84668910Y-51633168D01*
X84655026Y-51614448D01*
X84643044Y-51594457D01*
X84633079Y-51573387D01*
X84625227Y-51551443D01*
X84619563Y-51528834D01*
X84616144Y-51505779D01*
X84615000Y-51482500D01*
X84615000Y-50907500D01*
X84616144Y-50884221D01*
X84619563Y-50861166D01*
X84625227Y-50838557D01*
X84633079Y-50816613D01*
X84643044Y-50795543D01*
X84655026Y-50775552D01*
X84668910Y-50756832D01*
X84684562Y-50739562D01*
X84701832Y-50723910D01*
X84720552Y-50710026D01*
X84740543Y-50698044D01*
X84761613Y-50688079D01*
X84783557Y-50680227D01*
X84806166Y-50674563D01*
X84829221Y-50671144D01*
X84852500Y-50670000D01*
X85327500Y-50670000D01*
X85350779Y-50671144D01*
X85350779Y-50671144D01*
G37*
D13*
X85090000Y-51195000D03*
D12*
G36*
X85350779Y-52421144D02*
X85373834Y-52424563D01*
X85396443Y-52430227D01*
X85418387Y-52438079D01*
X85439457Y-52448044D01*
X85459448Y-52460026D01*
X85478168Y-52473910D01*
X85495438Y-52489562D01*
X85511090Y-52506832D01*
X85524974Y-52525552D01*
X85536956Y-52545543D01*
X85546921Y-52566613D01*
X85554773Y-52588557D01*
X85560437Y-52611166D01*
X85563856Y-52634221D01*
X85565000Y-52657500D01*
X85565000Y-53232500D01*
X85563856Y-53255779D01*
X85560437Y-53278834D01*
X85554773Y-53301443D01*
X85546921Y-53323387D01*
X85536956Y-53344457D01*
X85524974Y-53364448D01*
X85511090Y-53383168D01*
X85495438Y-53400438D01*
X85478168Y-53416090D01*
X85459448Y-53429974D01*
X85439457Y-53441956D01*
X85418387Y-53451921D01*
X85396443Y-53459773D01*
X85373834Y-53465437D01*
X85350779Y-53468856D01*
X85327500Y-53470000D01*
X84852500Y-53470000D01*
X84829221Y-53468856D01*
X84806166Y-53465437D01*
X84783557Y-53459773D01*
X84761613Y-53451921D01*
X84740543Y-53441956D01*
X84720552Y-53429974D01*
X84701832Y-53416090D01*
X84684562Y-53400438D01*
X84668910Y-53383168D01*
X84655026Y-53364448D01*
X84643044Y-53344457D01*
X84633079Y-53323387D01*
X84625227Y-53301443D01*
X84619563Y-53278834D01*
X84616144Y-53255779D01*
X84615000Y-53232500D01*
X84615000Y-52657500D01*
X84616144Y-52634221D01*
X84619563Y-52611166D01*
X84625227Y-52588557D01*
X84633079Y-52566613D01*
X84643044Y-52545543D01*
X84655026Y-52525552D01*
X84668910Y-52506832D01*
X84684562Y-52489562D01*
X84701832Y-52473910D01*
X84720552Y-52460026D01*
X84740543Y-52448044D01*
X84761613Y-52438079D01*
X84783557Y-52430227D01*
X84806166Y-52424563D01*
X84829221Y-52421144D01*
X84852500Y-52420000D01*
X85327500Y-52420000D01*
X85350779Y-52421144D01*
X85350779Y-52421144D01*
G37*
D13*
X85090000Y-52945000D03*
D14*
X78994000Y-53340000D03*
D15*
X66294000Y-53340000D03*
D14*
X66294000Y-48514000D03*
D15*
X78994000Y-48514000D03*
D16*
X71882000Y-40640000D03*
X69342000Y-40640000D03*
D17*
X66802000Y-40640000D03*
D16*
X91948000Y-40640000D03*
X89408000Y-40640000D03*
D17*
X86868000Y-40640000D03*
D16*
X48768000Y-40386000D03*
X46228000Y-40386000D03*
D17*
X43688000Y-40386000D03*
D16*
X81788000Y-40640000D03*
X79248000Y-40640000D03*
D17*
X76708000Y-40640000D03*
D12*
G36*
X87178779Y-47024144D02*
X87201834Y-47027563D01*
X87224443Y-47033227D01*
X87246387Y-47041079D01*
X87267457Y-47051044D01*
X87287448Y-47063026D01*
X87306168Y-47076910D01*
X87323438Y-47092562D01*
X87339090Y-47109832D01*
X87352974Y-47128552D01*
X87364956Y-47148543D01*
X87374921Y-47169613D01*
X87382773Y-47191557D01*
X87388437Y-47214166D01*
X87391856Y-47237221D01*
X87393000Y-47260500D01*
X87393000Y-47735500D01*
X87391856Y-47758779D01*
X87388437Y-47781834D01*
X87382773Y-47804443D01*
X87374921Y-47826387D01*
X87364956Y-47847457D01*
X87352974Y-47867448D01*
X87339090Y-47886168D01*
X87323438Y-47903438D01*
X87306168Y-47919090D01*
X87287448Y-47932974D01*
X87267457Y-47944956D01*
X87246387Y-47954921D01*
X87224443Y-47962773D01*
X87201834Y-47968437D01*
X87178779Y-47971856D01*
X87155500Y-47973000D01*
X86580500Y-47973000D01*
X86557221Y-47971856D01*
X86534166Y-47968437D01*
X86511557Y-47962773D01*
X86489613Y-47954921D01*
X86468543Y-47944956D01*
X86448552Y-47932974D01*
X86429832Y-47919090D01*
X86412562Y-47903438D01*
X86396910Y-47886168D01*
X86383026Y-47867448D01*
X86371044Y-47847457D01*
X86361079Y-47826387D01*
X86353227Y-47804443D01*
X86347563Y-47781834D01*
X86344144Y-47758779D01*
X86343000Y-47735500D01*
X86343000Y-47260500D01*
X86344144Y-47237221D01*
X86347563Y-47214166D01*
X86353227Y-47191557D01*
X86361079Y-47169613D01*
X86371044Y-47148543D01*
X86383026Y-47128552D01*
X86396910Y-47109832D01*
X86412562Y-47092562D01*
X86429832Y-47076910D01*
X86448552Y-47063026D01*
X86468543Y-47051044D01*
X86489613Y-47041079D01*
X86511557Y-47033227D01*
X86534166Y-47027563D01*
X86557221Y-47024144D01*
X86580500Y-47023000D01*
X87155500Y-47023000D01*
X87178779Y-47024144D01*
X87178779Y-47024144D01*
G37*
D13*
X86868000Y-47498000D03*
D12*
G36*
X85428779Y-47024144D02*
X85451834Y-47027563D01*
X85474443Y-47033227D01*
X85496387Y-47041079D01*
X85517457Y-47051044D01*
X85537448Y-47063026D01*
X85556168Y-47076910D01*
X85573438Y-47092562D01*
X85589090Y-47109832D01*
X85602974Y-47128552D01*
X85614956Y-47148543D01*
X85624921Y-47169613D01*
X85632773Y-47191557D01*
X85638437Y-47214166D01*
X85641856Y-47237221D01*
X85643000Y-47260500D01*
X85643000Y-47735500D01*
X85641856Y-47758779D01*
X85638437Y-47781834D01*
X85632773Y-47804443D01*
X85624921Y-47826387D01*
X85614956Y-47847457D01*
X85602974Y-47867448D01*
X85589090Y-47886168D01*
X85573438Y-47903438D01*
X85556168Y-47919090D01*
X85537448Y-47932974D01*
X85517457Y-47944956D01*
X85496387Y-47954921D01*
X85474443Y-47962773D01*
X85451834Y-47968437D01*
X85428779Y-47971856D01*
X85405500Y-47973000D01*
X84830500Y-47973000D01*
X84807221Y-47971856D01*
X84784166Y-47968437D01*
X84761557Y-47962773D01*
X84739613Y-47954921D01*
X84718543Y-47944956D01*
X84698552Y-47932974D01*
X84679832Y-47919090D01*
X84662562Y-47903438D01*
X84646910Y-47886168D01*
X84633026Y-47867448D01*
X84621044Y-47847457D01*
X84611079Y-47826387D01*
X84603227Y-47804443D01*
X84597563Y-47781834D01*
X84594144Y-47758779D01*
X84593000Y-47735500D01*
X84593000Y-47260500D01*
X84594144Y-47237221D01*
X84597563Y-47214166D01*
X84603227Y-47191557D01*
X84611079Y-47169613D01*
X84621044Y-47148543D01*
X84633026Y-47128552D01*
X84646910Y-47109832D01*
X84662562Y-47092562D01*
X84679832Y-47076910D01*
X84698552Y-47063026D01*
X84718543Y-47051044D01*
X84739613Y-47041079D01*
X84761557Y-47033227D01*
X84784166Y-47027563D01*
X84807221Y-47024144D01*
X84830500Y-47023000D01*
X85405500Y-47023000D01*
X85428779Y-47024144D01*
X85428779Y-47024144D01*
G37*
D13*
X85118000Y-47498000D03*
D12*
G36*
X46933779Y-49564144D02*
X46956834Y-49567563D01*
X46979443Y-49573227D01*
X47001387Y-49581079D01*
X47022457Y-49591044D01*
X47042448Y-49603026D01*
X47061168Y-49616910D01*
X47078438Y-49632562D01*
X47094090Y-49649832D01*
X47107974Y-49668552D01*
X47119956Y-49688543D01*
X47129921Y-49709613D01*
X47137773Y-49731557D01*
X47143437Y-49754166D01*
X47146856Y-49777221D01*
X47148000Y-49800500D01*
X47148000Y-50275500D01*
X47146856Y-50298779D01*
X47143437Y-50321834D01*
X47137773Y-50344443D01*
X47129921Y-50366387D01*
X47119956Y-50387457D01*
X47107974Y-50407448D01*
X47094090Y-50426168D01*
X47078438Y-50443438D01*
X47061168Y-50459090D01*
X47042448Y-50472974D01*
X47022457Y-50484956D01*
X47001387Y-50494921D01*
X46979443Y-50502773D01*
X46956834Y-50508437D01*
X46933779Y-50511856D01*
X46910500Y-50513000D01*
X46335500Y-50513000D01*
X46312221Y-50511856D01*
X46289166Y-50508437D01*
X46266557Y-50502773D01*
X46244613Y-50494921D01*
X46223543Y-50484956D01*
X46203552Y-50472974D01*
X46184832Y-50459090D01*
X46167562Y-50443438D01*
X46151910Y-50426168D01*
X46138026Y-50407448D01*
X46126044Y-50387457D01*
X46116079Y-50366387D01*
X46108227Y-50344443D01*
X46102563Y-50321834D01*
X46099144Y-50298779D01*
X46098000Y-50275500D01*
X46098000Y-49800500D01*
X46099144Y-49777221D01*
X46102563Y-49754166D01*
X46108227Y-49731557D01*
X46116079Y-49709613D01*
X46126044Y-49688543D01*
X46138026Y-49668552D01*
X46151910Y-49649832D01*
X46167562Y-49632562D01*
X46184832Y-49616910D01*
X46203552Y-49603026D01*
X46223543Y-49591044D01*
X46244613Y-49581079D01*
X46266557Y-49573227D01*
X46289166Y-49567563D01*
X46312221Y-49564144D01*
X46335500Y-49563000D01*
X46910500Y-49563000D01*
X46933779Y-49564144D01*
X46933779Y-49564144D01*
G37*
D13*
X46623000Y-50038000D03*
D12*
G36*
X48683779Y-49564144D02*
X48706834Y-49567563D01*
X48729443Y-49573227D01*
X48751387Y-49581079D01*
X48772457Y-49591044D01*
X48792448Y-49603026D01*
X48811168Y-49616910D01*
X48828438Y-49632562D01*
X48844090Y-49649832D01*
X48857974Y-49668552D01*
X48869956Y-49688543D01*
X48879921Y-49709613D01*
X48887773Y-49731557D01*
X48893437Y-49754166D01*
X48896856Y-49777221D01*
X48898000Y-49800500D01*
X48898000Y-50275500D01*
X48896856Y-50298779D01*
X48893437Y-50321834D01*
X48887773Y-50344443D01*
X48879921Y-50366387D01*
X48869956Y-50387457D01*
X48857974Y-50407448D01*
X48844090Y-50426168D01*
X48828438Y-50443438D01*
X48811168Y-50459090D01*
X48792448Y-50472974D01*
X48772457Y-50484956D01*
X48751387Y-50494921D01*
X48729443Y-50502773D01*
X48706834Y-50508437D01*
X48683779Y-50511856D01*
X48660500Y-50513000D01*
X48085500Y-50513000D01*
X48062221Y-50511856D01*
X48039166Y-50508437D01*
X48016557Y-50502773D01*
X47994613Y-50494921D01*
X47973543Y-50484956D01*
X47953552Y-50472974D01*
X47934832Y-50459090D01*
X47917562Y-50443438D01*
X47901910Y-50426168D01*
X47888026Y-50407448D01*
X47876044Y-50387457D01*
X47866079Y-50366387D01*
X47858227Y-50344443D01*
X47852563Y-50321834D01*
X47849144Y-50298779D01*
X47848000Y-50275500D01*
X47848000Y-49800500D01*
X47849144Y-49777221D01*
X47852563Y-49754166D01*
X47858227Y-49731557D01*
X47866079Y-49709613D01*
X47876044Y-49688543D01*
X47888026Y-49668552D01*
X47901910Y-49649832D01*
X47917562Y-49632562D01*
X47934832Y-49616910D01*
X47953552Y-49603026D01*
X47973543Y-49591044D01*
X47994613Y-49581079D01*
X48016557Y-49573227D01*
X48039166Y-49567563D01*
X48062221Y-49564144D01*
X48085500Y-49563000D01*
X48660500Y-49563000D01*
X48683779Y-49564144D01*
X48683779Y-49564144D01*
G37*
D13*
X48373000Y-50038000D03*
D12*
G36*
X57234779Y-51342144D02*
X57257834Y-51345563D01*
X57280443Y-51351227D01*
X57302387Y-51359079D01*
X57323457Y-51369044D01*
X57343448Y-51381026D01*
X57362168Y-51394910D01*
X57379438Y-51410562D01*
X57395090Y-51427832D01*
X57408974Y-51446552D01*
X57420956Y-51466543D01*
X57430921Y-51487613D01*
X57438773Y-51509557D01*
X57444437Y-51532166D01*
X57447856Y-51555221D01*
X57449000Y-51578500D01*
X57449000Y-52053500D01*
X57447856Y-52076779D01*
X57444437Y-52099834D01*
X57438773Y-52122443D01*
X57430921Y-52144387D01*
X57420956Y-52165457D01*
X57408974Y-52185448D01*
X57395090Y-52204168D01*
X57379438Y-52221438D01*
X57362168Y-52237090D01*
X57343448Y-52250974D01*
X57323457Y-52262956D01*
X57302387Y-52272921D01*
X57280443Y-52280773D01*
X57257834Y-52286437D01*
X57234779Y-52289856D01*
X57211500Y-52291000D01*
X56636500Y-52291000D01*
X56613221Y-52289856D01*
X56590166Y-52286437D01*
X56567557Y-52280773D01*
X56545613Y-52272921D01*
X56524543Y-52262956D01*
X56504552Y-52250974D01*
X56485832Y-52237090D01*
X56468562Y-52221438D01*
X56452910Y-52204168D01*
X56439026Y-52185448D01*
X56427044Y-52165457D01*
X56417079Y-52144387D01*
X56409227Y-52122443D01*
X56403563Y-52099834D01*
X56400144Y-52076779D01*
X56399000Y-52053500D01*
X56399000Y-51578500D01*
X56400144Y-51555221D01*
X56403563Y-51532166D01*
X56409227Y-51509557D01*
X56417079Y-51487613D01*
X56427044Y-51466543D01*
X56439026Y-51446552D01*
X56452910Y-51427832D01*
X56468562Y-51410562D01*
X56485832Y-51394910D01*
X56504552Y-51381026D01*
X56524543Y-51369044D01*
X56545613Y-51359079D01*
X56567557Y-51351227D01*
X56590166Y-51345563D01*
X56613221Y-51342144D01*
X56636500Y-51341000D01*
X57211500Y-51341000D01*
X57234779Y-51342144D01*
X57234779Y-51342144D01*
G37*
D13*
X56924000Y-51816000D03*
D12*
G36*
X58984779Y-51342144D02*
X59007834Y-51345563D01*
X59030443Y-51351227D01*
X59052387Y-51359079D01*
X59073457Y-51369044D01*
X59093448Y-51381026D01*
X59112168Y-51394910D01*
X59129438Y-51410562D01*
X59145090Y-51427832D01*
X59158974Y-51446552D01*
X59170956Y-51466543D01*
X59180921Y-51487613D01*
X59188773Y-51509557D01*
X59194437Y-51532166D01*
X59197856Y-51555221D01*
X59199000Y-51578500D01*
X59199000Y-52053500D01*
X59197856Y-52076779D01*
X59194437Y-52099834D01*
X59188773Y-52122443D01*
X59180921Y-52144387D01*
X59170956Y-52165457D01*
X59158974Y-52185448D01*
X59145090Y-52204168D01*
X59129438Y-52221438D01*
X59112168Y-52237090D01*
X59093448Y-52250974D01*
X59073457Y-52262956D01*
X59052387Y-52272921D01*
X59030443Y-52280773D01*
X59007834Y-52286437D01*
X58984779Y-52289856D01*
X58961500Y-52291000D01*
X58386500Y-52291000D01*
X58363221Y-52289856D01*
X58340166Y-52286437D01*
X58317557Y-52280773D01*
X58295613Y-52272921D01*
X58274543Y-52262956D01*
X58254552Y-52250974D01*
X58235832Y-52237090D01*
X58218562Y-52221438D01*
X58202910Y-52204168D01*
X58189026Y-52185448D01*
X58177044Y-52165457D01*
X58167079Y-52144387D01*
X58159227Y-52122443D01*
X58153563Y-52099834D01*
X58150144Y-52076779D01*
X58149000Y-52053500D01*
X58149000Y-51578500D01*
X58150144Y-51555221D01*
X58153563Y-51532166D01*
X58159227Y-51509557D01*
X58167079Y-51487613D01*
X58177044Y-51466543D01*
X58189026Y-51446552D01*
X58202910Y-51427832D01*
X58218562Y-51410562D01*
X58235832Y-51394910D01*
X58254552Y-51381026D01*
X58274543Y-51369044D01*
X58295613Y-51359079D01*
X58317557Y-51351227D01*
X58340166Y-51345563D01*
X58363221Y-51342144D01*
X58386500Y-51341000D01*
X58961500Y-51341000D01*
X58984779Y-51342144D01*
X58984779Y-51342144D01*
G37*
D13*
X58674000Y-51816000D03*
D18*
X61722000Y-48768000D03*
X54102000Y-56388000D03*
X61722000Y-51308000D03*
X54102000Y-53848000D03*
X61722000Y-53848000D03*
X54102000Y-51308000D03*
X61722000Y-56388000D03*
D19*
X54102000Y-48768000D03*
D20*
X54356000Y-41097200D03*
X60198000Y-41148000D03*
D21*
X48373000Y-40781000D02*
X48768000Y-40386000D01*
X48373000Y-45974000D02*
X48373000Y-40781000D01*
X48373000Y-45974000D02*
X48373000Y-48006000D01*
X46623000Y-48006000D02*
X46623000Y-50038000D01*
X85118000Y-51167000D02*
X85090000Y-51195000D01*
X85118000Y-47498000D02*
X85118000Y-51167000D01*
X56416000Y-51308000D02*
X56924000Y-51816000D01*
X54102000Y-51308000D02*
X56416000Y-51308000D01*
X60452000Y-58928000D02*
X56924000Y-55400000D01*
X56924000Y-52391000D02*
X56924000Y-51816000D01*
X56924000Y-55400000D02*
X56924000Y-52391000D01*
X85090000Y-52945000D02*
X79107000Y-58928000D01*
X79107000Y-58928000D02*
X60452000Y-58928000D01*
X59690000Y-51816000D02*
X61722000Y-53848000D01*
X58674000Y-51816000D02*
X59690000Y-51816000D01*
X69342000Y-39117000D02*
X70613000Y-37846000D01*
X69342000Y-40640000D02*
X69342000Y-39117000D01*
X75335000Y-40640000D02*
X76708000Y-40640000D01*
X72541000Y-37846000D02*
X75335000Y-40640000D01*
X70613000Y-37846000D02*
X72541000Y-37846000D01*
X86868000Y-40640000D02*
X86868000Y-47498000D01*
X53702000Y-53848000D02*
X54102000Y-53848000D01*
X49892000Y-50038000D02*
X53702000Y-53848000D01*
X48373000Y-50038000D02*
X49892000Y-50038000D01*
D22*
G36*
X94115001Y-69115000D02*
X40885000Y-69115000D01*
X40885000Y-61871129D01*
X41101000Y-61871129D01*
X41101000Y-64112871D01*
X41958878Y-66183971D01*
X43544029Y-67769122D01*
X45615129Y-68627000D01*
X47856871Y-68627000D01*
X49927971Y-67769122D01*
X51513122Y-66183971D01*
X52371000Y-64112871D01*
X52371000Y-61871129D01*
X81487000Y-61871129D01*
X81487000Y-64112871D01*
X82344878Y-66183971D01*
X83930029Y-67769122D01*
X86001129Y-68627000D01*
X88242871Y-68627000D01*
X90313971Y-67769122D01*
X91899122Y-66183971D01*
X92757000Y-64112871D01*
X92757000Y-61871129D01*
X91899122Y-59800029D01*
X90313971Y-58214878D01*
X88242871Y-57357000D01*
X86001129Y-57357000D01*
X83930029Y-58214878D01*
X82344878Y-59800029D01*
X81487000Y-61871129D01*
X52371000Y-61871129D01*
X51513122Y-59800029D01*
X49927971Y-58214878D01*
X47856871Y-57357000D01*
X45615129Y-57357000D01*
X43544029Y-58214878D01*
X41958878Y-59800029D01*
X41101000Y-61871129D01*
X40885000Y-61871129D01*
X40885000Y-56737039D01*
X52310096Y-56737039D01*
X52327633Y-56819819D01*
X52597500Y-57312896D01*
X53035517Y-57665166D01*
X53575000Y-57823000D01*
X53975000Y-57823000D01*
X53975000Y-56515000D01*
X54229000Y-56515000D01*
X54229000Y-57823000D01*
X54629000Y-57823000D01*
X55168483Y-57665166D01*
X55606500Y-57312896D01*
X55876367Y-56819819D01*
X55893904Y-56737039D01*
X55771915Y-56515000D01*
X54229000Y-56515000D01*
X53975000Y-56515000D01*
X52432085Y-56515000D01*
X52310096Y-56737039D01*
X40885000Y-56737039D01*
X40885000Y-47768500D01*
X45450560Y-47768500D01*
X45450560Y-48243500D01*
X45517922Y-48582152D01*
X45709753Y-48869247D01*
X45734000Y-48885449D01*
X45734001Y-49158551D01*
X45709753Y-49174753D01*
X45517922Y-49461848D01*
X45450560Y-49800500D01*
X45450560Y-50275500D01*
X45517922Y-50614152D01*
X45709753Y-50901247D01*
X45996848Y-51093078D01*
X46335500Y-51160440D01*
X46910500Y-51160440D01*
X47249152Y-51093078D01*
X47498000Y-50926803D01*
X47746848Y-51093078D01*
X48085500Y-51160440D01*
X48660500Y-51160440D01*
X48999152Y-51093078D01*
X49247705Y-50927000D01*
X49523765Y-50927000D01*
X52273044Y-53676280D01*
X52238887Y-53848000D01*
X52350260Y-54407909D01*
X52667423Y-54882577D01*
X53023499Y-55120499D01*
X52597500Y-55463104D01*
X52327633Y-55956181D01*
X52310096Y-56038961D01*
X52432085Y-56261000D01*
X53975000Y-56261000D01*
X53975000Y-56241000D01*
X54229000Y-56241000D01*
X54229000Y-56261000D01*
X55771915Y-56261000D01*
X55893904Y-56038961D01*
X55876367Y-55956181D01*
X55606500Y-55463104D01*
X55180501Y-55120499D01*
X55536577Y-54882577D01*
X55853740Y-54407909D01*
X55965113Y-53848000D01*
X55853740Y-53288091D01*
X55536577Y-52813423D01*
X55184242Y-52578000D01*
X55536577Y-52342577D01*
X55633848Y-52197000D01*
X55780104Y-52197000D01*
X55818922Y-52392152D01*
X56010753Y-52679247D01*
X56035001Y-52695449D01*
X56035000Y-55312445D01*
X56017584Y-55400000D01*
X56035000Y-55487555D01*
X56086581Y-55746869D01*
X56283067Y-56040933D01*
X56357296Y-56090531D01*
X59761471Y-59494707D01*
X59811067Y-59568933D01*
X60105130Y-59765419D01*
X60364444Y-59817000D01*
X60364448Y-59817000D01*
X60451999Y-59834415D01*
X60539550Y-59817000D01*
X79019445Y-59817000D01*
X79107000Y-59834416D01*
X79194555Y-59817000D01*
X79194556Y-59817000D01*
X79453870Y-59765419D01*
X79747933Y-59568933D01*
X79797531Y-59494704D01*
X85174796Y-54117440D01*
X85327500Y-54117440D01*
X85666152Y-54050078D01*
X85953247Y-53858247D01*
X86145078Y-53571152D01*
X86212440Y-53232500D01*
X86212440Y-52657500D01*
X86145078Y-52318848D01*
X85978803Y-52070000D01*
X86145078Y-51821152D01*
X86212440Y-51482500D01*
X86212440Y-50907500D01*
X86145078Y-50568848D01*
X86007000Y-50362200D01*
X86007000Y-48396157D01*
X86241848Y-48553078D01*
X86580500Y-48620440D01*
X87155500Y-48620440D01*
X87494152Y-48553078D01*
X87781247Y-48361247D01*
X87973078Y-48074152D01*
X88040440Y-47735500D01*
X88040440Y-47260500D01*
X87973078Y-46921848D01*
X87781247Y-46634753D01*
X87757000Y-46618552D01*
X87757000Y-42297666D01*
X87980765Y-42253157D01*
X88190809Y-42112809D01*
X88331157Y-41902765D01*
X88348787Y-41814130D01*
X88507143Y-41990793D01*
X89035240Y-42244131D01*
X89048754Y-42246346D01*
X89281000Y-42125224D01*
X89281000Y-40767000D01*
X89535000Y-40767000D01*
X89535000Y-42125224D01*
X89767246Y-42246346D01*
X89780760Y-42244131D01*
X90308857Y-41990793D01*
X90678000Y-41578973D01*
X91047143Y-41990793D01*
X91575240Y-42244131D01*
X91588754Y-42246346D01*
X91821000Y-42125224D01*
X91821000Y-40767000D01*
X92075000Y-40767000D01*
X92075000Y-42125224D01*
X92307246Y-42246346D01*
X92320760Y-42244131D01*
X92848857Y-41990793D01*
X93239807Y-41554645D01*
X93434091Y-41002087D01*
X93290222Y-40767000D01*
X92075000Y-40767000D01*
X91821000Y-40767000D01*
X89535000Y-40767000D01*
X89281000Y-40767000D01*
X89261000Y-40767000D01*
X89261000Y-40513000D01*
X89281000Y-40513000D01*
X89281000Y-39154776D01*
X89535000Y-39154776D01*
X89535000Y-40513000D01*
X91821000Y-40513000D01*
X91821000Y-39154776D01*
X92075000Y-39154776D01*
X92075000Y-40513000D01*
X93290222Y-40513000D01*
X93434091Y-40277913D01*
X93239807Y-39725355D01*
X92848857Y-39289207D01*
X92320760Y-39035869D01*
X92307246Y-39033654D01*
X92075000Y-39154776D01*
X91821000Y-39154776D01*
X91588754Y-39033654D01*
X91575240Y-39035869D01*
X91047143Y-39289207D01*
X90678000Y-39701027D01*
X90308857Y-39289207D01*
X89780760Y-39035869D01*
X89767246Y-39033654D01*
X89535000Y-39154776D01*
X89281000Y-39154776D01*
X89048754Y-39033654D01*
X89035240Y-39035869D01*
X88507143Y-39289207D01*
X88348787Y-39465870D01*
X88331157Y-39377235D01*
X88190809Y-39167191D01*
X87980765Y-39026843D01*
X87733000Y-38977560D01*
X86003000Y-38977560D01*
X85755235Y-39026843D01*
X85545191Y-39167191D01*
X85404843Y-39377235D01*
X85355560Y-39625000D01*
X85355560Y-41655000D01*
X85404843Y-41902765D01*
X85545191Y-42112809D01*
X85755235Y-42253157D01*
X85979000Y-42297666D01*
X85979001Y-46599843D01*
X85744152Y-46442922D01*
X85405500Y-46375560D01*
X84830500Y-46375560D01*
X84491848Y-46442922D01*
X84204753Y-46634753D01*
X84012922Y-46921848D01*
X83945560Y-47260500D01*
X83945560Y-47735500D01*
X84012922Y-48074152D01*
X84204753Y-48361247D01*
X84229000Y-48377449D01*
X84229001Y-50280251D01*
X84226753Y-50281753D01*
X84034922Y-50568848D01*
X83967560Y-50907500D01*
X83967560Y-51482500D01*
X84034922Y-51821152D01*
X84201197Y-52070000D01*
X84034922Y-52318848D01*
X83967560Y-52657500D01*
X83967560Y-52810204D01*
X78738765Y-58039000D01*
X60820236Y-58039000D01*
X57813000Y-55031765D01*
X57813000Y-52714157D01*
X58047848Y-52871078D01*
X58386500Y-52938440D01*
X58961500Y-52938440D01*
X59300152Y-52871078D01*
X59412664Y-52795900D01*
X59959409Y-53342644D01*
X59858887Y-53848000D01*
X59970260Y-54407909D01*
X60287423Y-54882577D01*
X60639758Y-55118000D01*
X60287423Y-55353423D01*
X59970260Y-55828091D01*
X59858887Y-56388000D01*
X59970260Y-56947909D01*
X60287423Y-57422577D01*
X60762091Y-57739740D01*
X61180667Y-57823000D01*
X62263333Y-57823000D01*
X62681909Y-57739740D01*
X63156577Y-57422577D01*
X63473740Y-56947909D01*
X63585113Y-56388000D01*
X63473740Y-55828091D01*
X63156577Y-55353423D01*
X62804242Y-55118000D01*
X63156577Y-54882577D01*
X63473740Y-54407909D01*
X63585113Y-53848000D01*
X63473740Y-53288091D01*
X63156577Y-52813423D01*
X62804242Y-52578000D01*
X63010773Y-52440000D01*
X64746560Y-52440000D01*
X64746560Y-54240000D01*
X64795843Y-54487765D01*
X64936191Y-54697809D01*
X65146235Y-54838157D01*
X65394000Y-54887440D01*
X67194000Y-54887440D01*
X67441765Y-54838157D01*
X67651809Y-54697809D01*
X67792157Y-54487765D01*
X67841440Y-54240000D01*
X67841440Y-53704740D01*
X77502964Y-53704740D01*
X77681760Y-54136417D01*
X78086424Y-54577966D01*
X78629258Y-54831046D01*
X78867000Y-54710997D01*
X78867000Y-53467000D01*
X79121000Y-53467000D01*
X79121000Y-54710997D01*
X79358742Y-54831046D01*
X79901576Y-54577966D01*
X80306240Y-54136417D01*
X80485036Y-53704740D01*
X80364378Y-53467000D01*
X79121000Y-53467000D01*
X78867000Y-53467000D01*
X77623622Y-53467000D01*
X77502964Y-53704740D01*
X67841440Y-53704740D01*
X67841440Y-52975260D01*
X77502964Y-52975260D01*
X77623622Y-53213000D01*
X78867000Y-53213000D01*
X78867000Y-51969003D01*
X79121000Y-51969003D01*
X79121000Y-53213000D01*
X80364378Y-53213000D01*
X80485036Y-52975260D01*
X80306240Y-52543583D01*
X79901576Y-52102034D01*
X79358742Y-51848954D01*
X79121000Y-51969003D01*
X78867000Y-51969003D01*
X78629258Y-51848954D01*
X78086424Y-52102034D01*
X77681760Y-52543583D01*
X77502964Y-52975260D01*
X67841440Y-52975260D01*
X67841440Y-52440000D01*
X67792157Y-52192235D01*
X67651809Y-51982191D01*
X67441765Y-51841843D01*
X67194000Y-51792560D01*
X65394000Y-51792560D01*
X65146235Y-51841843D01*
X64936191Y-51982191D01*
X64795843Y-52192235D01*
X64746560Y-52440000D01*
X63010773Y-52440000D01*
X63156577Y-52342577D01*
X63473740Y-51867909D01*
X63585113Y-51308000D01*
X63473740Y-50748091D01*
X63156577Y-50273423D01*
X62804242Y-50038000D01*
X63156577Y-49802577D01*
X63473740Y-49327909D01*
X63585113Y-48768000D01*
X63534590Y-48514000D01*
X64728928Y-48514000D01*
X64848062Y-49112927D01*
X65187327Y-49620673D01*
X65695073Y-49959938D01*
X66142818Y-50049000D01*
X66445182Y-50049000D01*
X66892927Y-49959938D01*
X67400673Y-49620673D01*
X67739938Y-49112927D01*
X67802232Y-48799750D01*
X77459000Y-48799750D01*
X77459000Y-49540310D01*
X77555673Y-49773699D01*
X77734302Y-49952327D01*
X77967691Y-50049000D01*
X78708250Y-50049000D01*
X78867000Y-49890250D01*
X78867000Y-48641000D01*
X79121000Y-48641000D01*
X79121000Y-49890250D01*
X79279750Y-50049000D01*
X80020309Y-50049000D01*
X80253698Y-49952327D01*
X80432327Y-49773699D01*
X80529000Y-49540310D01*
X80529000Y-48799750D01*
X80370250Y-48641000D01*
X79121000Y-48641000D01*
X78867000Y-48641000D01*
X77617750Y-48641000D01*
X77459000Y-48799750D01*
X67802232Y-48799750D01*
X67859072Y-48514000D01*
X67739938Y-47915073D01*
X67454370Y-47487690D01*
X77459000Y-47487690D01*
X77459000Y-48228250D01*
X77617750Y-48387000D01*
X78867000Y-48387000D01*
X78867000Y-47137750D01*
X79121000Y-47137750D01*
X79121000Y-48387000D01*
X80370250Y-48387000D01*
X80529000Y-48228250D01*
X80529000Y-47487690D01*
X80432327Y-47254301D01*
X80253698Y-47075673D01*
X80020309Y-46979000D01*
X79279750Y-46979000D01*
X79121000Y-47137750D01*
X78867000Y-47137750D01*
X78708250Y-46979000D01*
X77967691Y-46979000D01*
X77734302Y-47075673D01*
X77555673Y-47254301D01*
X77459000Y-47487690D01*
X67454370Y-47487690D01*
X67400673Y-47407327D01*
X66892927Y-47068062D01*
X66445182Y-46979000D01*
X66142818Y-46979000D01*
X65695073Y-47068062D01*
X65187327Y-47407327D01*
X64848062Y-47915073D01*
X64728928Y-48514000D01*
X63534590Y-48514000D01*
X63473740Y-48208091D01*
X63156577Y-47733423D01*
X62681909Y-47416260D01*
X62263333Y-47333000D01*
X61180667Y-47333000D01*
X60762091Y-47416260D01*
X60287423Y-47733423D01*
X59970260Y-48208091D01*
X59858887Y-48768000D01*
X59970260Y-49327909D01*
X60287423Y-49802577D01*
X60639758Y-50038000D01*
X60287423Y-50273423D01*
X59970260Y-50748091D01*
X59928693Y-50957063D01*
X59777556Y-50927000D01*
X59777555Y-50927000D01*
X59690000Y-50909584D01*
X59602445Y-50927000D01*
X59548705Y-50927000D01*
X59300152Y-50760922D01*
X58961500Y-50693560D01*
X58386500Y-50693560D01*
X58047848Y-50760922D01*
X57799000Y-50927197D01*
X57550152Y-50760922D01*
X57211500Y-50693560D01*
X57074635Y-50693560D01*
X57056933Y-50667067D01*
X56762870Y-50470581D01*
X56503556Y-50419000D01*
X56503555Y-50419000D01*
X56416000Y-50401584D01*
X56328445Y-50419000D01*
X55633848Y-50419000D01*
X55536577Y-50273423D01*
X55415894Y-50192785D01*
X55549765Y-50166157D01*
X55759809Y-50025809D01*
X55900157Y-49815765D01*
X55949440Y-49568000D01*
X55949440Y-47968000D01*
X55900157Y-47720235D01*
X55759809Y-47510191D01*
X55549765Y-47369843D01*
X55302000Y-47320560D01*
X52902000Y-47320560D01*
X52654235Y-47369843D01*
X52444191Y-47510191D01*
X52303843Y-47720235D01*
X52254560Y-47968000D01*
X52254560Y-49568000D01*
X52303843Y-49815765D01*
X52444191Y-50025809D01*
X52654235Y-50166157D01*
X52788106Y-50192785D01*
X52667423Y-50273423D01*
X52350260Y-50748091D01*
X52268809Y-51157573D01*
X50582531Y-49471296D01*
X50532933Y-49397067D01*
X50238870Y-49200581D01*
X49979556Y-49149000D01*
X49979555Y-49149000D01*
X49892000Y-49131584D01*
X49804445Y-49149000D01*
X49247705Y-49149000D01*
X49057636Y-49022000D01*
X49286247Y-48869247D01*
X49478078Y-48582152D01*
X49545440Y-48243500D01*
X49545440Y-47768500D01*
X49478078Y-47429848D01*
X49286247Y-47142753D01*
X49262000Y-47126552D01*
X49262000Y-46853448D01*
X49286247Y-46837247D01*
X49478078Y-46550152D01*
X49545440Y-46211500D01*
X49545440Y-45736500D01*
X49478078Y-45397848D01*
X49286247Y-45110753D01*
X49262000Y-45094552D01*
X49262000Y-41967123D01*
X49353271Y-41948968D01*
X49849439Y-41617439D01*
X50180968Y-41121270D01*
X50268000Y-40683732D01*
X50268000Y-40591962D01*
X51816000Y-40591962D01*
X51816000Y-41602438D01*
X52202692Y-42535995D01*
X52917205Y-43250508D01*
X53850762Y-43637200D01*
X54861238Y-43637200D01*
X55794795Y-43250508D01*
X56090863Y-42954440D01*
X58571165Y-42954440D01*
X58780353Y-43315289D01*
X59717650Y-43692824D01*
X60728077Y-43682933D01*
X61615647Y-43315289D01*
X61824835Y-42954440D01*
X60198000Y-41327605D01*
X58571165Y-42954440D01*
X56090863Y-42954440D01*
X56509308Y-42535995D01*
X56896000Y-41602438D01*
X56896000Y-40667650D01*
X57653176Y-40667650D01*
X57663067Y-41678077D01*
X58030711Y-42565647D01*
X58391560Y-42774835D01*
X60018395Y-41148000D01*
X60377605Y-41148000D01*
X62004440Y-42774835D01*
X62365289Y-42565647D01*
X62742824Y-41628350D01*
X62732933Y-40617923D01*
X62365289Y-39730353D01*
X62183556Y-39625000D01*
X65289560Y-39625000D01*
X65289560Y-41655000D01*
X65338843Y-41902765D01*
X65479191Y-42112809D01*
X65689235Y-42253157D01*
X65937000Y-42302440D01*
X67667000Y-42302440D01*
X67914765Y-42253157D01*
X68124809Y-42112809D01*
X68265157Y-41902765D01*
X68270118Y-41877825D01*
X68756730Y-42202968D01*
X69342000Y-42319386D01*
X69927271Y-42202968D01*
X70423439Y-41871439D01*
X70615929Y-41583357D01*
X70981143Y-41990793D01*
X71509240Y-42244131D01*
X71522754Y-42246346D01*
X71755000Y-42125224D01*
X71755000Y-40767000D01*
X72009000Y-40767000D01*
X72009000Y-42125224D01*
X72241246Y-42246346D01*
X72254760Y-42244131D01*
X72782857Y-41990793D01*
X73173807Y-41554645D01*
X73368091Y-41002087D01*
X73224222Y-40767000D01*
X72009000Y-40767000D01*
X71755000Y-40767000D01*
X71735000Y-40767000D01*
X71735000Y-40513000D01*
X71755000Y-40513000D01*
X71755000Y-39154776D01*
X71522754Y-39033654D01*
X71509240Y-39035869D01*
X70981143Y-39289207D01*
X70615929Y-39696643D01*
X70423439Y-39408561D01*
X70354043Y-39362192D01*
X70981236Y-38735000D01*
X72172765Y-38735000D01*
X72675443Y-39237679D01*
X72254760Y-39035869D01*
X72241246Y-39033654D01*
X72009000Y-39154776D01*
X72009000Y-40513000D01*
X73224222Y-40513000D01*
X73368091Y-40277913D01*
X73179603Y-39741838D01*
X74644471Y-41206707D01*
X74694067Y-41280933D01*
X74988130Y-41477419D01*
X75195560Y-41518680D01*
X75195560Y-41655000D01*
X75244843Y-41902765D01*
X75385191Y-42112809D01*
X75595235Y-42253157D01*
X75843000Y-42302440D01*
X77573000Y-42302440D01*
X77820765Y-42253157D01*
X78030809Y-42112809D01*
X78171157Y-41902765D01*
X78188787Y-41814130D01*
X78347143Y-41990793D01*
X78875240Y-42244131D01*
X78888754Y-42246346D01*
X79121000Y-42125224D01*
X79121000Y-40767000D01*
X79375000Y-40767000D01*
X79375000Y-42125224D01*
X79607246Y-42246346D01*
X79620760Y-42244131D01*
X80148857Y-41990793D01*
X80518000Y-41578973D01*
X80887143Y-41990793D01*
X81415240Y-42244131D01*
X81428754Y-42246346D01*
X81661000Y-42125224D01*
X81661000Y-40767000D01*
X81915000Y-40767000D01*
X81915000Y-42125224D01*
X82147246Y-42246346D01*
X82160760Y-42244131D01*
X82688857Y-41990793D01*
X83079807Y-41554645D01*
X83274091Y-41002087D01*
X83130222Y-40767000D01*
X81915000Y-40767000D01*
X81661000Y-40767000D01*
X79375000Y-40767000D01*
X79121000Y-40767000D01*
X79101000Y-40767000D01*
X79101000Y-40513000D01*
X79121000Y-40513000D01*
X79121000Y-39154776D01*
X79375000Y-39154776D01*
X79375000Y-40513000D01*
X81661000Y-40513000D01*
X81661000Y-39154776D01*
X81915000Y-39154776D01*
X81915000Y-40513000D01*
X83130222Y-40513000D01*
X83274091Y-40277913D01*
X83079807Y-39725355D01*
X82688857Y-39289207D01*
X82160760Y-39035869D01*
X82147246Y-39033654D01*
X81915000Y-39154776D01*
X81661000Y-39154776D01*
X81428754Y-39033654D01*
X81415240Y-39035869D01*
X80887143Y-39289207D01*
X80518000Y-39701027D01*
X80148857Y-39289207D01*
X79620760Y-39035869D01*
X79607246Y-39033654D01*
X79375000Y-39154776D01*
X79121000Y-39154776D01*
X78888754Y-39033654D01*
X78875240Y-39035869D01*
X78347143Y-39289207D01*
X78188787Y-39465870D01*
X78171157Y-39377235D01*
X78030809Y-39167191D01*
X77820765Y-39026843D01*
X77573000Y-38977560D01*
X75843000Y-38977560D01*
X75595235Y-39026843D01*
X75385191Y-39167191D01*
X75278740Y-39326505D01*
X73231531Y-37279296D01*
X73181933Y-37205067D01*
X72887870Y-37008581D01*
X72628556Y-36957000D01*
X72628555Y-36957000D01*
X72541000Y-36939584D01*
X72453445Y-36957000D01*
X70700550Y-36957000D01*
X70612999Y-36939585D01*
X70525448Y-36957000D01*
X70525444Y-36957000D01*
X70266130Y-37008581D01*
X69972067Y-37205067D01*
X69922471Y-37279293D01*
X68775294Y-38426471D01*
X68701068Y-38476067D01*
X68651472Y-38550293D01*
X68651471Y-38550294D01*
X68504582Y-38770130D01*
X68435584Y-39117000D01*
X68453001Y-39204559D01*
X68453001Y-39279977D01*
X68270118Y-39402175D01*
X68265157Y-39377235D01*
X68124809Y-39167191D01*
X67914765Y-39026843D01*
X67667000Y-38977560D01*
X65937000Y-38977560D01*
X65689235Y-39026843D01*
X65479191Y-39167191D01*
X65338843Y-39377235D01*
X65289560Y-39625000D01*
X62183556Y-39625000D01*
X62004440Y-39521165D01*
X60377605Y-41148000D01*
X60018395Y-41148000D01*
X58391560Y-39521165D01*
X58030711Y-39730353D01*
X57653176Y-40667650D01*
X56896000Y-40667650D01*
X56896000Y-40591962D01*
X56509308Y-39658405D01*
X56192463Y-39341560D01*
X58571165Y-39341560D01*
X60198000Y-40968395D01*
X61824835Y-39341560D01*
X61615647Y-38980711D01*
X60678350Y-38603176D01*
X59667923Y-38613067D01*
X58780353Y-38980711D01*
X58571165Y-39341560D01*
X56192463Y-39341560D01*
X55794795Y-38943892D01*
X54861238Y-38557200D01*
X53850762Y-38557200D01*
X52917205Y-38943892D01*
X52202692Y-39658405D01*
X51816000Y-40591962D01*
X50268000Y-40591962D01*
X50268000Y-40088267D01*
X50180968Y-39650729D01*
X49849439Y-39154561D01*
X49353270Y-38823032D01*
X48768000Y-38706614D01*
X48182729Y-38823032D01*
X47686561Y-39154561D01*
X47494071Y-39442643D01*
X47128857Y-39035207D01*
X46600760Y-38781869D01*
X46587246Y-38779654D01*
X46355000Y-38900776D01*
X46355000Y-40259000D01*
X46375000Y-40259000D01*
X46375000Y-40513000D01*
X46355000Y-40513000D01*
X46355000Y-41871224D01*
X46587246Y-41992346D01*
X46600760Y-41990131D01*
X47128857Y-41736793D01*
X47484001Y-41340591D01*
X47484000Y-44950857D01*
X47274309Y-44864000D01*
X46908750Y-44864000D01*
X46750000Y-45022750D01*
X46750000Y-45847000D01*
X46770000Y-45847000D01*
X46770000Y-46101000D01*
X46750000Y-46101000D01*
X46750000Y-46121000D01*
X46496000Y-46121000D01*
X46496000Y-46101000D01*
X45621750Y-46101000D01*
X45463000Y-46259750D01*
X45463000Y-46575310D01*
X45559673Y-46808699D01*
X45738302Y-46987327D01*
X45864273Y-47039506D01*
X45709753Y-47142753D01*
X45517922Y-47429848D01*
X45450560Y-47768500D01*
X40885000Y-47768500D01*
X40885000Y-45372690D01*
X45463000Y-45372690D01*
X45463000Y-45688250D01*
X45621750Y-45847000D01*
X46496000Y-45847000D01*
X46496000Y-45022750D01*
X46337250Y-44864000D01*
X45971691Y-44864000D01*
X45738302Y-44960673D01*
X45559673Y-45139301D01*
X45463000Y-45372690D01*
X40885000Y-45372690D01*
X40885000Y-40671750D01*
X42188000Y-40671750D01*
X42188000Y-41527309D01*
X42284673Y-41760698D01*
X42463301Y-41939327D01*
X42696690Y-42036000D01*
X43402250Y-42036000D01*
X43561000Y-41877250D01*
X43561000Y-40513000D01*
X43815000Y-40513000D01*
X43815000Y-41877250D01*
X43973750Y-42036000D01*
X44679310Y-42036000D01*
X44912699Y-41939327D01*
X45091327Y-41760698D01*
X45172630Y-41564416D01*
X45327143Y-41736793D01*
X45855240Y-41990131D01*
X45868754Y-41992346D01*
X46101000Y-41871224D01*
X46101000Y-40513000D01*
X43815000Y-40513000D01*
X43561000Y-40513000D01*
X42346750Y-40513000D01*
X42188000Y-40671750D01*
X40885000Y-40671750D01*
X40885000Y-39244691D01*
X42188000Y-39244691D01*
X42188000Y-40100250D01*
X42346750Y-40259000D01*
X43561000Y-40259000D01*
X43561000Y-38894750D01*
X43815000Y-38894750D01*
X43815000Y-40259000D01*
X46101000Y-40259000D01*
X46101000Y-38900776D01*
X45868754Y-38779654D01*
X45855240Y-38781869D01*
X45327143Y-39035207D01*
X45172630Y-39207584D01*
X45091327Y-39011302D01*
X44912699Y-38832673D01*
X44679310Y-38736000D01*
X43973750Y-38736000D01*
X43815000Y-38894750D01*
X43561000Y-38894750D01*
X43402250Y-38736000D01*
X42696690Y-38736000D01*
X42463301Y-38832673D01*
X42284673Y-39011302D01*
X42188000Y-39244691D01*
X40885000Y-39244691D01*
X40885000Y-36885000D01*
X94115000Y-36885000D01*
X94115001Y-69115000D01*
X94115001Y-69115000D01*
G37*
X94115001Y-69115000D02*
X40885000Y-69115000D01*
X40885000Y-61871129D01*
X41101000Y-61871129D01*
X41101000Y-64112871D01*
X41958878Y-66183971D01*
X43544029Y-67769122D01*
X45615129Y-68627000D01*
X47856871Y-68627000D01*
X49927971Y-67769122D01*
X51513122Y-66183971D01*
X52371000Y-64112871D01*
X52371000Y-61871129D01*
X81487000Y-61871129D01*
X81487000Y-64112871D01*
X82344878Y-66183971D01*
X83930029Y-67769122D01*
X86001129Y-68627000D01*
X88242871Y-68627000D01*
X90313971Y-67769122D01*
X91899122Y-66183971D01*
X92757000Y-64112871D01*
X92757000Y-61871129D01*
X91899122Y-59800029D01*
X90313971Y-58214878D01*
X88242871Y-57357000D01*
X86001129Y-57357000D01*
X83930029Y-58214878D01*
X82344878Y-59800029D01*
X81487000Y-61871129D01*
X52371000Y-61871129D01*
X51513122Y-59800029D01*
X49927971Y-58214878D01*
X47856871Y-57357000D01*
X45615129Y-57357000D01*
X43544029Y-58214878D01*
X41958878Y-59800029D01*
X41101000Y-61871129D01*
X40885000Y-61871129D01*
X40885000Y-56737039D01*
X52310096Y-56737039D01*
X52327633Y-56819819D01*
X52597500Y-57312896D01*
X53035517Y-57665166D01*
X53575000Y-57823000D01*
X53975000Y-57823000D01*
X53975000Y-56515000D01*
X54229000Y-56515000D01*
X54229000Y-57823000D01*
X54629000Y-57823000D01*
X55168483Y-57665166D01*
X55606500Y-57312896D01*
X55876367Y-56819819D01*
X55893904Y-56737039D01*
X55771915Y-56515000D01*
X54229000Y-56515000D01*
X53975000Y-56515000D01*
X52432085Y-56515000D01*
X52310096Y-56737039D01*
X40885000Y-56737039D01*
X40885000Y-47768500D01*
X45450560Y-47768500D01*
X45450560Y-48243500D01*
X45517922Y-48582152D01*
X45709753Y-48869247D01*
X45734000Y-48885449D01*
X45734001Y-49158551D01*
X45709753Y-49174753D01*
X45517922Y-49461848D01*
X45450560Y-49800500D01*
X45450560Y-50275500D01*
X45517922Y-50614152D01*
X45709753Y-50901247D01*
X45996848Y-51093078D01*
X46335500Y-51160440D01*
X46910500Y-51160440D01*
X47249152Y-51093078D01*
X47498000Y-50926803D01*
X47746848Y-51093078D01*
X48085500Y-51160440D01*
X48660500Y-51160440D01*
X48999152Y-51093078D01*
X49247705Y-50927000D01*
X49523765Y-50927000D01*
X52273044Y-53676280D01*
X52238887Y-53848000D01*
X52350260Y-54407909D01*
X52667423Y-54882577D01*
X53023499Y-55120499D01*
X52597500Y-55463104D01*
X52327633Y-55956181D01*
X52310096Y-56038961D01*
X52432085Y-56261000D01*
X53975000Y-56261000D01*
X53975000Y-56241000D01*
X54229000Y-56241000D01*
X54229000Y-56261000D01*
X55771915Y-56261000D01*
X55893904Y-56038961D01*
X55876367Y-55956181D01*
X55606500Y-55463104D01*
X55180501Y-55120499D01*
X55536577Y-54882577D01*
X55853740Y-54407909D01*
X55965113Y-53848000D01*
X55853740Y-53288091D01*
X55536577Y-52813423D01*
X55184242Y-52578000D01*
X55536577Y-52342577D01*
X55633848Y-52197000D01*
X55780104Y-52197000D01*
X55818922Y-52392152D01*
X56010753Y-52679247D01*
X56035001Y-52695449D01*
X56035000Y-55312445D01*
X56017584Y-55400000D01*
X56035000Y-55487555D01*
X56086581Y-55746869D01*
X56283067Y-56040933D01*
X56357296Y-56090531D01*
X59761471Y-59494707D01*
X59811067Y-59568933D01*
X60105130Y-59765419D01*
X60364444Y-59817000D01*
X60364448Y-59817000D01*
X60451999Y-59834415D01*
X60539550Y-59817000D01*
X79019445Y-59817000D01*
X79107000Y-59834416D01*
X79194555Y-59817000D01*
X79194556Y-59817000D01*
X79453870Y-59765419D01*
X79747933Y-59568933D01*
X79797531Y-59494704D01*
X85174796Y-54117440D01*
X85327500Y-54117440D01*
X85666152Y-54050078D01*
X85953247Y-53858247D01*
X86145078Y-53571152D01*
X86212440Y-53232500D01*
X86212440Y-52657500D01*
X86145078Y-52318848D01*
X85978803Y-52070000D01*
X86145078Y-51821152D01*
X86212440Y-51482500D01*
X86212440Y-50907500D01*
X86145078Y-50568848D01*
X86007000Y-50362200D01*
X86007000Y-48396157D01*
X86241848Y-48553078D01*
X86580500Y-48620440D01*
X87155500Y-48620440D01*
X87494152Y-48553078D01*
X87781247Y-48361247D01*
X87973078Y-48074152D01*
X88040440Y-47735500D01*
X88040440Y-47260500D01*
X87973078Y-46921848D01*
X87781247Y-46634753D01*
X87757000Y-46618552D01*
X87757000Y-42297666D01*
X87980765Y-42253157D01*
X88190809Y-42112809D01*
X88331157Y-41902765D01*
X88348787Y-41814130D01*
X88507143Y-41990793D01*
X89035240Y-42244131D01*
X89048754Y-42246346D01*
X89281000Y-42125224D01*
X89281000Y-40767000D01*
X89535000Y-40767000D01*
X89535000Y-42125224D01*
X89767246Y-42246346D01*
X89780760Y-42244131D01*
X90308857Y-41990793D01*
X90678000Y-41578973D01*
X91047143Y-41990793D01*
X91575240Y-42244131D01*
X91588754Y-42246346D01*
X91821000Y-42125224D01*
X91821000Y-40767000D01*
X92075000Y-40767000D01*
X92075000Y-42125224D01*
X92307246Y-42246346D01*
X92320760Y-42244131D01*
X92848857Y-41990793D01*
X93239807Y-41554645D01*
X93434091Y-41002087D01*
X93290222Y-40767000D01*
X92075000Y-40767000D01*
X91821000Y-40767000D01*
X89535000Y-40767000D01*
X89281000Y-40767000D01*
X89261000Y-40767000D01*
X89261000Y-40513000D01*
X89281000Y-40513000D01*
X89281000Y-39154776D01*
X89535000Y-39154776D01*
X89535000Y-40513000D01*
X91821000Y-40513000D01*
X91821000Y-39154776D01*
X92075000Y-39154776D01*
X92075000Y-40513000D01*
X93290222Y-40513000D01*
X93434091Y-40277913D01*
X93239807Y-39725355D01*
X92848857Y-39289207D01*
X92320760Y-39035869D01*
X92307246Y-39033654D01*
X92075000Y-39154776D01*
X91821000Y-39154776D01*
X91588754Y-39033654D01*
X91575240Y-39035869D01*
X91047143Y-39289207D01*
X90678000Y-39701027D01*
X90308857Y-39289207D01*
X89780760Y-39035869D01*
X89767246Y-39033654D01*
X89535000Y-39154776D01*
X89281000Y-39154776D01*
X89048754Y-39033654D01*
X89035240Y-39035869D01*
X88507143Y-39289207D01*
X88348787Y-39465870D01*
X88331157Y-39377235D01*
X88190809Y-39167191D01*
X87980765Y-39026843D01*
X87733000Y-38977560D01*
X86003000Y-38977560D01*
X85755235Y-39026843D01*
X85545191Y-39167191D01*
X85404843Y-39377235D01*
X85355560Y-39625000D01*
X85355560Y-41655000D01*
X85404843Y-41902765D01*
X85545191Y-42112809D01*
X85755235Y-42253157D01*
X85979000Y-42297666D01*
X85979001Y-46599843D01*
X85744152Y-46442922D01*
X85405500Y-46375560D01*
X84830500Y-46375560D01*
X84491848Y-46442922D01*
X84204753Y-46634753D01*
X84012922Y-46921848D01*
X83945560Y-47260500D01*
X83945560Y-47735500D01*
X84012922Y-48074152D01*
X84204753Y-48361247D01*
X84229000Y-48377449D01*
X84229001Y-50280251D01*
X84226753Y-50281753D01*
X84034922Y-50568848D01*
X83967560Y-50907500D01*
X83967560Y-51482500D01*
X84034922Y-51821152D01*
X84201197Y-52070000D01*
X84034922Y-52318848D01*
X83967560Y-52657500D01*
X83967560Y-52810204D01*
X78738765Y-58039000D01*
X60820236Y-58039000D01*
X57813000Y-55031765D01*
X57813000Y-52714157D01*
X58047848Y-52871078D01*
X58386500Y-52938440D01*
X58961500Y-52938440D01*
X59300152Y-52871078D01*
X59412664Y-52795900D01*
X59959409Y-53342644D01*
X59858887Y-53848000D01*
X59970260Y-54407909D01*
X60287423Y-54882577D01*
X60639758Y-55118000D01*
X60287423Y-55353423D01*
X59970260Y-55828091D01*
X59858887Y-56388000D01*
X59970260Y-56947909D01*
X60287423Y-57422577D01*
X60762091Y-57739740D01*
X61180667Y-57823000D01*
X62263333Y-57823000D01*
X62681909Y-57739740D01*
X63156577Y-57422577D01*
X63473740Y-56947909D01*
X63585113Y-56388000D01*
X63473740Y-55828091D01*
X63156577Y-55353423D01*
X62804242Y-55118000D01*
X63156577Y-54882577D01*
X63473740Y-54407909D01*
X63585113Y-53848000D01*
X63473740Y-53288091D01*
X63156577Y-52813423D01*
X62804242Y-52578000D01*
X63010773Y-52440000D01*
X64746560Y-52440000D01*
X64746560Y-54240000D01*
X64795843Y-54487765D01*
X64936191Y-54697809D01*
X65146235Y-54838157D01*
X65394000Y-54887440D01*
X67194000Y-54887440D01*
X67441765Y-54838157D01*
X67651809Y-54697809D01*
X67792157Y-54487765D01*
X67841440Y-54240000D01*
X67841440Y-53704740D01*
X77502964Y-53704740D01*
X77681760Y-54136417D01*
X78086424Y-54577966D01*
X78629258Y-54831046D01*
X78867000Y-54710997D01*
X78867000Y-53467000D01*
X79121000Y-53467000D01*
X79121000Y-54710997D01*
X79358742Y-54831046D01*
X79901576Y-54577966D01*
X80306240Y-54136417D01*
X80485036Y-53704740D01*
X80364378Y-53467000D01*
X79121000Y-53467000D01*
X78867000Y-53467000D01*
X77623622Y-53467000D01*
X77502964Y-53704740D01*
X67841440Y-53704740D01*
X67841440Y-52975260D01*
X77502964Y-52975260D01*
X77623622Y-53213000D01*
X78867000Y-53213000D01*
X78867000Y-51969003D01*
X79121000Y-51969003D01*
X79121000Y-53213000D01*
X80364378Y-53213000D01*
X80485036Y-52975260D01*
X80306240Y-52543583D01*
X79901576Y-52102034D01*
X79358742Y-51848954D01*
X79121000Y-51969003D01*
X78867000Y-51969003D01*
X78629258Y-51848954D01*
X78086424Y-52102034D01*
X77681760Y-52543583D01*
X77502964Y-52975260D01*
X67841440Y-52975260D01*
X67841440Y-52440000D01*
X67792157Y-52192235D01*
X67651809Y-51982191D01*
X67441765Y-51841843D01*
X67194000Y-51792560D01*
X65394000Y-51792560D01*
X65146235Y-51841843D01*
X64936191Y-51982191D01*
X64795843Y-52192235D01*
X64746560Y-52440000D01*
X63010773Y-52440000D01*
X63156577Y-52342577D01*
X63473740Y-51867909D01*
X63585113Y-51308000D01*
X63473740Y-50748091D01*
X63156577Y-50273423D01*
X62804242Y-50038000D01*
X63156577Y-49802577D01*
X63473740Y-49327909D01*
X63585113Y-48768000D01*
X63534590Y-48514000D01*
X64728928Y-48514000D01*
X64848062Y-49112927D01*
X65187327Y-49620673D01*
X65695073Y-49959938D01*
X66142818Y-50049000D01*
X66445182Y-50049000D01*
X66892927Y-49959938D01*
X67400673Y-49620673D01*
X67739938Y-49112927D01*
X67802232Y-48799750D01*
X77459000Y-48799750D01*
X77459000Y-49540310D01*
X77555673Y-49773699D01*
X77734302Y-49952327D01*
X77967691Y-50049000D01*
X78708250Y-50049000D01*
X78867000Y-49890250D01*
X78867000Y-48641000D01*
X79121000Y-48641000D01*
X79121000Y-49890250D01*
X79279750Y-50049000D01*
X80020309Y-50049000D01*
X80253698Y-49952327D01*
X80432327Y-49773699D01*
X80529000Y-49540310D01*
X80529000Y-48799750D01*
X80370250Y-48641000D01*
X79121000Y-48641000D01*
X78867000Y-48641000D01*
X77617750Y-48641000D01*
X77459000Y-48799750D01*
X67802232Y-48799750D01*
X67859072Y-48514000D01*
X67739938Y-47915073D01*
X67454370Y-47487690D01*
X77459000Y-47487690D01*
X77459000Y-48228250D01*
X77617750Y-48387000D01*
X78867000Y-48387000D01*
X78867000Y-47137750D01*
X79121000Y-47137750D01*
X79121000Y-48387000D01*
X80370250Y-48387000D01*
X80529000Y-48228250D01*
X80529000Y-47487690D01*
X80432327Y-47254301D01*
X80253698Y-47075673D01*
X80020309Y-46979000D01*
X79279750Y-46979000D01*
X79121000Y-47137750D01*
X78867000Y-47137750D01*
X78708250Y-46979000D01*
X77967691Y-46979000D01*
X77734302Y-47075673D01*
X77555673Y-47254301D01*
X77459000Y-47487690D01*
X67454370Y-47487690D01*
X67400673Y-47407327D01*
X66892927Y-47068062D01*
X66445182Y-46979000D01*
X66142818Y-46979000D01*
X65695073Y-47068062D01*
X65187327Y-47407327D01*
X64848062Y-47915073D01*
X64728928Y-48514000D01*
X63534590Y-48514000D01*
X63473740Y-48208091D01*
X63156577Y-47733423D01*
X62681909Y-47416260D01*
X62263333Y-47333000D01*
X61180667Y-47333000D01*
X60762091Y-47416260D01*
X60287423Y-47733423D01*
X59970260Y-48208091D01*
X59858887Y-48768000D01*
X59970260Y-49327909D01*
X60287423Y-49802577D01*
X60639758Y-50038000D01*
X60287423Y-50273423D01*
X59970260Y-50748091D01*
X59928693Y-50957063D01*
X59777556Y-50927000D01*
X59777555Y-50927000D01*
X59690000Y-50909584D01*
X59602445Y-50927000D01*
X59548705Y-50927000D01*
X59300152Y-50760922D01*
X58961500Y-50693560D01*
X58386500Y-50693560D01*
X58047848Y-50760922D01*
X57799000Y-50927197D01*
X57550152Y-50760922D01*
X57211500Y-50693560D01*
X57074635Y-50693560D01*
X57056933Y-50667067D01*
X56762870Y-50470581D01*
X56503556Y-50419000D01*
X56503555Y-50419000D01*
X56416000Y-50401584D01*
X56328445Y-50419000D01*
X55633848Y-50419000D01*
X55536577Y-50273423D01*
X55415894Y-50192785D01*
X55549765Y-50166157D01*
X55759809Y-50025809D01*
X55900157Y-49815765D01*
X55949440Y-49568000D01*
X55949440Y-47968000D01*
X55900157Y-47720235D01*
X55759809Y-47510191D01*
X55549765Y-47369843D01*
X55302000Y-47320560D01*
X52902000Y-47320560D01*
X52654235Y-47369843D01*
X52444191Y-47510191D01*
X52303843Y-47720235D01*
X52254560Y-47968000D01*
X52254560Y-49568000D01*
X52303843Y-49815765D01*
X52444191Y-50025809D01*
X52654235Y-50166157D01*
X52788106Y-50192785D01*
X52667423Y-50273423D01*
X52350260Y-50748091D01*
X52268809Y-51157573D01*
X50582531Y-49471296D01*
X50532933Y-49397067D01*
X50238870Y-49200581D01*
X49979556Y-49149000D01*
X49979555Y-49149000D01*
X49892000Y-49131584D01*
X49804445Y-49149000D01*
X49247705Y-49149000D01*
X49057636Y-49022000D01*
X49286247Y-48869247D01*
X49478078Y-48582152D01*
X49545440Y-48243500D01*
X49545440Y-47768500D01*
X49478078Y-47429848D01*
X49286247Y-47142753D01*
X49262000Y-47126552D01*
X49262000Y-46853448D01*
X49286247Y-46837247D01*
X49478078Y-46550152D01*
X49545440Y-46211500D01*
X49545440Y-45736500D01*
X49478078Y-45397848D01*
X49286247Y-45110753D01*
X49262000Y-45094552D01*
X49262000Y-41967123D01*
X49353271Y-41948968D01*
X49849439Y-41617439D01*
X50180968Y-41121270D01*
X50268000Y-40683732D01*
X50268000Y-40591962D01*
X51816000Y-40591962D01*
X51816000Y-41602438D01*
X52202692Y-42535995D01*
X52917205Y-43250508D01*
X53850762Y-43637200D01*
X54861238Y-43637200D01*
X55794795Y-43250508D01*
X56090863Y-42954440D01*
X58571165Y-42954440D01*
X58780353Y-43315289D01*
X59717650Y-43692824D01*
X60728077Y-43682933D01*
X61615647Y-43315289D01*
X61824835Y-42954440D01*
X60198000Y-41327605D01*
X58571165Y-42954440D01*
X56090863Y-42954440D01*
X56509308Y-42535995D01*
X56896000Y-41602438D01*
X56896000Y-40667650D01*
X57653176Y-40667650D01*
X57663067Y-41678077D01*
X58030711Y-42565647D01*
X58391560Y-42774835D01*
X60018395Y-41148000D01*
X60377605Y-41148000D01*
X62004440Y-42774835D01*
X62365289Y-42565647D01*
X62742824Y-41628350D01*
X62732933Y-40617923D01*
X62365289Y-39730353D01*
X62183556Y-39625000D01*
X65289560Y-39625000D01*
X65289560Y-41655000D01*
X65338843Y-41902765D01*
X65479191Y-42112809D01*
X65689235Y-42253157D01*
X65937000Y-42302440D01*
X67667000Y-42302440D01*
X67914765Y-42253157D01*
X68124809Y-42112809D01*
X68265157Y-41902765D01*
X68270118Y-41877825D01*
X68756730Y-42202968D01*
X69342000Y-42319386D01*
X69927271Y-42202968D01*
X70423439Y-41871439D01*
X70615929Y-41583357D01*
X70981143Y-41990793D01*
X71509240Y-42244131D01*
X71522754Y-42246346D01*
X71755000Y-42125224D01*
X71755000Y-40767000D01*
X72009000Y-40767000D01*
X72009000Y-42125224D01*
X72241246Y-42246346D01*
X72254760Y-42244131D01*
X72782857Y-41990793D01*
X73173807Y-41554645D01*
X73368091Y-41002087D01*
X73224222Y-40767000D01*
X72009000Y-40767000D01*
X71755000Y-40767000D01*
X71735000Y-40767000D01*
X71735000Y-40513000D01*
X71755000Y-40513000D01*
X71755000Y-39154776D01*
X71522754Y-39033654D01*
X71509240Y-39035869D01*
X70981143Y-39289207D01*
X70615929Y-39696643D01*
X70423439Y-39408561D01*
X70354043Y-39362192D01*
X70981236Y-38735000D01*
X72172765Y-38735000D01*
X72675443Y-39237679D01*
X72254760Y-39035869D01*
X72241246Y-39033654D01*
X72009000Y-39154776D01*
X72009000Y-40513000D01*
X73224222Y-40513000D01*
X73368091Y-40277913D01*
X73179603Y-39741838D01*
X74644471Y-41206707D01*
X74694067Y-41280933D01*
X74988130Y-41477419D01*
X75195560Y-41518680D01*
X75195560Y-41655000D01*
X75244843Y-41902765D01*
X75385191Y-42112809D01*
X75595235Y-42253157D01*
X75843000Y-42302440D01*
X77573000Y-42302440D01*
X77820765Y-42253157D01*
X78030809Y-42112809D01*
X78171157Y-41902765D01*
X78188787Y-41814130D01*
X78347143Y-41990793D01*
X78875240Y-42244131D01*
X78888754Y-42246346D01*
X79121000Y-42125224D01*
X79121000Y-40767000D01*
X79375000Y-40767000D01*
X79375000Y-42125224D01*
X79607246Y-42246346D01*
X79620760Y-42244131D01*
X80148857Y-41990793D01*
X80518000Y-41578973D01*
X80887143Y-41990793D01*
X81415240Y-42244131D01*
X81428754Y-42246346D01*
X81661000Y-42125224D01*
X81661000Y-40767000D01*
X81915000Y-40767000D01*
X81915000Y-42125224D01*
X82147246Y-42246346D01*
X82160760Y-42244131D01*
X82688857Y-41990793D01*
X83079807Y-41554645D01*
X83274091Y-41002087D01*
X83130222Y-40767000D01*
X81915000Y-40767000D01*
X81661000Y-40767000D01*
X79375000Y-40767000D01*
X79121000Y-40767000D01*
X79101000Y-40767000D01*
X79101000Y-40513000D01*
X79121000Y-40513000D01*
X79121000Y-39154776D01*
X79375000Y-39154776D01*
X79375000Y-40513000D01*
X81661000Y-40513000D01*
X81661000Y-39154776D01*
X81915000Y-39154776D01*
X81915000Y-40513000D01*
X83130222Y-40513000D01*
X83274091Y-40277913D01*
X83079807Y-39725355D01*
X82688857Y-39289207D01*
X82160760Y-39035869D01*
X82147246Y-39033654D01*
X81915000Y-39154776D01*
X81661000Y-39154776D01*
X81428754Y-39033654D01*
X81415240Y-39035869D01*
X80887143Y-39289207D01*
X80518000Y-39701027D01*
X80148857Y-39289207D01*
X79620760Y-39035869D01*
X79607246Y-39033654D01*
X79375000Y-39154776D01*
X79121000Y-39154776D01*
X78888754Y-39033654D01*
X78875240Y-39035869D01*
X78347143Y-39289207D01*
X78188787Y-39465870D01*
X78171157Y-39377235D01*
X78030809Y-39167191D01*
X77820765Y-39026843D01*
X77573000Y-38977560D01*
X75843000Y-38977560D01*
X75595235Y-39026843D01*
X75385191Y-39167191D01*
X75278740Y-39326505D01*
X73231531Y-37279296D01*
X73181933Y-37205067D01*
X72887870Y-37008581D01*
X72628556Y-36957000D01*
X72628555Y-36957000D01*
X72541000Y-36939584D01*
X72453445Y-36957000D01*
X70700550Y-36957000D01*
X70612999Y-36939585D01*
X70525448Y-36957000D01*
X70525444Y-36957000D01*
X70266130Y-37008581D01*
X69972067Y-37205067D01*
X69922471Y-37279293D01*
X68775294Y-38426471D01*
X68701068Y-38476067D01*
X68651472Y-38550293D01*
X68651471Y-38550294D01*
X68504582Y-38770130D01*
X68435584Y-39117000D01*
X68453001Y-39204559D01*
X68453001Y-39279977D01*
X68270118Y-39402175D01*
X68265157Y-39377235D01*
X68124809Y-39167191D01*
X67914765Y-39026843D01*
X67667000Y-38977560D01*
X65937000Y-38977560D01*
X65689235Y-39026843D01*
X65479191Y-39167191D01*
X65338843Y-39377235D01*
X65289560Y-39625000D01*
X62183556Y-39625000D01*
X62004440Y-39521165D01*
X60377605Y-41148000D01*
X60018395Y-41148000D01*
X58391560Y-39521165D01*
X58030711Y-39730353D01*
X57653176Y-40667650D01*
X56896000Y-40667650D01*
X56896000Y-40591962D01*
X56509308Y-39658405D01*
X56192463Y-39341560D01*
X58571165Y-39341560D01*
X60198000Y-40968395D01*
X61824835Y-39341560D01*
X61615647Y-38980711D01*
X60678350Y-38603176D01*
X59667923Y-38613067D01*
X58780353Y-38980711D01*
X58571165Y-39341560D01*
X56192463Y-39341560D01*
X55794795Y-38943892D01*
X54861238Y-38557200D01*
X53850762Y-38557200D01*
X52917205Y-38943892D01*
X52202692Y-39658405D01*
X51816000Y-40591962D01*
X50268000Y-40591962D01*
X50268000Y-40088267D01*
X50180968Y-39650729D01*
X49849439Y-39154561D01*
X49353270Y-38823032D01*
X48768000Y-38706614D01*
X48182729Y-38823032D01*
X47686561Y-39154561D01*
X47494071Y-39442643D01*
X47128857Y-39035207D01*
X46600760Y-38781869D01*
X46587246Y-38779654D01*
X46355000Y-38900776D01*
X46355000Y-40259000D01*
X46375000Y-40259000D01*
X46375000Y-40513000D01*
X46355000Y-40513000D01*
X46355000Y-41871224D01*
X46587246Y-41992346D01*
X46600760Y-41990131D01*
X47128857Y-41736793D01*
X47484001Y-41340591D01*
X47484000Y-44950857D01*
X47274309Y-44864000D01*
X46908750Y-44864000D01*
X46750000Y-45022750D01*
X46750000Y-45847000D01*
X46770000Y-45847000D01*
X46770000Y-46101000D01*
X46750000Y-46101000D01*
X46750000Y-46121000D01*
X46496000Y-46121000D01*
X46496000Y-46101000D01*
X45621750Y-46101000D01*
X45463000Y-46259750D01*
X45463000Y-46575310D01*
X45559673Y-46808699D01*
X45738302Y-46987327D01*
X45864273Y-47039506D01*
X45709753Y-47142753D01*
X45517922Y-47429848D01*
X45450560Y-47768500D01*
X40885000Y-47768500D01*
X40885000Y-45372690D01*
X45463000Y-45372690D01*
X45463000Y-45688250D01*
X45621750Y-45847000D01*
X46496000Y-45847000D01*
X46496000Y-45022750D01*
X46337250Y-44864000D01*
X45971691Y-44864000D01*
X45738302Y-44960673D01*
X45559673Y-45139301D01*
X45463000Y-45372690D01*
X40885000Y-45372690D01*
X40885000Y-40671750D01*
X42188000Y-40671750D01*
X42188000Y-41527309D01*
X42284673Y-41760698D01*
X42463301Y-41939327D01*
X42696690Y-42036000D01*
X43402250Y-42036000D01*
X43561000Y-41877250D01*
X43561000Y-40513000D01*
X43815000Y-40513000D01*
X43815000Y-41877250D01*
X43973750Y-42036000D01*
X44679310Y-42036000D01*
X44912699Y-41939327D01*
X45091327Y-41760698D01*
X45172630Y-41564416D01*
X45327143Y-41736793D01*
X45855240Y-41990131D01*
X45868754Y-41992346D01*
X46101000Y-41871224D01*
X46101000Y-40513000D01*
X43815000Y-40513000D01*
X43561000Y-40513000D01*
X42346750Y-40513000D01*
X42188000Y-40671750D01*
X40885000Y-40671750D01*
X40885000Y-39244691D01*
X42188000Y-39244691D01*
X42188000Y-40100250D01*
X42346750Y-40259000D01*
X43561000Y-40259000D01*
X43561000Y-38894750D01*
X43815000Y-38894750D01*
X43815000Y-40259000D01*
X46101000Y-40259000D01*
X46101000Y-38900776D01*
X45868754Y-38779654D01*
X45855240Y-38781869D01*
X45327143Y-39035207D01*
X45172630Y-39207584D01*
X45091327Y-39011302D01*
X44912699Y-38832673D01*
X44679310Y-38736000D01*
X43973750Y-38736000D01*
X43815000Y-38894750D01*
X43561000Y-38894750D01*
X43402250Y-38736000D01*
X42696690Y-38736000D01*
X42463301Y-38832673D01*
X42284673Y-39011302D01*
X42188000Y-39244691D01*
X40885000Y-39244691D01*
X40885000Y-36885000D01*
X94115000Y-36885000D01*
X94115001Y-69115000D01*
M02*
