%TF.GenerationSoftware,KiCad,Pcbnew,5.0.2-bee76a0~70~ubuntu18.04.1*%
%TF.CreationDate,2019-07-21T13:21:52-06:00*%
%TF.ProjectId,MX+ Distortion Pedal,4d582b20-4469-4737-946f-7274696f6e20,rev?*%
%TF.SameCoordinates,Original*%
%TF.FileFunction,Legend,Bot*%
%TF.FilePolarity,Positive*%
%FSLAX46Y46*%
G04 Gerber Fmt 4.6, Leading zero omitted, Abs format (unit mm)*
G04 Created by KiCad (PCBNEW 5.0.2-bee76a0~70~ubuntu18.04.1) date Sun 21 Jul 2019 01:21:52 PM MDT*
%MOMM*%
%LPD*%
G01*
G04 APERTURE LIST*
%ADD10C,0.500000*%
%ADD11C,0.120000*%
%ADD12C,0.150000*%
G04 APERTURE END LIST*
D10*
X40000000Y-70000000D02*
X95000000Y-70000000D01*
X95000000Y-36000000D02*
X95000000Y-70000000D01*
X40000000Y-36000000D02*
X40000000Y-70000000D01*
X40000000Y-36000000D02*
X95000000Y-36000000D01*
D11*
X47669267Y-46484000D02*
X47326733Y-46484000D01*
X47669267Y-45464000D02*
X47326733Y-45464000D01*
X47326733Y-47496000D02*
X47669267Y-47496000D01*
X47326733Y-48516000D02*
X47669267Y-48516000D01*
X84580000Y-52241267D02*
X84580000Y-51898733D01*
X85600000Y-52241267D02*
X85600000Y-51898733D01*
X85821733Y-46988000D02*
X86164267Y-46988000D01*
X85821733Y-48008000D02*
X86164267Y-48008000D01*
X47669267Y-50548000D02*
X47326733Y-50548000D01*
X47669267Y-49528000D02*
X47326733Y-49528000D01*
X57970267Y-52326000D02*
X57627733Y-52326000D01*
X57970267Y-51306000D02*
X57627733Y-51306000D01*
D12*
X44870666Y-46331142D02*
X44918285Y-46378761D01*
X45061142Y-46426380D01*
X45156380Y-46426380D01*
X45299238Y-46378761D01*
X45394476Y-46283523D01*
X45442095Y-46188285D01*
X45489714Y-45997809D01*
X45489714Y-45854952D01*
X45442095Y-45664476D01*
X45394476Y-45569238D01*
X45299238Y-45474000D01*
X45156380Y-45426380D01*
X45061142Y-45426380D01*
X44918285Y-45474000D01*
X44870666Y-45521619D01*
X43918285Y-46426380D02*
X44489714Y-46426380D01*
X44204000Y-46426380D02*
X44204000Y-45426380D01*
X44299238Y-45569238D01*
X44394476Y-45664476D01*
X44489714Y-45712095D01*
X44757666Y-48363142D02*
X44805285Y-48410761D01*
X44948142Y-48458380D01*
X45043380Y-48458380D01*
X45186238Y-48410761D01*
X45281476Y-48315523D01*
X45329095Y-48220285D01*
X45376714Y-48029809D01*
X45376714Y-47886952D01*
X45329095Y-47696476D01*
X45281476Y-47601238D01*
X45186238Y-47506000D01*
X45043380Y-47458380D01*
X44948142Y-47458380D01*
X44805285Y-47506000D01*
X44757666Y-47553619D01*
X44376714Y-47553619D02*
X44329095Y-47506000D01*
X44233857Y-47458380D01*
X43995761Y-47458380D01*
X43900523Y-47506000D01*
X43852904Y-47553619D01*
X43805285Y-47648857D01*
X43805285Y-47744095D01*
X43852904Y-47886952D01*
X44424333Y-48458380D01*
X43805285Y-48458380D01*
X86877142Y-51903333D02*
X86924761Y-51855714D01*
X86972380Y-51712857D01*
X86972380Y-51617619D01*
X86924761Y-51474761D01*
X86829523Y-51379523D01*
X86734285Y-51331904D01*
X86543809Y-51284285D01*
X86400952Y-51284285D01*
X86210476Y-51331904D01*
X86115238Y-51379523D01*
X86020000Y-51474761D01*
X85972380Y-51617619D01*
X85972380Y-51712857D01*
X86020000Y-51855714D01*
X86067619Y-51903333D01*
X85972380Y-52236666D02*
X85972380Y-52855714D01*
X86353333Y-52522380D01*
X86353333Y-52665238D01*
X86400952Y-52760476D01*
X86448571Y-52808095D01*
X86543809Y-52855714D01*
X86781904Y-52855714D01*
X86877142Y-52808095D01*
X86924761Y-52760476D01*
X86972380Y-52665238D01*
X86972380Y-52379523D01*
X86924761Y-52284285D01*
X86877142Y-52236666D01*
X86159666Y-49380380D02*
X86493000Y-48904190D01*
X86731095Y-49380380D02*
X86731095Y-48380380D01*
X86350142Y-48380380D01*
X86254904Y-48428000D01*
X86207285Y-48475619D01*
X86159666Y-48570857D01*
X86159666Y-48713714D01*
X86207285Y-48808952D01*
X86254904Y-48856571D01*
X86350142Y-48904190D01*
X86731095Y-48904190D01*
X85207285Y-49380380D02*
X85778714Y-49380380D01*
X85493000Y-49380380D02*
X85493000Y-48380380D01*
X85588238Y-48523238D01*
X85683476Y-48618476D01*
X85778714Y-48666095D01*
X44870666Y-50490380D02*
X45204000Y-50014190D01*
X45442095Y-50490380D02*
X45442095Y-49490380D01*
X45061142Y-49490380D01*
X44965904Y-49538000D01*
X44918285Y-49585619D01*
X44870666Y-49680857D01*
X44870666Y-49823714D01*
X44918285Y-49918952D01*
X44965904Y-49966571D01*
X45061142Y-50014190D01*
X45442095Y-50014190D01*
X44489714Y-49585619D02*
X44442095Y-49538000D01*
X44346857Y-49490380D01*
X44108761Y-49490380D01*
X44013523Y-49538000D01*
X43965904Y-49585619D01*
X43918285Y-49680857D01*
X43918285Y-49776095D01*
X43965904Y-49918952D01*
X44537333Y-50490380D01*
X43918285Y-50490380D01*
X57965666Y-50838380D02*
X58299000Y-50362190D01*
X58537095Y-50838380D02*
X58537095Y-49838380D01*
X58156142Y-49838380D01*
X58060904Y-49886000D01*
X58013285Y-49933619D01*
X57965666Y-50028857D01*
X57965666Y-50171714D01*
X58013285Y-50266952D01*
X58060904Y-50314571D01*
X58156142Y-50362190D01*
X58537095Y-50362190D01*
X57108523Y-50171714D02*
X57108523Y-50838380D01*
X57346619Y-49790761D02*
X57584714Y-50505047D01*
X56965666Y-50505047D01*
M02*
