%TF.GenerationSoftware,KiCad,Pcbnew,5.0.2-bee76a0~70~ubuntu18.04.1*%
%TF.CreationDate,2019-07-21T13:21:52-06:00*%
%TF.ProjectId,MX+ Distortion Pedal,4d582b20-4469-4737-946f-7274696f6e20,rev?*%
%TF.SameCoordinates,Original*%
%TF.FileFunction,Copper,L1,Top*%
%TF.FilePolarity,Positive*%
%FSLAX46Y46*%
G04 Gerber Fmt 4.6, Leading zero omitted, Abs format (unit mm)*
G04 Created by KiCad (PCBNEW 5.0.2-bee76a0~70~ubuntu18.04.1) date Sun 21 Jul 2019 01:21:52 PM MDT*
%MOMM*%
%LPD*%
G01*
G04 APERTURE LIST*
%ADD10C,0.500000*%
%ADD11C,10.000000*%
%ADD12C,0.100000*%
%ADD13C,0.950000*%
%ADD14O,1.800000X1.800000*%
%ADD15R,1.800000X1.800000*%
%ADD16O,1.730000X2.030000*%
%ADD17R,1.730000X2.030000*%
%ADD18O,2.400000X1.600000*%
%ADD19R,2.400000X1.600000*%
%ADD20C,3.810000*%
%ADD21C,0.508000*%
%ADD22C,0.254000*%
G04 APERTURE END LIST*
D10*
X40000000Y-70000000D02*
X95000000Y-70000000D01*
X95000000Y-36000000D02*
X95000000Y-70000000D01*
X40000000Y-36000000D02*
X40000000Y-70000000D01*
X40000000Y-36000000D02*
X95000000Y-36000000D01*
D11*
X87122000Y-62992000D03*
X46736000Y-62992000D03*
D12*
G36*
X66491779Y-58454144D02*
X66514834Y-58457563D01*
X66537443Y-58463227D01*
X66559387Y-58471079D01*
X66580457Y-58481044D01*
X66600448Y-58493026D01*
X66619168Y-58506910D01*
X66636438Y-58522562D01*
X66652090Y-58539832D01*
X66665974Y-58558552D01*
X66677956Y-58578543D01*
X66687921Y-58599613D01*
X66695773Y-58621557D01*
X66701437Y-58644166D01*
X66704856Y-58667221D01*
X66706000Y-58690500D01*
X66706000Y-59165500D01*
X66704856Y-59188779D01*
X66701437Y-59211834D01*
X66695773Y-59234443D01*
X66687921Y-59256387D01*
X66677956Y-59277457D01*
X66665974Y-59297448D01*
X66652090Y-59316168D01*
X66636438Y-59333438D01*
X66619168Y-59349090D01*
X66600448Y-59362974D01*
X66580457Y-59374956D01*
X66559387Y-59384921D01*
X66537443Y-59392773D01*
X66514834Y-59398437D01*
X66491779Y-59401856D01*
X66468500Y-59403000D01*
X65893500Y-59403000D01*
X65870221Y-59401856D01*
X65847166Y-59398437D01*
X65824557Y-59392773D01*
X65802613Y-59384921D01*
X65781543Y-59374956D01*
X65761552Y-59362974D01*
X65742832Y-59349090D01*
X65725562Y-59333438D01*
X65709910Y-59316168D01*
X65696026Y-59297448D01*
X65684044Y-59277457D01*
X65674079Y-59256387D01*
X65666227Y-59234443D01*
X65660563Y-59211834D01*
X65657144Y-59188779D01*
X65656000Y-59165500D01*
X65656000Y-58690500D01*
X65657144Y-58667221D01*
X65660563Y-58644166D01*
X65666227Y-58621557D01*
X65674079Y-58599613D01*
X65684044Y-58578543D01*
X65696026Y-58558552D01*
X65709910Y-58539832D01*
X65725562Y-58522562D01*
X65742832Y-58506910D01*
X65761552Y-58493026D01*
X65781543Y-58481044D01*
X65802613Y-58471079D01*
X65824557Y-58463227D01*
X65847166Y-58457563D01*
X65870221Y-58454144D01*
X65893500Y-58453000D01*
X66468500Y-58453000D01*
X66491779Y-58454144D01*
X66491779Y-58454144D01*
G37*
D13*
X66181000Y-58928000D03*
D12*
G36*
X68241779Y-58454144D02*
X68264834Y-58457563D01*
X68287443Y-58463227D01*
X68309387Y-58471079D01*
X68330457Y-58481044D01*
X68350448Y-58493026D01*
X68369168Y-58506910D01*
X68386438Y-58522562D01*
X68402090Y-58539832D01*
X68415974Y-58558552D01*
X68427956Y-58578543D01*
X68437921Y-58599613D01*
X68445773Y-58621557D01*
X68451437Y-58644166D01*
X68454856Y-58667221D01*
X68456000Y-58690500D01*
X68456000Y-59165500D01*
X68454856Y-59188779D01*
X68451437Y-59211834D01*
X68445773Y-59234443D01*
X68437921Y-59256387D01*
X68427956Y-59277457D01*
X68415974Y-59297448D01*
X68402090Y-59316168D01*
X68386438Y-59333438D01*
X68369168Y-59349090D01*
X68350448Y-59362974D01*
X68330457Y-59374956D01*
X68309387Y-59384921D01*
X68287443Y-59392773D01*
X68264834Y-59398437D01*
X68241779Y-59401856D01*
X68218500Y-59403000D01*
X67643500Y-59403000D01*
X67620221Y-59401856D01*
X67597166Y-59398437D01*
X67574557Y-59392773D01*
X67552613Y-59384921D01*
X67531543Y-59374956D01*
X67511552Y-59362974D01*
X67492832Y-59349090D01*
X67475562Y-59333438D01*
X67459910Y-59316168D01*
X67446026Y-59297448D01*
X67434044Y-59277457D01*
X67424079Y-59256387D01*
X67416227Y-59234443D01*
X67410563Y-59211834D01*
X67407144Y-59188779D01*
X67406000Y-59165500D01*
X67406000Y-58690500D01*
X67407144Y-58667221D01*
X67410563Y-58644166D01*
X67416227Y-58621557D01*
X67424079Y-58599613D01*
X67434044Y-58578543D01*
X67446026Y-58558552D01*
X67459910Y-58539832D01*
X67475562Y-58522562D01*
X67492832Y-58506910D01*
X67511552Y-58493026D01*
X67531543Y-58481044D01*
X67552613Y-58471079D01*
X67574557Y-58463227D01*
X67597166Y-58457563D01*
X67620221Y-58454144D01*
X67643500Y-58453000D01*
X68218500Y-58453000D01*
X68241779Y-58454144D01*
X68241779Y-58454144D01*
G37*
D13*
X67931000Y-58928000D03*
D12*
G36*
X68636779Y-45246144D02*
X68659834Y-45249563D01*
X68682443Y-45255227D01*
X68704387Y-45263079D01*
X68725457Y-45273044D01*
X68745448Y-45285026D01*
X68764168Y-45298910D01*
X68781438Y-45314562D01*
X68797090Y-45331832D01*
X68810974Y-45350552D01*
X68822956Y-45370543D01*
X68832921Y-45391613D01*
X68840773Y-45413557D01*
X68846437Y-45436166D01*
X68849856Y-45459221D01*
X68851000Y-45482500D01*
X68851000Y-45957500D01*
X68849856Y-45980779D01*
X68846437Y-46003834D01*
X68840773Y-46026443D01*
X68832921Y-46048387D01*
X68822956Y-46069457D01*
X68810974Y-46089448D01*
X68797090Y-46108168D01*
X68781438Y-46125438D01*
X68764168Y-46141090D01*
X68745448Y-46154974D01*
X68725457Y-46166956D01*
X68704387Y-46176921D01*
X68682443Y-46184773D01*
X68659834Y-46190437D01*
X68636779Y-46193856D01*
X68613500Y-46195000D01*
X68038500Y-46195000D01*
X68015221Y-46193856D01*
X67992166Y-46190437D01*
X67969557Y-46184773D01*
X67947613Y-46176921D01*
X67926543Y-46166956D01*
X67906552Y-46154974D01*
X67887832Y-46141090D01*
X67870562Y-46125438D01*
X67854910Y-46108168D01*
X67841026Y-46089448D01*
X67829044Y-46069457D01*
X67819079Y-46048387D01*
X67811227Y-46026443D01*
X67805563Y-46003834D01*
X67802144Y-45980779D01*
X67801000Y-45957500D01*
X67801000Y-45482500D01*
X67802144Y-45459221D01*
X67805563Y-45436166D01*
X67811227Y-45413557D01*
X67819079Y-45391613D01*
X67829044Y-45370543D01*
X67841026Y-45350552D01*
X67854910Y-45331832D01*
X67870562Y-45314562D01*
X67887832Y-45298910D01*
X67906552Y-45285026D01*
X67926543Y-45273044D01*
X67947613Y-45263079D01*
X67969557Y-45255227D01*
X67992166Y-45249563D01*
X68015221Y-45246144D01*
X68038500Y-45245000D01*
X68613500Y-45245000D01*
X68636779Y-45246144D01*
X68636779Y-45246144D01*
G37*
D13*
X68326000Y-45720000D03*
D12*
G36*
X66886779Y-45246144D02*
X66909834Y-45249563D01*
X66932443Y-45255227D01*
X66954387Y-45263079D01*
X66975457Y-45273044D01*
X66995448Y-45285026D01*
X67014168Y-45298910D01*
X67031438Y-45314562D01*
X67047090Y-45331832D01*
X67060974Y-45350552D01*
X67072956Y-45370543D01*
X67082921Y-45391613D01*
X67090773Y-45413557D01*
X67096437Y-45436166D01*
X67099856Y-45459221D01*
X67101000Y-45482500D01*
X67101000Y-45957500D01*
X67099856Y-45980779D01*
X67096437Y-46003834D01*
X67090773Y-46026443D01*
X67082921Y-46048387D01*
X67072956Y-46069457D01*
X67060974Y-46089448D01*
X67047090Y-46108168D01*
X67031438Y-46125438D01*
X67014168Y-46141090D01*
X66995448Y-46154974D01*
X66975457Y-46166956D01*
X66954387Y-46176921D01*
X66932443Y-46184773D01*
X66909834Y-46190437D01*
X66886779Y-46193856D01*
X66863500Y-46195000D01*
X66288500Y-46195000D01*
X66265221Y-46193856D01*
X66242166Y-46190437D01*
X66219557Y-46184773D01*
X66197613Y-46176921D01*
X66176543Y-46166956D01*
X66156552Y-46154974D01*
X66137832Y-46141090D01*
X66120562Y-46125438D01*
X66104910Y-46108168D01*
X66091026Y-46089448D01*
X66079044Y-46069457D01*
X66069079Y-46048387D01*
X66061227Y-46026443D01*
X66055563Y-46003834D01*
X66052144Y-45980779D01*
X66051000Y-45957500D01*
X66051000Y-45482500D01*
X66052144Y-45459221D01*
X66055563Y-45436166D01*
X66061227Y-45413557D01*
X66069079Y-45391613D01*
X66079044Y-45370543D01*
X66091026Y-45350552D01*
X66104910Y-45331832D01*
X66120562Y-45314562D01*
X66137832Y-45298910D01*
X66156552Y-45285026D01*
X66176543Y-45273044D01*
X66197613Y-45263079D01*
X66219557Y-45255227D01*
X66242166Y-45249563D01*
X66265221Y-45246144D01*
X66288500Y-45245000D01*
X66863500Y-45245000D01*
X66886779Y-45246144D01*
X66886779Y-45246144D01*
G37*
D13*
X66576000Y-45720000D03*
D12*
G36*
X48683779Y-45500144D02*
X48706834Y-45503563D01*
X48729443Y-45509227D01*
X48751387Y-45517079D01*
X48772457Y-45527044D01*
X48792448Y-45539026D01*
X48811168Y-45552910D01*
X48828438Y-45568562D01*
X48844090Y-45585832D01*
X48857974Y-45604552D01*
X48869956Y-45624543D01*
X48879921Y-45645613D01*
X48887773Y-45667557D01*
X48893437Y-45690166D01*
X48896856Y-45713221D01*
X48898000Y-45736500D01*
X48898000Y-46211500D01*
X48896856Y-46234779D01*
X48893437Y-46257834D01*
X48887773Y-46280443D01*
X48879921Y-46302387D01*
X48869956Y-46323457D01*
X48857974Y-46343448D01*
X48844090Y-46362168D01*
X48828438Y-46379438D01*
X48811168Y-46395090D01*
X48792448Y-46408974D01*
X48772457Y-46420956D01*
X48751387Y-46430921D01*
X48729443Y-46438773D01*
X48706834Y-46444437D01*
X48683779Y-46447856D01*
X48660500Y-46449000D01*
X48085500Y-46449000D01*
X48062221Y-46447856D01*
X48039166Y-46444437D01*
X48016557Y-46438773D01*
X47994613Y-46430921D01*
X47973543Y-46420956D01*
X47953552Y-46408974D01*
X47934832Y-46395090D01*
X47917562Y-46379438D01*
X47901910Y-46362168D01*
X47888026Y-46343448D01*
X47876044Y-46323457D01*
X47866079Y-46302387D01*
X47858227Y-46280443D01*
X47852563Y-46257834D01*
X47849144Y-46234779D01*
X47848000Y-46211500D01*
X47848000Y-45736500D01*
X47849144Y-45713221D01*
X47852563Y-45690166D01*
X47858227Y-45667557D01*
X47866079Y-45645613D01*
X47876044Y-45624543D01*
X47888026Y-45604552D01*
X47901910Y-45585832D01*
X47917562Y-45568562D01*
X47934832Y-45552910D01*
X47953552Y-45539026D01*
X47973543Y-45527044D01*
X47994613Y-45517079D01*
X48016557Y-45509227D01*
X48039166Y-45503563D01*
X48062221Y-45500144D01*
X48085500Y-45499000D01*
X48660500Y-45499000D01*
X48683779Y-45500144D01*
X48683779Y-45500144D01*
G37*
D13*
X48373000Y-45974000D03*
D12*
G36*
X46933779Y-45500144D02*
X46956834Y-45503563D01*
X46979443Y-45509227D01*
X47001387Y-45517079D01*
X47022457Y-45527044D01*
X47042448Y-45539026D01*
X47061168Y-45552910D01*
X47078438Y-45568562D01*
X47094090Y-45585832D01*
X47107974Y-45604552D01*
X47119956Y-45624543D01*
X47129921Y-45645613D01*
X47137773Y-45667557D01*
X47143437Y-45690166D01*
X47146856Y-45713221D01*
X47148000Y-45736500D01*
X47148000Y-46211500D01*
X47146856Y-46234779D01*
X47143437Y-46257834D01*
X47137773Y-46280443D01*
X47129921Y-46302387D01*
X47119956Y-46323457D01*
X47107974Y-46343448D01*
X47094090Y-46362168D01*
X47078438Y-46379438D01*
X47061168Y-46395090D01*
X47042448Y-46408974D01*
X47022457Y-46420956D01*
X47001387Y-46430921D01*
X46979443Y-46438773D01*
X46956834Y-46444437D01*
X46933779Y-46447856D01*
X46910500Y-46449000D01*
X46335500Y-46449000D01*
X46312221Y-46447856D01*
X46289166Y-46444437D01*
X46266557Y-46438773D01*
X46244613Y-46430921D01*
X46223543Y-46420956D01*
X46203552Y-46408974D01*
X46184832Y-46395090D01*
X46167562Y-46379438D01*
X46151910Y-46362168D01*
X46138026Y-46343448D01*
X46126044Y-46323457D01*
X46116079Y-46302387D01*
X46108227Y-46280443D01*
X46102563Y-46257834D01*
X46099144Y-46234779D01*
X46098000Y-46211500D01*
X46098000Y-45736500D01*
X46099144Y-45713221D01*
X46102563Y-45690166D01*
X46108227Y-45667557D01*
X46116079Y-45645613D01*
X46126044Y-45624543D01*
X46138026Y-45604552D01*
X46151910Y-45585832D01*
X46167562Y-45568562D01*
X46184832Y-45552910D01*
X46203552Y-45539026D01*
X46223543Y-45527044D01*
X46244613Y-45517079D01*
X46266557Y-45509227D01*
X46289166Y-45503563D01*
X46312221Y-45500144D01*
X46335500Y-45499000D01*
X46910500Y-45499000D01*
X46933779Y-45500144D01*
X46933779Y-45500144D01*
G37*
D13*
X46623000Y-45974000D03*
D14*
X78994000Y-53340000D03*
D15*
X66294000Y-53340000D03*
D14*
X66294000Y-48514000D03*
D15*
X78994000Y-48514000D03*
D16*
X71882000Y-40640000D03*
X69342000Y-40640000D03*
D17*
X66802000Y-40640000D03*
D16*
X91948000Y-40640000D03*
X89408000Y-40640000D03*
D17*
X86868000Y-40640000D03*
D16*
X48768000Y-40386000D03*
X46228000Y-40386000D03*
D17*
X43688000Y-40386000D03*
D16*
X81788000Y-40640000D03*
X79248000Y-40640000D03*
D17*
X76708000Y-40640000D03*
D12*
G36*
X46933779Y-51596144D02*
X46956834Y-51599563D01*
X46979443Y-51605227D01*
X47001387Y-51613079D01*
X47022457Y-51623044D01*
X47042448Y-51635026D01*
X47061168Y-51648910D01*
X47078438Y-51664562D01*
X47094090Y-51681832D01*
X47107974Y-51700552D01*
X47119956Y-51720543D01*
X47129921Y-51741613D01*
X47137773Y-51763557D01*
X47143437Y-51786166D01*
X47146856Y-51809221D01*
X47148000Y-51832500D01*
X47148000Y-52307500D01*
X47146856Y-52330779D01*
X47143437Y-52353834D01*
X47137773Y-52376443D01*
X47129921Y-52398387D01*
X47119956Y-52419457D01*
X47107974Y-52439448D01*
X47094090Y-52458168D01*
X47078438Y-52475438D01*
X47061168Y-52491090D01*
X47042448Y-52504974D01*
X47022457Y-52516956D01*
X47001387Y-52526921D01*
X46979443Y-52534773D01*
X46956834Y-52540437D01*
X46933779Y-52543856D01*
X46910500Y-52545000D01*
X46335500Y-52545000D01*
X46312221Y-52543856D01*
X46289166Y-52540437D01*
X46266557Y-52534773D01*
X46244613Y-52526921D01*
X46223543Y-52516956D01*
X46203552Y-52504974D01*
X46184832Y-52491090D01*
X46167562Y-52475438D01*
X46151910Y-52458168D01*
X46138026Y-52439448D01*
X46126044Y-52419457D01*
X46116079Y-52398387D01*
X46108227Y-52376443D01*
X46102563Y-52353834D01*
X46099144Y-52330779D01*
X46098000Y-52307500D01*
X46098000Y-51832500D01*
X46099144Y-51809221D01*
X46102563Y-51786166D01*
X46108227Y-51763557D01*
X46116079Y-51741613D01*
X46126044Y-51720543D01*
X46138026Y-51700552D01*
X46151910Y-51681832D01*
X46167562Y-51664562D01*
X46184832Y-51648910D01*
X46203552Y-51635026D01*
X46223543Y-51623044D01*
X46244613Y-51613079D01*
X46266557Y-51605227D01*
X46289166Y-51599563D01*
X46312221Y-51596144D01*
X46335500Y-51595000D01*
X46910500Y-51595000D01*
X46933779Y-51596144D01*
X46933779Y-51596144D01*
G37*
D13*
X46623000Y-52070000D03*
D12*
G36*
X48683779Y-51596144D02*
X48706834Y-51599563D01*
X48729443Y-51605227D01*
X48751387Y-51613079D01*
X48772457Y-51623044D01*
X48792448Y-51635026D01*
X48811168Y-51648910D01*
X48828438Y-51664562D01*
X48844090Y-51681832D01*
X48857974Y-51700552D01*
X48869956Y-51720543D01*
X48879921Y-51741613D01*
X48887773Y-51763557D01*
X48893437Y-51786166D01*
X48896856Y-51809221D01*
X48898000Y-51832500D01*
X48898000Y-52307500D01*
X48896856Y-52330779D01*
X48893437Y-52353834D01*
X48887773Y-52376443D01*
X48879921Y-52398387D01*
X48869956Y-52419457D01*
X48857974Y-52439448D01*
X48844090Y-52458168D01*
X48828438Y-52475438D01*
X48811168Y-52491090D01*
X48792448Y-52504974D01*
X48772457Y-52516956D01*
X48751387Y-52526921D01*
X48729443Y-52534773D01*
X48706834Y-52540437D01*
X48683779Y-52543856D01*
X48660500Y-52545000D01*
X48085500Y-52545000D01*
X48062221Y-52543856D01*
X48039166Y-52540437D01*
X48016557Y-52534773D01*
X47994613Y-52526921D01*
X47973543Y-52516956D01*
X47953552Y-52504974D01*
X47934832Y-52491090D01*
X47917562Y-52475438D01*
X47901910Y-52458168D01*
X47888026Y-52439448D01*
X47876044Y-52419457D01*
X47866079Y-52398387D01*
X47858227Y-52376443D01*
X47852563Y-52353834D01*
X47849144Y-52330779D01*
X47848000Y-52307500D01*
X47848000Y-51832500D01*
X47849144Y-51809221D01*
X47852563Y-51786166D01*
X47858227Y-51763557D01*
X47866079Y-51741613D01*
X47876044Y-51720543D01*
X47888026Y-51700552D01*
X47901910Y-51681832D01*
X47917562Y-51664562D01*
X47934832Y-51648910D01*
X47953552Y-51635026D01*
X47973543Y-51623044D01*
X47994613Y-51613079D01*
X48016557Y-51605227D01*
X48039166Y-51599563D01*
X48062221Y-51596144D01*
X48085500Y-51595000D01*
X48660500Y-51595000D01*
X48683779Y-51596144D01*
X48683779Y-51596144D01*
G37*
D13*
X48373000Y-52070000D03*
D12*
G36*
X68241779Y-56422144D02*
X68264834Y-56425563D01*
X68287443Y-56431227D01*
X68309387Y-56439079D01*
X68330457Y-56449044D01*
X68350448Y-56461026D01*
X68369168Y-56474910D01*
X68386438Y-56490562D01*
X68402090Y-56507832D01*
X68415974Y-56526552D01*
X68427956Y-56546543D01*
X68437921Y-56567613D01*
X68445773Y-56589557D01*
X68451437Y-56612166D01*
X68454856Y-56635221D01*
X68456000Y-56658500D01*
X68456000Y-57133500D01*
X68454856Y-57156779D01*
X68451437Y-57179834D01*
X68445773Y-57202443D01*
X68437921Y-57224387D01*
X68427956Y-57245457D01*
X68415974Y-57265448D01*
X68402090Y-57284168D01*
X68386438Y-57301438D01*
X68369168Y-57317090D01*
X68350448Y-57330974D01*
X68330457Y-57342956D01*
X68309387Y-57352921D01*
X68287443Y-57360773D01*
X68264834Y-57366437D01*
X68241779Y-57369856D01*
X68218500Y-57371000D01*
X67643500Y-57371000D01*
X67620221Y-57369856D01*
X67597166Y-57366437D01*
X67574557Y-57360773D01*
X67552613Y-57352921D01*
X67531543Y-57342956D01*
X67511552Y-57330974D01*
X67492832Y-57317090D01*
X67475562Y-57301438D01*
X67459910Y-57284168D01*
X67446026Y-57265448D01*
X67434044Y-57245457D01*
X67424079Y-57224387D01*
X67416227Y-57202443D01*
X67410563Y-57179834D01*
X67407144Y-57156779D01*
X67406000Y-57133500D01*
X67406000Y-56658500D01*
X67407144Y-56635221D01*
X67410563Y-56612166D01*
X67416227Y-56589557D01*
X67424079Y-56567613D01*
X67434044Y-56546543D01*
X67446026Y-56526552D01*
X67459910Y-56507832D01*
X67475562Y-56490562D01*
X67492832Y-56474910D01*
X67511552Y-56461026D01*
X67531543Y-56449044D01*
X67552613Y-56439079D01*
X67574557Y-56431227D01*
X67597166Y-56425563D01*
X67620221Y-56422144D01*
X67643500Y-56421000D01*
X68218500Y-56421000D01*
X68241779Y-56422144D01*
X68241779Y-56422144D01*
G37*
D13*
X67931000Y-56896000D03*
D12*
G36*
X66491779Y-56422144D02*
X66514834Y-56425563D01*
X66537443Y-56431227D01*
X66559387Y-56439079D01*
X66580457Y-56449044D01*
X66600448Y-56461026D01*
X66619168Y-56474910D01*
X66636438Y-56490562D01*
X66652090Y-56507832D01*
X66665974Y-56526552D01*
X66677956Y-56546543D01*
X66687921Y-56567613D01*
X66695773Y-56589557D01*
X66701437Y-56612166D01*
X66704856Y-56635221D01*
X66706000Y-56658500D01*
X66706000Y-57133500D01*
X66704856Y-57156779D01*
X66701437Y-57179834D01*
X66695773Y-57202443D01*
X66687921Y-57224387D01*
X66677956Y-57245457D01*
X66665974Y-57265448D01*
X66652090Y-57284168D01*
X66636438Y-57301438D01*
X66619168Y-57317090D01*
X66600448Y-57330974D01*
X66580457Y-57342956D01*
X66559387Y-57352921D01*
X66537443Y-57360773D01*
X66514834Y-57366437D01*
X66491779Y-57369856D01*
X66468500Y-57371000D01*
X65893500Y-57371000D01*
X65870221Y-57369856D01*
X65847166Y-57366437D01*
X65824557Y-57360773D01*
X65802613Y-57352921D01*
X65781543Y-57342956D01*
X65761552Y-57330974D01*
X65742832Y-57317090D01*
X65725562Y-57301438D01*
X65709910Y-57284168D01*
X65696026Y-57265448D01*
X65684044Y-57245457D01*
X65674079Y-57224387D01*
X65666227Y-57202443D01*
X65660563Y-57179834D01*
X65657144Y-57156779D01*
X65656000Y-57133500D01*
X65656000Y-56658500D01*
X65657144Y-56635221D01*
X65660563Y-56612166D01*
X65666227Y-56589557D01*
X65674079Y-56567613D01*
X65684044Y-56546543D01*
X65696026Y-56526552D01*
X65709910Y-56507832D01*
X65725562Y-56490562D01*
X65742832Y-56474910D01*
X65761552Y-56461026D01*
X65781543Y-56449044D01*
X65802613Y-56439079D01*
X65824557Y-56431227D01*
X65847166Y-56425563D01*
X65870221Y-56422144D01*
X65893500Y-56421000D01*
X66468500Y-56421000D01*
X66491779Y-56422144D01*
X66491779Y-56422144D01*
G37*
D13*
X66181000Y-56896000D03*
D12*
G36*
X46933779Y-47532144D02*
X46956834Y-47535563D01*
X46979443Y-47541227D01*
X47001387Y-47549079D01*
X47022457Y-47559044D01*
X47042448Y-47571026D01*
X47061168Y-47584910D01*
X47078438Y-47600562D01*
X47094090Y-47617832D01*
X47107974Y-47636552D01*
X47119956Y-47656543D01*
X47129921Y-47677613D01*
X47137773Y-47699557D01*
X47143437Y-47722166D01*
X47146856Y-47745221D01*
X47148000Y-47768500D01*
X47148000Y-48243500D01*
X47146856Y-48266779D01*
X47143437Y-48289834D01*
X47137773Y-48312443D01*
X47129921Y-48334387D01*
X47119956Y-48355457D01*
X47107974Y-48375448D01*
X47094090Y-48394168D01*
X47078438Y-48411438D01*
X47061168Y-48427090D01*
X47042448Y-48440974D01*
X47022457Y-48452956D01*
X47001387Y-48462921D01*
X46979443Y-48470773D01*
X46956834Y-48476437D01*
X46933779Y-48479856D01*
X46910500Y-48481000D01*
X46335500Y-48481000D01*
X46312221Y-48479856D01*
X46289166Y-48476437D01*
X46266557Y-48470773D01*
X46244613Y-48462921D01*
X46223543Y-48452956D01*
X46203552Y-48440974D01*
X46184832Y-48427090D01*
X46167562Y-48411438D01*
X46151910Y-48394168D01*
X46138026Y-48375448D01*
X46126044Y-48355457D01*
X46116079Y-48334387D01*
X46108227Y-48312443D01*
X46102563Y-48289834D01*
X46099144Y-48266779D01*
X46098000Y-48243500D01*
X46098000Y-47768500D01*
X46099144Y-47745221D01*
X46102563Y-47722166D01*
X46108227Y-47699557D01*
X46116079Y-47677613D01*
X46126044Y-47656543D01*
X46138026Y-47636552D01*
X46151910Y-47617832D01*
X46167562Y-47600562D01*
X46184832Y-47584910D01*
X46203552Y-47571026D01*
X46223543Y-47559044D01*
X46244613Y-47549079D01*
X46266557Y-47541227D01*
X46289166Y-47535563D01*
X46312221Y-47532144D01*
X46335500Y-47531000D01*
X46910500Y-47531000D01*
X46933779Y-47532144D01*
X46933779Y-47532144D01*
G37*
D13*
X46623000Y-48006000D03*
D12*
G36*
X48683779Y-47532144D02*
X48706834Y-47535563D01*
X48729443Y-47541227D01*
X48751387Y-47549079D01*
X48772457Y-47559044D01*
X48792448Y-47571026D01*
X48811168Y-47584910D01*
X48828438Y-47600562D01*
X48844090Y-47617832D01*
X48857974Y-47636552D01*
X48869956Y-47656543D01*
X48879921Y-47677613D01*
X48887773Y-47699557D01*
X48893437Y-47722166D01*
X48896856Y-47745221D01*
X48898000Y-47768500D01*
X48898000Y-48243500D01*
X48896856Y-48266779D01*
X48893437Y-48289834D01*
X48887773Y-48312443D01*
X48879921Y-48334387D01*
X48869956Y-48355457D01*
X48857974Y-48375448D01*
X48844090Y-48394168D01*
X48828438Y-48411438D01*
X48811168Y-48427090D01*
X48792448Y-48440974D01*
X48772457Y-48452956D01*
X48751387Y-48462921D01*
X48729443Y-48470773D01*
X48706834Y-48476437D01*
X48683779Y-48479856D01*
X48660500Y-48481000D01*
X48085500Y-48481000D01*
X48062221Y-48479856D01*
X48039166Y-48476437D01*
X48016557Y-48470773D01*
X47994613Y-48462921D01*
X47973543Y-48452956D01*
X47953552Y-48440974D01*
X47934832Y-48427090D01*
X47917562Y-48411438D01*
X47901910Y-48394168D01*
X47888026Y-48375448D01*
X47876044Y-48355457D01*
X47866079Y-48334387D01*
X47858227Y-48312443D01*
X47852563Y-48289834D01*
X47849144Y-48266779D01*
X47848000Y-48243500D01*
X47848000Y-47768500D01*
X47849144Y-47745221D01*
X47852563Y-47722166D01*
X47858227Y-47699557D01*
X47866079Y-47677613D01*
X47876044Y-47656543D01*
X47888026Y-47636552D01*
X47901910Y-47617832D01*
X47917562Y-47600562D01*
X47934832Y-47584910D01*
X47953552Y-47571026D01*
X47973543Y-47559044D01*
X47994613Y-47549079D01*
X48016557Y-47541227D01*
X48039166Y-47535563D01*
X48062221Y-47532144D01*
X48085500Y-47531000D01*
X48660500Y-47531000D01*
X48683779Y-47532144D01*
X48683779Y-47532144D01*
G37*
D13*
X48373000Y-48006000D03*
D12*
G36*
X48683779Y-49564144D02*
X48706834Y-49567563D01*
X48729443Y-49573227D01*
X48751387Y-49581079D01*
X48772457Y-49591044D01*
X48792448Y-49603026D01*
X48811168Y-49616910D01*
X48828438Y-49632562D01*
X48844090Y-49649832D01*
X48857974Y-49668552D01*
X48869956Y-49688543D01*
X48879921Y-49709613D01*
X48887773Y-49731557D01*
X48893437Y-49754166D01*
X48896856Y-49777221D01*
X48898000Y-49800500D01*
X48898000Y-50275500D01*
X48896856Y-50298779D01*
X48893437Y-50321834D01*
X48887773Y-50344443D01*
X48879921Y-50366387D01*
X48869956Y-50387457D01*
X48857974Y-50407448D01*
X48844090Y-50426168D01*
X48828438Y-50443438D01*
X48811168Y-50459090D01*
X48792448Y-50472974D01*
X48772457Y-50484956D01*
X48751387Y-50494921D01*
X48729443Y-50502773D01*
X48706834Y-50508437D01*
X48683779Y-50511856D01*
X48660500Y-50513000D01*
X48085500Y-50513000D01*
X48062221Y-50511856D01*
X48039166Y-50508437D01*
X48016557Y-50502773D01*
X47994613Y-50494921D01*
X47973543Y-50484956D01*
X47953552Y-50472974D01*
X47934832Y-50459090D01*
X47917562Y-50443438D01*
X47901910Y-50426168D01*
X47888026Y-50407448D01*
X47876044Y-50387457D01*
X47866079Y-50366387D01*
X47858227Y-50344443D01*
X47852563Y-50321834D01*
X47849144Y-50298779D01*
X47848000Y-50275500D01*
X47848000Y-49800500D01*
X47849144Y-49777221D01*
X47852563Y-49754166D01*
X47858227Y-49731557D01*
X47866079Y-49709613D01*
X47876044Y-49688543D01*
X47888026Y-49668552D01*
X47901910Y-49649832D01*
X47917562Y-49632562D01*
X47934832Y-49616910D01*
X47953552Y-49603026D01*
X47973543Y-49591044D01*
X47994613Y-49581079D01*
X48016557Y-49573227D01*
X48039166Y-49567563D01*
X48062221Y-49564144D01*
X48085500Y-49563000D01*
X48660500Y-49563000D01*
X48683779Y-49564144D01*
X48683779Y-49564144D01*
G37*
D13*
X48373000Y-50038000D03*
D12*
G36*
X46933779Y-49564144D02*
X46956834Y-49567563D01*
X46979443Y-49573227D01*
X47001387Y-49581079D01*
X47022457Y-49591044D01*
X47042448Y-49603026D01*
X47061168Y-49616910D01*
X47078438Y-49632562D01*
X47094090Y-49649832D01*
X47107974Y-49668552D01*
X47119956Y-49688543D01*
X47129921Y-49709613D01*
X47137773Y-49731557D01*
X47143437Y-49754166D01*
X47146856Y-49777221D01*
X47148000Y-49800500D01*
X47148000Y-50275500D01*
X47146856Y-50298779D01*
X47143437Y-50321834D01*
X47137773Y-50344443D01*
X47129921Y-50366387D01*
X47119956Y-50387457D01*
X47107974Y-50407448D01*
X47094090Y-50426168D01*
X47078438Y-50443438D01*
X47061168Y-50459090D01*
X47042448Y-50472974D01*
X47022457Y-50484956D01*
X47001387Y-50494921D01*
X46979443Y-50502773D01*
X46956834Y-50508437D01*
X46933779Y-50511856D01*
X46910500Y-50513000D01*
X46335500Y-50513000D01*
X46312221Y-50511856D01*
X46289166Y-50508437D01*
X46266557Y-50502773D01*
X46244613Y-50494921D01*
X46223543Y-50484956D01*
X46203552Y-50472974D01*
X46184832Y-50459090D01*
X46167562Y-50443438D01*
X46151910Y-50426168D01*
X46138026Y-50407448D01*
X46126044Y-50387457D01*
X46116079Y-50366387D01*
X46108227Y-50344443D01*
X46102563Y-50321834D01*
X46099144Y-50298779D01*
X46098000Y-50275500D01*
X46098000Y-49800500D01*
X46099144Y-49777221D01*
X46102563Y-49754166D01*
X46108227Y-49731557D01*
X46116079Y-49709613D01*
X46126044Y-49688543D01*
X46138026Y-49668552D01*
X46151910Y-49649832D01*
X46167562Y-49632562D01*
X46184832Y-49616910D01*
X46203552Y-49603026D01*
X46223543Y-49591044D01*
X46244613Y-49581079D01*
X46266557Y-49573227D01*
X46289166Y-49567563D01*
X46312221Y-49564144D01*
X46335500Y-49563000D01*
X46910500Y-49563000D01*
X46933779Y-49564144D01*
X46933779Y-49564144D01*
G37*
D13*
X46623000Y-50038000D03*
D18*
X61722000Y-48768000D03*
X54102000Y-56388000D03*
X61722000Y-51308000D03*
X54102000Y-53848000D03*
X61722000Y-53848000D03*
X54102000Y-51308000D03*
X61722000Y-56388000D03*
D19*
X54102000Y-48768000D03*
D20*
X54356000Y-41097200D03*
X60198000Y-41148000D03*
D21*
X67931000Y-56896000D02*
X67931000Y-58928000D01*
X65278000Y-58928000D02*
X66181000Y-58928000D01*
X64262000Y-57912000D02*
X65278000Y-58928000D01*
X64262000Y-55988000D02*
X64262000Y-57912000D01*
X61722000Y-53848000D02*
X62122000Y-53848000D01*
X62122000Y-53848000D02*
X64262000Y-55988000D01*
X66181000Y-53453000D02*
X66294000Y-53340000D01*
X66181000Y-56896000D02*
X66181000Y-53453000D01*
X66294000Y-53340000D02*
X66294000Y-48514000D01*
X66294000Y-46002000D02*
X66576000Y-45720000D01*
X66294000Y-48514000D02*
X66294000Y-46002000D01*
X66802000Y-45494000D02*
X66576000Y-45720000D01*
X66802000Y-40640000D02*
X66802000Y-45494000D01*
X46623000Y-45974000D02*
X46623000Y-48006000D01*
X46623000Y-50038000D02*
X46623000Y-48006000D01*
X46623000Y-50038000D02*
X46623000Y-52070000D01*
X48373000Y-52070000D02*
X50038000Y-52070000D01*
X51816000Y-53848000D02*
X54102000Y-53848000D01*
X50038000Y-52070000D02*
X51816000Y-53848000D01*
X61322000Y-51308000D02*
X61722000Y-51308000D01*
X56260999Y-46246999D02*
X61322000Y-51308000D01*
X56260999Y-43002199D02*
X56260999Y-46246999D01*
X54356000Y-41097200D02*
X56260999Y-43002199D01*
X52451001Y-43002199D02*
X52451001Y-45592999D01*
X54356000Y-41097200D02*
X52451001Y-43002199D01*
X50038000Y-48006000D02*
X48373000Y-48006000D01*
X52451001Y-45592999D02*
X50038000Y-48006000D01*
D22*
G36*
X94115001Y-69115000D02*
X40885000Y-69115000D01*
X40885000Y-61871129D01*
X41101000Y-61871129D01*
X41101000Y-64112871D01*
X41958878Y-66183971D01*
X43544029Y-67769122D01*
X45615129Y-68627000D01*
X47856871Y-68627000D01*
X49927971Y-67769122D01*
X51513122Y-66183971D01*
X52371000Y-64112871D01*
X52371000Y-61871129D01*
X81487000Y-61871129D01*
X81487000Y-64112871D01*
X82344878Y-66183971D01*
X83930029Y-67769122D01*
X86001129Y-68627000D01*
X88242871Y-68627000D01*
X90313971Y-67769122D01*
X91899122Y-66183971D01*
X92757000Y-64112871D01*
X92757000Y-61871129D01*
X91899122Y-59800029D01*
X90313971Y-58214878D01*
X88242871Y-57357000D01*
X86001129Y-57357000D01*
X83930029Y-58214878D01*
X82344878Y-59800029D01*
X81487000Y-61871129D01*
X52371000Y-61871129D01*
X51513122Y-59800029D01*
X49927971Y-58214878D01*
X47856871Y-57357000D01*
X45615129Y-57357000D01*
X43544029Y-58214878D01*
X41958878Y-59800029D01*
X41101000Y-61871129D01*
X40885000Y-61871129D01*
X40885000Y-56737039D01*
X52310096Y-56737039D01*
X52327633Y-56819819D01*
X52597500Y-57312896D01*
X53035517Y-57665166D01*
X53575000Y-57823000D01*
X53975000Y-57823000D01*
X53975000Y-56515000D01*
X54229000Y-56515000D01*
X54229000Y-57823000D01*
X54629000Y-57823000D01*
X55168483Y-57665166D01*
X55606500Y-57312896D01*
X55876367Y-56819819D01*
X55893904Y-56737039D01*
X55771915Y-56515000D01*
X54229000Y-56515000D01*
X53975000Y-56515000D01*
X52432085Y-56515000D01*
X52310096Y-56737039D01*
X40885000Y-56737039D01*
X40885000Y-45736500D01*
X45450560Y-45736500D01*
X45450560Y-46211500D01*
X45517922Y-46550152D01*
X45709753Y-46837247D01*
X45734000Y-46853449D01*
X45734001Y-47126551D01*
X45709753Y-47142753D01*
X45517922Y-47429848D01*
X45450560Y-47768500D01*
X45450560Y-48243500D01*
X45517922Y-48582152D01*
X45709753Y-48869247D01*
X45734001Y-48885449D01*
X45734000Y-49158551D01*
X45709753Y-49174753D01*
X45517922Y-49461848D01*
X45450560Y-49800500D01*
X45450560Y-50275500D01*
X45517922Y-50614152D01*
X45709753Y-50901247D01*
X45734000Y-50917449D01*
X45734001Y-51190551D01*
X45709753Y-51206753D01*
X45517922Y-51493848D01*
X45450560Y-51832500D01*
X45450560Y-52307500D01*
X45517922Y-52646152D01*
X45709753Y-52933247D01*
X45996848Y-53125078D01*
X46335500Y-53192440D01*
X46910500Y-53192440D01*
X47249152Y-53125078D01*
X47498000Y-52958803D01*
X47746848Y-53125078D01*
X48085500Y-53192440D01*
X48660500Y-53192440D01*
X48999152Y-53125078D01*
X49247705Y-52959000D01*
X49669765Y-52959000D01*
X51125470Y-54414706D01*
X51175067Y-54488933D01*
X51469130Y-54685419D01*
X51728444Y-54737000D01*
X51728445Y-54737000D01*
X51816000Y-54754416D01*
X51903555Y-54737000D01*
X52570152Y-54737000D01*
X52667423Y-54882577D01*
X53023499Y-55120499D01*
X52597500Y-55463104D01*
X52327633Y-55956181D01*
X52310096Y-56038961D01*
X52432085Y-56261000D01*
X53975000Y-56261000D01*
X53975000Y-56241000D01*
X54229000Y-56241000D01*
X54229000Y-56261000D01*
X55771915Y-56261000D01*
X55893904Y-56038961D01*
X55876367Y-55956181D01*
X55606500Y-55463104D01*
X55180501Y-55120499D01*
X55536577Y-54882577D01*
X55853740Y-54407909D01*
X55965113Y-53848000D01*
X55853740Y-53288091D01*
X55536577Y-52813423D01*
X55184242Y-52578000D01*
X55536577Y-52342577D01*
X55853740Y-51867909D01*
X55965113Y-51308000D01*
X55853740Y-50748091D01*
X55536577Y-50273423D01*
X55415894Y-50192785D01*
X55549765Y-50166157D01*
X55759809Y-50025809D01*
X55900157Y-49815765D01*
X55949440Y-49568000D01*
X55949440Y-47968000D01*
X55900157Y-47720235D01*
X55759809Y-47510191D01*
X55549765Y-47369843D01*
X55302000Y-47320560D01*
X52902000Y-47320560D01*
X52654235Y-47369843D01*
X52444191Y-47510191D01*
X52303843Y-47720235D01*
X52254560Y-47968000D01*
X52254560Y-49568000D01*
X52303843Y-49815765D01*
X52444191Y-50025809D01*
X52654235Y-50166157D01*
X52788106Y-50192785D01*
X52667423Y-50273423D01*
X52350260Y-50748091D01*
X52238887Y-51308000D01*
X52350260Y-51867909D01*
X52667423Y-52342577D01*
X53019758Y-52578000D01*
X52667423Y-52813423D01*
X52570152Y-52959000D01*
X52184236Y-52959000D01*
X50728531Y-51503296D01*
X50678933Y-51429067D01*
X50384870Y-51232581D01*
X50125556Y-51181000D01*
X50125555Y-51181000D01*
X50038000Y-51163584D01*
X49950445Y-51181000D01*
X49247705Y-51181000D01*
X49131727Y-51103506D01*
X49257698Y-51051327D01*
X49436327Y-50872699D01*
X49533000Y-50639310D01*
X49533000Y-50323750D01*
X49374250Y-50165000D01*
X48500000Y-50165000D01*
X48500000Y-50185000D01*
X48246000Y-50185000D01*
X48246000Y-50165000D01*
X48226000Y-50165000D01*
X48226000Y-49911000D01*
X48246000Y-49911000D01*
X48246000Y-49891000D01*
X48500000Y-49891000D01*
X48500000Y-49911000D01*
X49374250Y-49911000D01*
X49533000Y-49752250D01*
X49533000Y-49436690D01*
X49436327Y-49203301D01*
X49257698Y-49024673D01*
X49131727Y-48972494D01*
X49247705Y-48895000D01*
X49950445Y-48895000D01*
X50038000Y-48912416D01*
X50125555Y-48895000D01*
X50125556Y-48895000D01*
X50384870Y-48843419D01*
X50678933Y-48646933D01*
X50728531Y-48572704D01*
X53017708Y-46283528D01*
X53091934Y-46233932D01*
X53288420Y-45939869D01*
X53340001Y-45680555D01*
X53340001Y-45680554D01*
X53357417Y-45592999D01*
X53340001Y-45505444D01*
X53340001Y-43425636D01*
X53850762Y-43637200D01*
X54861238Y-43637200D01*
X55371999Y-43425636D01*
X55372000Y-46159440D01*
X55354583Y-46246999D01*
X55423581Y-46593869D01*
X55544661Y-46775078D01*
X55620067Y-46887932D01*
X55694293Y-46937528D01*
X59893044Y-51136280D01*
X59858887Y-51308000D01*
X59970260Y-51867909D01*
X60287423Y-52342577D01*
X60639758Y-52578000D01*
X60287423Y-52813423D01*
X59970260Y-53288091D01*
X59858887Y-53848000D01*
X59970260Y-54407909D01*
X60287423Y-54882577D01*
X60639758Y-55118000D01*
X60287423Y-55353423D01*
X59970260Y-55828091D01*
X59858887Y-56388000D01*
X59970260Y-56947909D01*
X60287423Y-57422577D01*
X60762091Y-57739740D01*
X61180667Y-57823000D01*
X62263333Y-57823000D01*
X62681909Y-57739740D01*
X63156577Y-57422577D01*
X63373001Y-57098676D01*
X63373001Y-57824441D01*
X63355584Y-57912000D01*
X63391107Y-58090581D01*
X63424582Y-58258870D01*
X63621068Y-58552933D01*
X63695294Y-58602529D01*
X64587471Y-59494706D01*
X64637067Y-59568933D01*
X64931130Y-59765419D01*
X65190444Y-59817000D01*
X65190445Y-59817000D01*
X65278000Y-59834416D01*
X65319889Y-59826084D01*
X65554848Y-59983078D01*
X65893500Y-60050440D01*
X66468500Y-60050440D01*
X66807152Y-59983078D01*
X67056000Y-59816803D01*
X67304848Y-59983078D01*
X67643500Y-60050440D01*
X68218500Y-60050440D01*
X68557152Y-59983078D01*
X68844247Y-59791247D01*
X69036078Y-59504152D01*
X69103440Y-59165500D01*
X69103440Y-58690500D01*
X69036078Y-58351848D01*
X68844247Y-58064753D01*
X68820000Y-58048552D01*
X68820000Y-57775448D01*
X68844247Y-57759247D01*
X69036078Y-57472152D01*
X69103440Y-57133500D01*
X69103440Y-56658500D01*
X69036078Y-56319848D01*
X68844247Y-56032753D01*
X68557152Y-55840922D01*
X68218500Y-55773560D01*
X67643500Y-55773560D01*
X67304848Y-55840922D01*
X67070000Y-55997843D01*
X67070000Y-54887440D01*
X67194000Y-54887440D01*
X67441765Y-54838157D01*
X67651809Y-54697809D01*
X67792157Y-54487765D01*
X67841440Y-54240000D01*
X67841440Y-53704740D01*
X77502964Y-53704740D01*
X77681760Y-54136417D01*
X78086424Y-54577966D01*
X78629258Y-54831046D01*
X78867000Y-54710997D01*
X78867000Y-53467000D01*
X79121000Y-53467000D01*
X79121000Y-54710997D01*
X79358742Y-54831046D01*
X79901576Y-54577966D01*
X80306240Y-54136417D01*
X80485036Y-53704740D01*
X80364378Y-53467000D01*
X79121000Y-53467000D01*
X78867000Y-53467000D01*
X77623622Y-53467000D01*
X77502964Y-53704740D01*
X67841440Y-53704740D01*
X67841440Y-52975260D01*
X77502964Y-52975260D01*
X77623622Y-53213000D01*
X78867000Y-53213000D01*
X78867000Y-51969003D01*
X79121000Y-51969003D01*
X79121000Y-53213000D01*
X80364378Y-53213000D01*
X80485036Y-52975260D01*
X80306240Y-52543583D01*
X79901576Y-52102034D01*
X79358742Y-51848954D01*
X79121000Y-51969003D01*
X78867000Y-51969003D01*
X78629258Y-51848954D01*
X78086424Y-52102034D01*
X77681760Y-52543583D01*
X77502964Y-52975260D01*
X67841440Y-52975260D01*
X67841440Y-52440000D01*
X67792157Y-52192235D01*
X67651809Y-51982191D01*
X67441765Y-51841843D01*
X67194000Y-51792560D01*
X67183000Y-51792560D01*
X67183000Y-49766117D01*
X67400673Y-49620673D01*
X67739938Y-49112927D01*
X67802232Y-48799750D01*
X77459000Y-48799750D01*
X77459000Y-49540310D01*
X77555673Y-49773699D01*
X77734302Y-49952327D01*
X77967691Y-50049000D01*
X78708250Y-50049000D01*
X78867000Y-49890250D01*
X78867000Y-48641000D01*
X79121000Y-48641000D01*
X79121000Y-49890250D01*
X79279750Y-50049000D01*
X80020309Y-50049000D01*
X80253698Y-49952327D01*
X80432327Y-49773699D01*
X80529000Y-49540310D01*
X80529000Y-48799750D01*
X80370250Y-48641000D01*
X79121000Y-48641000D01*
X78867000Y-48641000D01*
X77617750Y-48641000D01*
X77459000Y-48799750D01*
X67802232Y-48799750D01*
X67859072Y-48514000D01*
X67739938Y-47915073D01*
X67454370Y-47487690D01*
X77459000Y-47487690D01*
X77459000Y-48228250D01*
X77617750Y-48387000D01*
X78867000Y-48387000D01*
X78867000Y-47137750D01*
X79121000Y-47137750D01*
X79121000Y-48387000D01*
X80370250Y-48387000D01*
X80529000Y-48228250D01*
X80529000Y-47487690D01*
X80432327Y-47254301D01*
X80253698Y-47075673D01*
X80020309Y-46979000D01*
X79279750Y-46979000D01*
X79121000Y-47137750D01*
X78867000Y-47137750D01*
X78708250Y-46979000D01*
X77967691Y-46979000D01*
X77734302Y-47075673D01*
X77555673Y-47254301D01*
X77459000Y-47487690D01*
X67454370Y-47487690D01*
X67400673Y-47407327D01*
X67183000Y-47261883D01*
X67183000Y-46778888D01*
X67202152Y-46775078D01*
X67370540Y-46662565D01*
X67441302Y-46733327D01*
X67674691Y-46830000D01*
X68040250Y-46830000D01*
X68199000Y-46671250D01*
X68199000Y-45847000D01*
X68453000Y-45847000D01*
X68453000Y-46671250D01*
X68611750Y-46830000D01*
X68977309Y-46830000D01*
X69210698Y-46733327D01*
X69389327Y-46554699D01*
X69486000Y-46321310D01*
X69486000Y-46005750D01*
X69327250Y-45847000D01*
X68453000Y-45847000D01*
X68199000Y-45847000D01*
X68179000Y-45847000D01*
X68179000Y-45593000D01*
X68199000Y-45593000D01*
X68199000Y-44768750D01*
X68453000Y-44768750D01*
X68453000Y-45593000D01*
X69327250Y-45593000D01*
X69486000Y-45434250D01*
X69486000Y-45118690D01*
X69389327Y-44885301D01*
X69210698Y-44706673D01*
X68977309Y-44610000D01*
X68611750Y-44610000D01*
X68453000Y-44768750D01*
X68199000Y-44768750D01*
X68040250Y-44610000D01*
X67691000Y-44610000D01*
X67691000Y-42297666D01*
X67914765Y-42253157D01*
X68124809Y-42112809D01*
X68265157Y-41902765D01*
X68270118Y-41877825D01*
X68756730Y-42202968D01*
X69342000Y-42319386D01*
X69927271Y-42202968D01*
X70423439Y-41871439D01*
X70615929Y-41583357D01*
X70981143Y-41990793D01*
X71509240Y-42244131D01*
X71522754Y-42246346D01*
X71755000Y-42125224D01*
X71755000Y-40767000D01*
X72009000Y-40767000D01*
X72009000Y-42125224D01*
X72241246Y-42246346D01*
X72254760Y-42244131D01*
X72782857Y-41990793D01*
X73173807Y-41554645D01*
X73368091Y-41002087D01*
X73224222Y-40767000D01*
X72009000Y-40767000D01*
X71755000Y-40767000D01*
X71735000Y-40767000D01*
X71735000Y-40513000D01*
X71755000Y-40513000D01*
X71755000Y-39154776D01*
X72009000Y-39154776D01*
X72009000Y-40513000D01*
X73224222Y-40513000D01*
X73368091Y-40277913D01*
X73173807Y-39725355D01*
X73083852Y-39625000D01*
X75195560Y-39625000D01*
X75195560Y-41655000D01*
X75244843Y-41902765D01*
X75385191Y-42112809D01*
X75595235Y-42253157D01*
X75843000Y-42302440D01*
X77573000Y-42302440D01*
X77820765Y-42253157D01*
X78030809Y-42112809D01*
X78171157Y-41902765D01*
X78188787Y-41814130D01*
X78347143Y-41990793D01*
X78875240Y-42244131D01*
X78888754Y-42246346D01*
X79121000Y-42125224D01*
X79121000Y-40767000D01*
X79375000Y-40767000D01*
X79375000Y-42125224D01*
X79607246Y-42246346D01*
X79620760Y-42244131D01*
X80148857Y-41990793D01*
X80518000Y-41578973D01*
X80887143Y-41990793D01*
X81415240Y-42244131D01*
X81428754Y-42246346D01*
X81661000Y-42125224D01*
X81661000Y-40767000D01*
X81915000Y-40767000D01*
X81915000Y-42125224D01*
X82147246Y-42246346D01*
X82160760Y-42244131D01*
X82688857Y-41990793D01*
X83079807Y-41554645D01*
X83274091Y-41002087D01*
X83130222Y-40767000D01*
X81915000Y-40767000D01*
X81661000Y-40767000D01*
X79375000Y-40767000D01*
X79121000Y-40767000D01*
X79101000Y-40767000D01*
X79101000Y-40513000D01*
X79121000Y-40513000D01*
X79121000Y-39154776D01*
X79375000Y-39154776D01*
X79375000Y-40513000D01*
X81661000Y-40513000D01*
X81661000Y-39154776D01*
X81915000Y-39154776D01*
X81915000Y-40513000D01*
X83130222Y-40513000D01*
X83274091Y-40277913D01*
X83079807Y-39725355D01*
X82989852Y-39625000D01*
X85355560Y-39625000D01*
X85355560Y-41655000D01*
X85404843Y-41902765D01*
X85545191Y-42112809D01*
X85755235Y-42253157D01*
X86003000Y-42302440D01*
X87733000Y-42302440D01*
X87980765Y-42253157D01*
X88190809Y-42112809D01*
X88331157Y-41902765D01*
X88348787Y-41814130D01*
X88507143Y-41990793D01*
X89035240Y-42244131D01*
X89048754Y-42246346D01*
X89281000Y-42125224D01*
X89281000Y-40767000D01*
X89535000Y-40767000D01*
X89535000Y-42125224D01*
X89767246Y-42246346D01*
X89780760Y-42244131D01*
X90308857Y-41990793D01*
X90678000Y-41578973D01*
X91047143Y-41990793D01*
X91575240Y-42244131D01*
X91588754Y-42246346D01*
X91821000Y-42125224D01*
X91821000Y-40767000D01*
X92075000Y-40767000D01*
X92075000Y-42125224D01*
X92307246Y-42246346D01*
X92320760Y-42244131D01*
X92848857Y-41990793D01*
X93239807Y-41554645D01*
X93434091Y-41002087D01*
X93290222Y-40767000D01*
X92075000Y-40767000D01*
X91821000Y-40767000D01*
X89535000Y-40767000D01*
X89281000Y-40767000D01*
X89261000Y-40767000D01*
X89261000Y-40513000D01*
X89281000Y-40513000D01*
X89281000Y-39154776D01*
X89535000Y-39154776D01*
X89535000Y-40513000D01*
X91821000Y-40513000D01*
X91821000Y-39154776D01*
X92075000Y-39154776D01*
X92075000Y-40513000D01*
X93290222Y-40513000D01*
X93434091Y-40277913D01*
X93239807Y-39725355D01*
X92848857Y-39289207D01*
X92320760Y-39035869D01*
X92307246Y-39033654D01*
X92075000Y-39154776D01*
X91821000Y-39154776D01*
X91588754Y-39033654D01*
X91575240Y-39035869D01*
X91047143Y-39289207D01*
X90678000Y-39701027D01*
X90308857Y-39289207D01*
X89780760Y-39035869D01*
X89767246Y-39033654D01*
X89535000Y-39154776D01*
X89281000Y-39154776D01*
X89048754Y-39033654D01*
X89035240Y-39035869D01*
X88507143Y-39289207D01*
X88348787Y-39465870D01*
X88331157Y-39377235D01*
X88190809Y-39167191D01*
X87980765Y-39026843D01*
X87733000Y-38977560D01*
X86003000Y-38977560D01*
X85755235Y-39026843D01*
X85545191Y-39167191D01*
X85404843Y-39377235D01*
X85355560Y-39625000D01*
X82989852Y-39625000D01*
X82688857Y-39289207D01*
X82160760Y-39035869D01*
X82147246Y-39033654D01*
X81915000Y-39154776D01*
X81661000Y-39154776D01*
X81428754Y-39033654D01*
X81415240Y-39035869D01*
X80887143Y-39289207D01*
X80518000Y-39701027D01*
X80148857Y-39289207D01*
X79620760Y-39035869D01*
X79607246Y-39033654D01*
X79375000Y-39154776D01*
X79121000Y-39154776D01*
X78888754Y-39033654D01*
X78875240Y-39035869D01*
X78347143Y-39289207D01*
X78188787Y-39465870D01*
X78171157Y-39377235D01*
X78030809Y-39167191D01*
X77820765Y-39026843D01*
X77573000Y-38977560D01*
X75843000Y-38977560D01*
X75595235Y-39026843D01*
X75385191Y-39167191D01*
X75244843Y-39377235D01*
X75195560Y-39625000D01*
X73083852Y-39625000D01*
X72782857Y-39289207D01*
X72254760Y-39035869D01*
X72241246Y-39033654D01*
X72009000Y-39154776D01*
X71755000Y-39154776D01*
X71522754Y-39033654D01*
X71509240Y-39035869D01*
X70981143Y-39289207D01*
X70615929Y-39696643D01*
X70423439Y-39408561D01*
X69927270Y-39077032D01*
X69342000Y-38960614D01*
X68756729Y-39077032D01*
X68270118Y-39402175D01*
X68265157Y-39377235D01*
X68124809Y-39167191D01*
X67914765Y-39026843D01*
X67667000Y-38977560D01*
X65937000Y-38977560D01*
X65689235Y-39026843D01*
X65479191Y-39167191D01*
X65338843Y-39377235D01*
X65289560Y-39625000D01*
X65289560Y-41655000D01*
X65338843Y-41902765D01*
X65479191Y-42112809D01*
X65689235Y-42253157D01*
X65913000Y-42297666D01*
X65913001Y-44689543D01*
X65662753Y-44856753D01*
X65470922Y-45143848D01*
X65403560Y-45482500D01*
X65403560Y-45921685D01*
X65387584Y-46002000D01*
X65405001Y-46089559D01*
X65405000Y-47261882D01*
X65187327Y-47407327D01*
X64848062Y-47915073D01*
X64728928Y-48514000D01*
X64848062Y-49112927D01*
X65187327Y-49620673D01*
X65405001Y-49766118D01*
X65405000Y-51792560D01*
X65394000Y-51792560D01*
X65146235Y-51841843D01*
X64936191Y-51982191D01*
X64795843Y-52192235D01*
X64746560Y-52440000D01*
X64746560Y-54240000D01*
X64795843Y-54487765D01*
X64936191Y-54697809D01*
X65146235Y-54838157D01*
X65292001Y-54867151D01*
X65292000Y-56016551D01*
X65267753Y-56032753D01*
X65151000Y-56207486D01*
X65151000Y-56075554D01*
X65168416Y-55987999D01*
X65125761Y-55773560D01*
X65099419Y-55641130D01*
X64902933Y-55347067D01*
X64828707Y-55297471D01*
X63550956Y-54019720D01*
X63585113Y-53848000D01*
X63473740Y-53288091D01*
X63156577Y-52813423D01*
X62804242Y-52578000D01*
X63156577Y-52342577D01*
X63473740Y-51867909D01*
X63585113Y-51308000D01*
X63473740Y-50748091D01*
X63156577Y-50273423D01*
X62804242Y-50038000D01*
X63156577Y-49802577D01*
X63473740Y-49327909D01*
X63585113Y-48768000D01*
X63473740Y-48208091D01*
X63156577Y-47733423D01*
X62681909Y-47416260D01*
X62263333Y-47333000D01*
X61180667Y-47333000D01*
X60762091Y-47416260D01*
X60287423Y-47733423D01*
X59970260Y-48208091D01*
X59888809Y-48617573D01*
X57149999Y-45878764D01*
X57149999Y-43089749D01*
X57167414Y-43002198D01*
X57157915Y-42954440D01*
X58571165Y-42954440D01*
X58780353Y-43315289D01*
X59717650Y-43692824D01*
X60728077Y-43682933D01*
X61615647Y-43315289D01*
X61824835Y-42954440D01*
X60198000Y-41327605D01*
X58571165Y-42954440D01*
X57157915Y-42954440D01*
X57149999Y-42914647D01*
X57149999Y-42914643D01*
X57098418Y-42655329D01*
X56901932Y-42361266D01*
X56827706Y-42311670D01*
X56668268Y-42152232D01*
X56896000Y-41602438D01*
X56896000Y-40667650D01*
X57653176Y-40667650D01*
X57663067Y-41678077D01*
X58030711Y-42565647D01*
X58391560Y-42774835D01*
X60018395Y-41148000D01*
X60377605Y-41148000D01*
X62004440Y-42774835D01*
X62365289Y-42565647D01*
X62742824Y-41628350D01*
X62732933Y-40617923D01*
X62365289Y-39730353D01*
X62004440Y-39521165D01*
X60377605Y-41148000D01*
X60018395Y-41148000D01*
X58391560Y-39521165D01*
X58030711Y-39730353D01*
X57653176Y-40667650D01*
X56896000Y-40667650D01*
X56896000Y-40591962D01*
X56509308Y-39658405D01*
X56192463Y-39341560D01*
X58571165Y-39341560D01*
X60198000Y-40968395D01*
X61824835Y-39341560D01*
X61615647Y-38980711D01*
X60678350Y-38603176D01*
X59667923Y-38613067D01*
X58780353Y-38980711D01*
X58571165Y-39341560D01*
X56192463Y-39341560D01*
X55794795Y-38943892D01*
X54861238Y-38557200D01*
X53850762Y-38557200D01*
X52917205Y-38943892D01*
X52202692Y-39658405D01*
X51816000Y-40591962D01*
X51816000Y-41602438D01*
X52043732Y-42152233D01*
X51884297Y-42311668D01*
X51810068Y-42361266D01*
X51613582Y-42655330D01*
X51589811Y-42774835D01*
X51544585Y-43002199D01*
X51562001Y-43089754D01*
X51562002Y-45224762D01*
X49669765Y-47117000D01*
X49247705Y-47117000D01*
X49131727Y-47039506D01*
X49257698Y-46987327D01*
X49436327Y-46808699D01*
X49533000Y-46575310D01*
X49533000Y-46259750D01*
X49374250Y-46101000D01*
X48500000Y-46101000D01*
X48500000Y-46121000D01*
X48246000Y-46121000D01*
X48246000Y-46101000D01*
X48226000Y-46101000D01*
X48226000Y-45847000D01*
X48246000Y-45847000D01*
X48246000Y-45022750D01*
X48500000Y-45022750D01*
X48500000Y-45847000D01*
X49374250Y-45847000D01*
X49533000Y-45688250D01*
X49533000Y-45372690D01*
X49436327Y-45139301D01*
X49257698Y-44960673D01*
X49024309Y-44864000D01*
X48658750Y-44864000D01*
X48500000Y-45022750D01*
X48246000Y-45022750D01*
X48087250Y-44864000D01*
X47721691Y-44864000D01*
X47488302Y-44960673D01*
X47417540Y-45031435D01*
X47249152Y-44918922D01*
X46910500Y-44851560D01*
X46335500Y-44851560D01*
X45996848Y-44918922D01*
X45709753Y-45110753D01*
X45517922Y-45397848D01*
X45450560Y-45736500D01*
X40885000Y-45736500D01*
X40885000Y-40671750D01*
X42188000Y-40671750D01*
X42188000Y-41527309D01*
X42284673Y-41760698D01*
X42463301Y-41939327D01*
X42696690Y-42036000D01*
X43402250Y-42036000D01*
X43561000Y-41877250D01*
X43561000Y-40513000D01*
X43815000Y-40513000D01*
X43815000Y-41877250D01*
X43973750Y-42036000D01*
X44679310Y-42036000D01*
X44912699Y-41939327D01*
X45091327Y-41760698D01*
X45172630Y-41564416D01*
X45327143Y-41736793D01*
X45855240Y-41990131D01*
X45868754Y-41992346D01*
X46101000Y-41871224D01*
X46101000Y-40513000D01*
X43815000Y-40513000D01*
X43561000Y-40513000D01*
X42346750Y-40513000D01*
X42188000Y-40671750D01*
X40885000Y-40671750D01*
X40885000Y-39244691D01*
X42188000Y-39244691D01*
X42188000Y-40100250D01*
X42346750Y-40259000D01*
X43561000Y-40259000D01*
X43561000Y-38894750D01*
X43815000Y-38894750D01*
X43815000Y-40259000D01*
X46101000Y-40259000D01*
X46101000Y-38900776D01*
X46355000Y-38900776D01*
X46355000Y-40259000D01*
X46375000Y-40259000D01*
X46375000Y-40513000D01*
X46355000Y-40513000D01*
X46355000Y-41871224D01*
X46587246Y-41992346D01*
X46600760Y-41990131D01*
X47128857Y-41736793D01*
X47494071Y-41329357D01*
X47686561Y-41617439D01*
X48182730Y-41948968D01*
X48768000Y-42065386D01*
X49353271Y-41948968D01*
X49849439Y-41617439D01*
X50180968Y-41121270D01*
X50268000Y-40683732D01*
X50268000Y-40088267D01*
X50180968Y-39650729D01*
X49849439Y-39154561D01*
X49353270Y-38823032D01*
X48768000Y-38706614D01*
X48182729Y-38823032D01*
X47686561Y-39154561D01*
X47494071Y-39442643D01*
X47128857Y-39035207D01*
X46600760Y-38781869D01*
X46587246Y-38779654D01*
X46355000Y-38900776D01*
X46101000Y-38900776D01*
X45868754Y-38779654D01*
X45855240Y-38781869D01*
X45327143Y-39035207D01*
X45172630Y-39207584D01*
X45091327Y-39011302D01*
X44912699Y-38832673D01*
X44679310Y-38736000D01*
X43973750Y-38736000D01*
X43815000Y-38894750D01*
X43561000Y-38894750D01*
X43402250Y-38736000D01*
X42696690Y-38736000D01*
X42463301Y-38832673D01*
X42284673Y-39011302D01*
X42188000Y-39244691D01*
X40885000Y-39244691D01*
X40885000Y-36885000D01*
X94115000Y-36885000D01*
X94115001Y-69115000D01*
X94115001Y-69115000D01*
G37*
X94115001Y-69115000D02*
X40885000Y-69115000D01*
X40885000Y-61871129D01*
X41101000Y-61871129D01*
X41101000Y-64112871D01*
X41958878Y-66183971D01*
X43544029Y-67769122D01*
X45615129Y-68627000D01*
X47856871Y-68627000D01*
X49927971Y-67769122D01*
X51513122Y-66183971D01*
X52371000Y-64112871D01*
X52371000Y-61871129D01*
X81487000Y-61871129D01*
X81487000Y-64112871D01*
X82344878Y-66183971D01*
X83930029Y-67769122D01*
X86001129Y-68627000D01*
X88242871Y-68627000D01*
X90313971Y-67769122D01*
X91899122Y-66183971D01*
X92757000Y-64112871D01*
X92757000Y-61871129D01*
X91899122Y-59800029D01*
X90313971Y-58214878D01*
X88242871Y-57357000D01*
X86001129Y-57357000D01*
X83930029Y-58214878D01*
X82344878Y-59800029D01*
X81487000Y-61871129D01*
X52371000Y-61871129D01*
X51513122Y-59800029D01*
X49927971Y-58214878D01*
X47856871Y-57357000D01*
X45615129Y-57357000D01*
X43544029Y-58214878D01*
X41958878Y-59800029D01*
X41101000Y-61871129D01*
X40885000Y-61871129D01*
X40885000Y-56737039D01*
X52310096Y-56737039D01*
X52327633Y-56819819D01*
X52597500Y-57312896D01*
X53035517Y-57665166D01*
X53575000Y-57823000D01*
X53975000Y-57823000D01*
X53975000Y-56515000D01*
X54229000Y-56515000D01*
X54229000Y-57823000D01*
X54629000Y-57823000D01*
X55168483Y-57665166D01*
X55606500Y-57312896D01*
X55876367Y-56819819D01*
X55893904Y-56737039D01*
X55771915Y-56515000D01*
X54229000Y-56515000D01*
X53975000Y-56515000D01*
X52432085Y-56515000D01*
X52310096Y-56737039D01*
X40885000Y-56737039D01*
X40885000Y-45736500D01*
X45450560Y-45736500D01*
X45450560Y-46211500D01*
X45517922Y-46550152D01*
X45709753Y-46837247D01*
X45734000Y-46853449D01*
X45734001Y-47126551D01*
X45709753Y-47142753D01*
X45517922Y-47429848D01*
X45450560Y-47768500D01*
X45450560Y-48243500D01*
X45517922Y-48582152D01*
X45709753Y-48869247D01*
X45734001Y-48885449D01*
X45734000Y-49158551D01*
X45709753Y-49174753D01*
X45517922Y-49461848D01*
X45450560Y-49800500D01*
X45450560Y-50275500D01*
X45517922Y-50614152D01*
X45709753Y-50901247D01*
X45734000Y-50917449D01*
X45734001Y-51190551D01*
X45709753Y-51206753D01*
X45517922Y-51493848D01*
X45450560Y-51832500D01*
X45450560Y-52307500D01*
X45517922Y-52646152D01*
X45709753Y-52933247D01*
X45996848Y-53125078D01*
X46335500Y-53192440D01*
X46910500Y-53192440D01*
X47249152Y-53125078D01*
X47498000Y-52958803D01*
X47746848Y-53125078D01*
X48085500Y-53192440D01*
X48660500Y-53192440D01*
X48999152Y-53125078D01*
X49247705Y-52959000D01*
X49669765Y-52959000D01*
X51125470Y-54414706D01*
X51175067Y-54488933D01*
X51469130Y-54685419D01*
X51728444Y-54737000D01*
X51728445Y-54737000D01*
X51816000Y-54754416D01*
X51903555Y-54737000D01*
X52570152Y-54737000D01*
X52667423Y-54882577D01*
X53023499Y-55120499D01*
X52597500Y-55463104D01*
X52327633Y-55956181D01*
X52310096Y-56038961D01*
X52432085Y-56261000D01*
X53975000Y-56261000D01*
X53975000Y-56241000D01*
X54229000Y-56241000D01*
X54229000Y-56261000D01*
X55771915Y-56261000D01*
X55893904Y-56038961D01*
X55876367Y-55956181D01*
X55606500Y-55463104D01*
X55180501Y-55120499D01*
X55536577Y-54882577D01*
X55853740Y-54407909D01*
X55965113Y-53848000D01*
X55853740Y-53288091D01*
X55536577Y-52813423D01*
X55184242Y-52578000D01*
X55536577Y-52342577D01*
X55853740Y-51867909D01*
X55965113Y-51308000D01*
X55853740Y-50748091D01*
X55536577Y-50273423D01*
X55415894Y-50192785D01*
X55549765Y-50166157D01*
X55759809Y-50025809D01*
X55900157Y-49815765D01*
X55949440Y-49568000D01*
X55949440Y-47968000D01*
X55900157Y-47720235D01*
X55759809Y-47510191D01*
X55549765Y-47369843D01*
X55302000Y-47320560D01*
X52902000Y-47320560D01*
X52654235Y-47369843D01*
X52444191Y-47510191D01*
X52303843Y-47720235D01*
X52254560Y-47968000D01*
X52254560Y-49568000D01*
X52303843Y-49815765D01*
X52444191Y-50025809D01*
X52654235Y-50166157D01*
X52788106Y-50192785D01*
X52667423Y-50273423D01*
X52350260Y-50748091D01*
X52238887Y-51308000D01*
X52350260Y-51867909D01*
X52667423Y-52342577D01*
X53019758Y-52578000D01*
X52667423Y-52813423D01*
X52570152Y-52959000D01*
X52184236Y-52959000D01*
X50728531Y-51503296D01*
X50678933Y-51429067D01*
X50384870Y-51232581D01*
X50125556Y-51181000D01*
X50125555Y-51181000D01*
X50038000Y-51163584D01*
X49950445Y-51181000D01*
X49247705Y-51181000D01*
X49131727Y-51103506D01*
X49257698Y-51051327D01*
X49436327Y-50872699D01*
X49533000Y-50639310D01*
X49533000Y-50323750D01*
X49374250Y-50165000D01*
X48500000Y-50165000D01*
X48500000Y-50185000D01*
X48246000Y-50185000D01*
X48246000Y-50165000D01*
X48226000Y-50165000D01*
X48226000Y-49911000D01*
X48246000Y-49911000D01*
X48246000Y-49891000D01*
X48500000Y-49891000D01*
X48500000Y-49911000D01*
X49374250Y-49911000D01*
X49533000Y-49752250D01*
X49533000Y-49436690D01*
X49436327Y-49203301D01*
X49257698Y-49024673D01*
X49131727Y-48972494D01*
X49247705Y-48895000D01*
X49950445Y-48895000D01*
X50038000Y-48912416D01*
X50125555Y-48895000D01*
X50125556Y-48895000D01*
X50384870Y-48843419D01*
X50678933Y-48646933D01*
X50728531Y-48572704D01*
X53017708Y-46283528D01*
X53091934Y-46233932D01*
X53288420Y-45939869D01*
X53340001Y-45680555D01*
X53340001Y-45680554D01*
X53357417Y-45592999D01*
X53340001Y-45505444D01*
X53340001Y-43425636D01*
X53850762Y-43637200D01*
X54861238Y-43637200D01*
X55371999Y-43425636D01*
X55372000Y-46159440D01*
X55354583Y-46246999D01*
X55423581Y-46593869D01*
X55544661Y-46775078D01*
X55620067Y-46887932D01*
X55694293Y-46937528D01*
X59893044Y-51136280D01*
X59858887Y-51308000D01*
X59970260Y-51867909D01*
X60287423Y-52342577D01*
X60639758Y-52578000D01*
X60287423Y-52813423D01*
X59970260Y-53288091D01*
X59858887Y-53848000D01*
X59970260Y-54407909D01*
X60287423Y-54882577D01*
X60639758Y-55118000D01*
X60287423Y-55353423D01*
X59970260Y-55828091D01*
X59858887Y-56388000D01*
X59970260Y-56947909D01*
X60287423Y-57422577D01*
X60762091Y-57739740D01*
X61180667Y-57823000D01*
X62263333Y-57823000D01*
X62681909Y-57739740D01*
X63156577Y-57422577D01*
X63373001Y-57098676D01*
X63373001Y-57824441D01*
X63355584Y-57912000D01*
X63391107Y-58090581D01*
X63424582Y-58258870D01*
X63621068Y-58552933D01*
X63695294Y-58602529D01*
X64587471Y-59494706D01*
X64637067Y-59568933D01*
X64931130Y-59765419D01*
X65190444Y-59817000D01*
X65190445Y-59817000D01*
X65278000Y-59834416D01*
X65319889Y-59826084D01*
X65554848Y-59983078D01*
X65893500Y-60050440D01*
X66468500Y-60050440D01*
X66807152Y-59983078D01*
X67056000Y-59816803D01*
X67304848Y-59983078D01*
X67643500Y-60050440D01*
X68218500Y-60050440D01*
X68557152Y-59983078D01*
X68844247Y-59791247D01*
X69036078Y-59504152D01*
X69103440Y-59165500D01*
X69103440Y-58690500D01*
X69036078Y-58351848D01*
X68844247Y-58064753D01*
X68820000Y-58048552D01*
X68820000Y-57775448D01*
X68844247Y-57759247D01*
X69036078Y-57472152D01*
X69103440Y-57133500D01*
X69103440Y-56658500D01*
X69036078Y-56319848D01*
X68844247Y-56032753D01*
X68557152Y-55840922D01*
X68218500Y-55773560D01*
X67643500Y-55773560D01*
X67304848Y-55840922D01*
X67070000Y-55997843D01*
X67070000Y-54887440D01*
X67194000Y-54887440D01*
X67441765Y-54838157D01*
X67651809Y-54697809D01*
X67792157Y-54487765D01*
X67841440Y-54240000D01*
X67841440Y-53704740D01*
X77502964Y-53704740D01*
X77681760Y-54136417D01*
X78086424Y-54577966D01*
X78629258Y-54831046D01*
X78867000Y-54710997D01*
X78867000Y-53467000D01*
X79121000Y-53467000D01*
X79121000Y-54710997D01*
X79358742Y-54831046D01*
X79901576Y-54577966D01*
X80306240Y-54136417D01*
X80485036Y-53704740D01*
X80364378Y-53467000D01*
X79121000Y-53467000D01*
X78867000Y-53467000D01*
X77623622Y-53467000D01*
X77502964Y-53704740D01*
X67841440Y-53704740D01*
X67841440Y-52975260D01*
X77502964Y-52975260D01*
X77623622Y-53213000D01*
X78867000Y-53213000D01*
X78867000Y-51969003D01*
X79121000Y-51969003D01*
X79121000Y-53213000D01*
X80364378Y-53213000D01*
X80485036Y-52975260D01*
X80306240Y-52543583D01*
X79901576Y-52102034D01*
X79358742Y-51848954D01*
X79121000Y-51969003D01*
X78867000Y-51969003D01*
X78629258Y-51848954D01*
X78086424Y-52102034D01*
X77681760Y-52543583D01*
X77502964Y-52975260D01*
X67841440Y-52975260D01*
X67841440Y-52440000D01*
X67792157Y-52192235D01*
X67651809Y-51982191D01*
X67441765Y-51841843D01*
X67194000Y-51792560D01*
X67183000Y-51792560D01*
X67183000Y-49766117D01*
X67400673Y-49620673D01*
X67739938Y-49112927D01*
X67802232Y-48799750D01*
X77459000Y-48799750D01*
X77459000Y-49540310D01*
X77555673Y-49773699D01*
X77734302Y-49952327D01*
X77967691Y-50049000D01*
X78708250Y-50049000D01*
X78867000Y-49890250D01*
X78867000Y-48641000D01*
X79121000Y-48641000D01*
X79121000Y-49890250D01*
X79279750Y-50049000D01*
X80020309Y-50049000D01*
X80253698Y-49952327D01*
X80432327Y-49773699D01*
X80529000Y-49540310D01*
X80529000Y-48799750D01*
X80370250Y-48641000D01*
X79121000Y-48641000D01*
X78867000Y-48641000D01*
X77617750Y-48641000D01*
X77459000Y-48799750D01*
X67802232Y-48799750D01*
X67859072Y-48514000D01*
X67739938Y-47915073D01*
X67454370Y-47487690D01*
X77459000Y-47487690D01*
X77459000Y-48228250D01*
X77617750Y-48387000D01*
X78867000Y-48387000D01*
X78867000Y-47137750D01*
X79121000Y-47137750D01*
X79121000Y-48387000D01*
X80370250Y-48387000D01*
X80529000Y-48228250D01*
X80529000Y-47487690D01*
X80432327Y-47254301D01*
X80253698Y-47075673D01*
X80020309Y-46979000D01*
X79279750Y-46979000D01*
X79121000Y-47137750D01*
X78867000Y-47137750D01*
X78708250Y-46979000D01*
X77967691Y-46979000D01*
X77734302Y-47075673D01*
X77555673Y-47254301D01*
X77459000Y-47487690D01*
X67454370Y-47487690D01*
X67400673Y-47407327D01*
X67183000Y-47261883D01*
X67183000Y-46778888D01*
X67202152Y-46775078D01*
X67370540Y-46662565D01*
X67441302Y-46733327D01*
X67674691Y-46830000D01*
X68040250Y-46830000D01*
X68199000Y-46671250D01*
X68199000Y-45847000D01*
X68453000Y-45847000D01*
X68453000Y-46671250D01*
X68611750Y-46830000D01*
X68977309Y-46830000D01*
X69210698Y-46733327D01*
X69389327Y-46554699D01*
X69486000Y-46321310D01*
X69486000Y-46005750D01*
X69327250Y-45847000D01*
X68453000Y-45847000D01*
X68199000Y-45847000D01*
X68179000Y-45847000D01*
X68179000Y-45593000D01*
X68199000Y-45593000D01*
X68199000Y-44768750D01*
X68453000Y-44768750D01*
X68453000Y-45593000D01*
X69327250Y-45593000D01*
X69486000Y-45434250D01*
X69486000Y-45118690D01*
X69389327Y-44885301D01*
X69210698Y-44706673D01*
X68977309Y-44610000D01*
X68611750Y-44610000D01*
X68453000Y-44768750D01*
X68199000Y-44768750D01*
X68040250Y-44610000D01*
X67691000Y-44610000D01*
X67691000Y-42297666D01*
X67914765Y-42253157D01*
X68124809Y-42112809D01*
X68265157Y-41902765D01*
X68270118Y-41877825D01*
X68756730Y-42202968D01*
X69342000Y-42319386D01*
X69927271Y-42202968D01*
X70423439Y-41871439D01*
X70615929Y-41583357D01*
X70981143Y-41990793D01*
X71509240Y-42244131D01*
X71522754Y-42246346D01*
X71755000Y-42125224D01*
X71755000Y-40767000D01*
X72009000Y-40767000D01*
X72009000Y-42125224D01*
X72241246Y-42246346D01*
X72254760Y-42244131D01*
X72782857Y-41990793D01*
X73173807Y-41554645D01*
X73368091Y-41002087D01*
X73224222Y-40767000D01*
X72009000Y-40767000D01*
X71755000Y-40767000D01*
X71735000Y-40767000D01*
X71735000Y-40513000D01*
X71755000Y-40513000D01*
X71755000Y-39154776D01*
X72009000Y-39154776D01*
X72009000Y-40513000D01*
X73224222Y-40513000D01*
X73368091Y-40277913D01*
X73173807Y-39725355D01*
X73083852Y-39625000D01*
X75195560Y-39625000D01*
X75195560Y-41655000D01*
X75244843Y-41902765D01*
X75385191Y-42112809D01*
X75595235Y-42253157D01*
X75843000Y-42302440D01*
X77573000Y-42302440D01*
X77820765Y-42253157D01*
X78030809Y-42112809D01*
X78171157Y-41902765D01*
X78188787Y-41814130D01*
X78347143Y-41990793D01*
X78875240Y-42244131D01*
X78888754Y-42246346D01*
X79121000Y-42125224D01*
X79121000Y-40767000D01*
X79375000Y-40767000D01*
X79375000Y-42125224D01*
X79607246Y-42246346D01*
X79620760Y-42244131D01*
X80148857Y-41990793D01*
X80518000Y-41578973D01*
X80887143Y-41990793D01*
X81415240Y-42244131D01*
X81428754Y-42246346D01*
X81661000Y-42125224D01*
X81661000Y-40767000D01*
X81915000Y-40767000D01*
X81915000Y-42125224D01*
X82147246Y-42246346D01*
X82160760Y-42244131D01*
X82688857Y-41990793D01*
X83079807Y-41554645D01*
X83274091Y-41002087D01*
X83130222Y-40767000D01*
X81915000Y-40767000D01*
X81661000Y-40767000D01*
X79375000Y-40767000D01*
X79121000Y-40767000D01*
X79101000Y-40767000D01*
X79101000Y-40513000D01*
X79121000Y-40513000D01*
X79121000Y-39154776D01*
X79375000Y-39154776D01*
X79375000Y-40513000D01*
X81661000Y-40513000D01*
X81661000Y-39154776D01*
X81915000Y-39154776D01*
X81915000Y-40513000D01*
X83130222Y-40513000D01*
X83274091Y-40277913D01*
X83079807Y-39725355D01*
X82989852Y-39625000D01*
X85355560Y-39625000D01*
X85355560Y-41655000D01*
X85404843Y-41902765D01*
X85545191Y-42112809D01*
X85755235Y-42253157D01*
X86003000Y-42302440D01*
X87733000Y-42302440D01*
X87980765Y-42253157D01*
X88190809Y-42112809D01*
X88331157Y-41902765D01*
X88348787Y-41814130D01*
X88507143Y-41990793D01*
X89035240Y-42244131D01*
X89048754Y-42246346D01*
X89281000Y-42125224D01*
X89281000Y-40767000D01*
X89535000Y-40767000D01*
X89535000Y-42125224D01*
X89767246Y-42246346D01*
X89780760Y-42244131D01*
X90308857Y-41990793D01*
X90678000Y-41578973D01*
X91047143Y-41990793D01*
X91575240Y-42244131D01*
X91588754Y-42246346D01*
X91821000Y-42125224D01*
X91821000Y-40767000D01*
X92075000Y-40767000D01*
X92075000Y-42125224D01*
X92307246Y-42246346D01*
X92320760Y-42244131D01*
X92848857Y-41990793D01*
X93239807Y-41554645D01*
X93434091Y-41002087D01*
X93290222Y-40767000D01*
X92075000Y-40767000D01*
X91821000Y-40767000D01*
X89535000Y-40767000D01*
X89281000Y-40767000D01*
X89261000Y-40767000D01*
X89261000Y-40513000D01*
X89281000Y-40513000D01*
X89281000Y-39154776D01*
X89535000Y-39154776D01*
X89535000Y-40513000D01*
X91821000Y-40513000D01*
X91821000Y-39154776D01*
X92075000Y-39154776D01*
X92075000Y-40513000D01*
X93290222Y-40513000D01*
X93434091Y-40277913D01*
X93239807Y-39725355D01*
X92848857Y-39289207D01*
X92320760Y-39035869D01*
X92307246Y-39033654D01*
X92075000Y-39154776D01*
X91821000Y-39154776D01*
X91588754Y-39033654D01*
X91575240Y-39035869D01*
X91047143Y-39289207D01*
X90678000Y-39701027D01*
X90308857Y-39289207D01*
X89780760Y-39035869D01*
X89767246Y-39033654D01*
X89535000Y-39154776D01*
X89281000Y-39154776D01*
X89048754Y-39033654D01*
X89035240Y-39035869D01*
X88507143Y-39289207D01*
X88348787Y-39465870D01*
X88331157Y-39377235D01*
X88190809Y-39167191D01*
X87980765Y-39026843D01*
X87733000Y-38977560D01*
X86003000Y-38977560D01*
X85755235Y-39026843D01*
X85545191Y-39167191D01*
X85404843Y-39377235D01*
X85355560Y-39625000D01*
X82989852Y-39625000D01*
X82688857Y-39289207D01*
X82160760Y-39035869D01*
X82147246Y-39033654D01*
X81915000Y-39154776D01*
X81661000Y-39154776D01*
X81428754Y-39033654D01*
X81415240Y-39035869D01*
X80887143Y-39289207D01*
X80518000Y-39701027D01*
X80148857Y-39289207D01*
X79620760Y-39035869D01*
X79607246Y-39033654D01*
X79375000Y-39154776D01*
X79121000Y-39154776D01*
X78888754Y-39033654D01*
X78875240Y-39035869D01*
X78347143Y-39289207D01*
X78188787Y-39465870D01*
X78171157Y-39377235D01*
X78030809Y-39167191D01*
X77820765Y-39026843D01*
X77573000Y-38977560D01*
X75843000Y-38977560D01*
X75595235Y-39026843D01*
X75385191Y-39167191D01*
X75244843Y-39377235D01*
X75195560Y-39625000D01*
X73083852Y-39625000D01*
X72782857Y-39289207D01*
X72254760Y-39035869D01*
X72241246Y-39033654D01*
X72009000Y-39154776D01*
X71755000Y-39154776D01*
X71522754Y-39033654D01*
X71509240Y-39035869D01*
X70981143Y-39289207D01*
X70615929Y-39696643D01*
X70423439Y-39408561D01*
X69927270Y-39077032D01*
X69342000Y-38960614D01*
X68756729Y-39077032D01*
X68270118Y-39402175D01*
X68265157Y-39377235D01*
X68124809Y-39167191D01*
X67914765Y-39026843D01*
X67667000Y-38977560D01*
X65937000Y-38977560D01*
X65689235Y-39026843D01*
X65479191Y-39167191D01*
X65338843Y-39377235D01*
X65289560Y-39625000D01*
X65289560Y-41655000D01*
X65338843Y-41902765D01*
X65479191Y-42112809D01*
X65689235Y-42253157D01*
X65913000Y-42297666D01*
X65913001Y-44689543D01*
X65662753Y-44856753D01*
X65470922Y-45143848D01*
X65403560Y-45482500D01*
X65403560Y-45921685D01*
X65387584Y-46002000D01*
X65405001Y-46089559D01*
X65405000Y-47261882D01*
X65187327Y-47407327D01*
X64848062Y-47915073D01*
X64728928Y-48514000D01*
X64848062Y-49112927D01*
X65187327Y-49620673D01*
X65405001Y-49766118D01*
X65405000Y-51792560D01*
X65394000Y-51792560D01*
X65146235Y-51841843D01*
X64936191Y-51982191D01*
X64795843Y-52192235D01*
X64746560Y-52440000D01*
X64746560Y-54240000D01*
X64795843Y-54487765D01*
X64936191Y-54697809D01*
X65146235Y-54838157D01*
X65292001Y-54867151D01*
X65292000Y-56016551D01*
X65267753Y-56032753D01*
X65151000Y-56207486D01*
X65151000Y-56075554D01*
X65168416Y-55987999D01*
X65125761Y-55773560D01*
X65099419Y-55641130D01*
X64902933Y-55347067D01*
X64828707Y-55297471D01*
X63550956Y-54019720D01*
X63585113Y-53848000D01*
X63473740Y-53288091D01*
X63156577Y-52813423D01*
X62804242Y-52578000D01*
X63156577Y-52342577D01*
X63473740Y-51867909D01*
X63585113Y-51308000D01*
X63473740Y-50748091D01*
X63156577Y-50273423D01*
X62804242Y-50038000D01*
X63156577Y-49802577D01*
X63473740Y-49327909D01*
X63585113Y-48768000D01*
X63473740Y-48208091D01*
X63156577Y-47733423D01*
X62681909Y-47416260D01*
X62263333Y-47333000D01*
X61180667Y-47333000D01*
X60762091Y-47416260D01*
X60287423Y-47733423D01*
X59970260Y-48208091D01*
X59888809Y-48617573D01*
X57149999Y-45878764D01*
X57149999Y-43089749D01*
X57167414Y-43002198D01*
X57157915Y-42954440D01*
X58571165Y-42954440D01*
X58780353Y-43315289D01*
X59717650Y-43692824D01*
X60728077Y-43682933D01*
X61615647Y-43315289D01*
X61824835Y-42954440D01*
X60198000Y-41327605D01*
X58571165Y-42954440D01*
X57157915Y-42954440D01*
X57149999Y-42914647D01*
X57149999Y-42914643D01*
X57098418Y-42655329D01*
X56901932Y-42361266D01*
X56827706Y-42311670D01*
X56668268Y-42152232D01*
X56896000Y-41602438D01*
X56896000Y-40667650D01*
X57653176Y-40667650D01*
X57663067Y-41678077D01*
X58030711Y-42565647D01*
X58391560Y-42774835D01*
X60018395Y-41148000D01*
X60377605Y-41148000D01*
X62004440Y-42774835D01*
X62365289Y-42565647D01*
X62742824Y-41628350D01*
X62732933Y-40617923D01*
X62365289Y-39730353D01*
X62004440Y-39521165D01*
X60377605Y-41148000D01*
X60018395Y-41148000D01*
X58391560Y-39521165D01*
X58030711Y-39730353D01*
X57653176Y-40667650D01*
X56896000Y-40667650D01*
X56896000Y-40591962D01*
X56509308Y-39658405D01*
X56192463Y-39341560D01*
X58571165Y-39341560D01*
X60198000Y-40968395D01*
X61824835Y-39341560D01*
X61615647Y-38980711D01*
X60678350Y-38603176D01*
X59667923Y-38613067D01*
X58780353Y-38980711D01*
X58571165Y-39341560D01*
X56192463Y-39341560D01*
X55794795Y-38943892D01*
X54861238Y-38557200D01*
X53850762Y-38557200D01*
X52917205Y-38943892D01*
X52202692Y-39658405D01*
X51816000Y-40591962D01*
X51816000Y-41602438D01*
X52043732Y-42152233D01*
X51884297Y-42311668D01*
X51810068Y-42361266D01*
X51613582Y-42655330D01*
X51589811Y-42774835D01*
X51544585Y-43002199D01*
X51562001Y-43089754D01*
X51562002Y-45224762D01*
X49669765Y-47117000D01*
X49247705Y-47117000D01*
X49131727Y-47039506D01*
X49257698Y-46987327D01*
X49436327Y-46808699D01*
X49533000Y-46575310D01*
X49533000Y-46259750D01*
X49374250Y-46101000D01*
X48500000Y-46101000D01*
X48500000Y-46121000D01*
X48246000Y-46121000D01*
X48246000Y-46101000D01*
X48226000Y-46101000D01*
X48226000Y-45847000D01*
X48246000Y-45847000D01*
X48246000Y-45022750D01*
X48500000Y-45022750D01*
X48500000Y-45847000D01*
X49374250Y-45847000D01*
X49533000Y-45688250D01*
X49533000Y-45372690D01*
X49436327Y-45139301D01*
X49257698Y-44960673D01*
X49024309Y-44864000D01*
X48658750Y-44864000D01*
X48500000Y-45022750D01*
X48246000Y-45022750D01*
X48087250Y-44864000D01*
X47721691Y-44864000D01*
X47488302Y-44960673D01*
X47417540Y-45031435D01*
X47249152Y-44918922D01*
X46910500Y-44851560D01*
X46335500Y-44851560D01*
X45996848Y-44918922D01*
X45709753Y-45110753D01*
X45517922Y-45397848D01*
X45450560Y-45736500D01*
X40885000Y-45736500D01*
X40885000Y-40671750D01*
X42188000Y-40671750D01*
X42188000Y-41527309D01*
X42284673Y-41760698D01*
X42463301Y-41939327D01*
X42696690Y-42036000D01*
X43402250Y-42036000D01*
X43561000Y-41877250D01*
X43561000Y-40513000D01*
X43815000Y-40513000D01*
X43815000Y-41877250D01*
X43973750Y-42036000D01*
X44679310Y-42036000D01*
X44912699Y-41939327D01*
X45091327Y-41760698D01*
X45172630Y-41564416D01*
X45327143Y-41736793D01*
X45855240Y-41990131D01*
X45868754Y-41992346D01*
X46101000Y-41871224D01*
X46101000Y-40513000D01*
X43815000Y-40513000D01*
X43561000Y-40513000D01*
X42346750Y-40513000D01*
X42188000Y-40671750D01*
X40885000Y-40671750D01*
X40885000Y-39244691D01*
X42188000Y-39244691D01*
X42188000Y-40100250D01*
X42346750Y-40259000D01*
X43561000Y-40259000D01*
X43561000Y-38894750D01*
X43815000Y-38894750D01*
X43815000Y-40259000D01*
X46101000Y-40259000D01*
X46101000Y-38900776D01*
X46355000Y-38900776D01*
X46355000Y-40259000D01*
X46375000Y-40259000D01*
X46375000Y-40513000D01*
X46355000Y-40513000D01*
X46355000Y-41871224D01*
X46587246Y-41992346D01*
X46600760Y-41990131D01*
X47128857Y-41736793D01*
X47494071Y-41329357D01*
X47686561Y-41617439D01*
X48182730Y-41948968D01*
X48768000Y-42065386D01*
X49353271Y-41948968D01*
X49849439Y-41617439D01*
X50180968Y-41121270D01*
X50268000Y-40683732D01*
X50268000Y-40088267D01*
X50180968Y-39650729D01*
X49849439Y-39154561D01*
X49353270Y-38823032D01*
X48768000Y-38706614D01*
X48182729Y-38823032D01*
X47686561Y-39154561D01*
X47494071Y-39442643D01*
X47128857Y-39035207D01*
X46600760Y-38781869D01*
X46587246Y-38779654D01*
X46355000Y-38900776D01*
X46101000Y-38900776D01*
X45868754Y-38779654D01*
X45855240Y-38781869D01*
X45327143Y-39035207D01*
X45172630Y-39207584D01*
X45091327Y-39011302D01*
X44912699Y-38832673D01*
X44679310Y-38736000D01*
X43973750Y-38736000D01*
X43815000Y-38894750D01*
X43561000Y-38894750D01*
X43402250Y-38736000D01*
X42696690Y-38736000D01*
X42463301Y-38832673D01*
X42284673Y-39011302D01*
X42188000Y-39244691D01*
X40885000Y-39244691D01*
X40885000Y-36885000D01*
X94115000Y-36885000D01*
X94115001Y-69115000D01*
M02*
